<svg xmlns="http://www.w3.org/2000/svg" width="45.347" height="39" viewBox="0 0 45.347 39">
  <g id="icon_Advanced_Cards" data-name="icon Advanced Cards" transform="translate(-627.255 -524.933)">
    <path id="Path_538" data-name="Path 538" d="M663.665,539.357l-.015.025h.015Zm-25.227,12.964-.026.022.026,0v-.026m25.227-12.938c0,3.578.024,7.158.008,10.737a2.136,2.136,0,0,1-2.113,2.251q-4.4.007-8.8.005-7.07,0-14.139-.005l-.181-.024q.014,5.341.028,10.681a1.977,1.977,0,0,0,2.167,2.245q9.022,0,18.044,0h12.759a1.989,1.989,0,0,0,2.2-2.288q.01-10.674,0-21.346a1.966,1.966,0,0,0-2.164-2.248q-3.9-.011-7.807-.01" transform="translate(-1.038 -1.342)" fill="#0070e0"/>
    <path id="Path_539" data-name="Path 539" d="M637.4,551.789q-3.979-.005-7.958-.013a2.032,2.032,0,0,1-2.175-2.138c-.016-5.265,0-10.53,0-15.8l.049-.2h35.3v5.2l.017-.025-.28-.03q-11.486,0-22.974,0a2.016,2.016,0,0,0-2.007,2.089c-.012,3.641,0,7.284.006,10.926Z" transform="translate(0 -0.811)" fill="#003087"/>
    <path id="Path_540" data-name="Path 540" d="M662.576,530.09H627.281c0-1.139-.07-2.255.019-3.355a1.993,1.993,0,0,1,2.191-1.8q11.691,0,23.383,0,3.73,0,7.464,0a2.072,2.072,0,0,1,2.237,2.295c0,.94,0,1.88,0,2.86" transform="translate(0)" fill="#003087"/>
    <rect id="Rectangle_241" data-name="Rectangle 241" width="6.824" height="3.033" rx="1" transform="translate(661.36 555.359)" fill="#fff"/>
  </g>
</svg>
