<?xml version="1.0" encoding="utf-8"?>
<!-- Generator: Adobe Illustrator 24.1.2, SVG Export Plug-In . SVG Version: 6.00 Build 0)  -->
<svg version="1.1" id="Layer_1" xmlns="http://www.w3.org/2000/svg" xmlns:xlink="http://www.w3.org/1999/xlink" x="0px" y="0px"
	 width="51px" height="44px" viewBox="0 0 51 44" style="enable-background:new 0 0 51 44;" xml:space="preserve">
<style type="text/css">
	.st0{fill:#003087;}
	.st1{fill:#FFFFFF;}
	.st2{fill:#0070E0;}
</style>
<g>
	<g>
		<g>
			<path class="st0" d="M45,19v-4c0-1.7-1.3-3-3-3H3c-1.7,0-3,1.3-3,3v4H45z"/>
			<path class="st0" d="M0,24v17c0,1.7,1.3,3,3,3h39c1.7,0,3-1.3,3-3V24H0z"/>
		</g>
		<path class="st1" d="M39.3,38.1h-5.5c-0.6,0-1-0.4-1-1v-1.3c0-0.6,0.4-1,1-1h5.5c0.6,0,1,0.4,1,1v1.3
			C40.3,37.6,39.9,38.1,39.3,38.1z"/>
	</g>
	<g>
		<circle class="st2" cx="37" cy="14" r="14"/>
		<g>
			<path class="st1" d="M39.6,7.5c0.6-0.8,1-1.8,0.9-2.8c-0.9,0-2,0.6-2.6,1.3c-0.6,0.6-1.1,1.7-0.9,2.7C38,8.8,39,8.3,39.6,7.5"/>
			<path class="st1" d="M41.8,14c0-2.2,1.8-3.3,1.9-3.3C42.6,9.2,41,9,40.5,9c-1.4-0.1-2.7,0.8-3.4,0.8c-0.7,0-1.8-0.8-2.9-0.8
				c-1.5,0-2.8,0.9-3.6,2.2c-1.6,2.7-0.4,6.7,1.1,8.8c0.7,1.1,1.6,2.3,2.8,2.2c1.1,0,1.5-0.7,2.9-0.7c1.3,0,1.7,0.7,2.9,0.7
				c1.2,0,2-1.1,2.7-2.2c0.9-1.2,1.2-2.4,1.2-2.5C44.1,17.6,41.8,16.7,41.8,14"/>
		</g>
	</g>
</g>
</svg>
