<svg xmlns="http://www.w3.org/2000/svg" width="141" height="141" viewBox="0 0 141 141">
  <g id="Avatar_PayPal" data-name="Avatar PayPal" transform="translate(-999 -373)">
    <circle id="Ellipse_36" data-name="Ellipse 36" cx="70.5" cy="70.5" r="70.5" transform="translate(999 373)" fill="#e6f3ff"/>
    <g id="Group_356" data-name="Group 356" transform="translate(344.36 -393.142)">
      <g id="Group_180" data-name="Group 180" transform="translate(706.64 814.142)">
        <path id="Path_406" data-name="Path 406" d="M50.376,79.563l.863-5.6-1.922-.046H40.14L46.518,32.57a.55.55,0,0,1,.178-.324.515.515,0,0,1,.34-.128H62.509c5.137,0,8.682,1.093,10.533,3.25A7.462,7.462,0,0,1,74.73,38.6a11.936,11.936,0,0,1,.011,4.46l-.02.13v1.14l.868.5A6.106,6.106,0,0,1,77.346,46.2a6.445,6.445,0,0,1,1.425,3.269,14.122,14.122,0,0,1-.2,4.743,16.943,16.943,0,0,1-1.9,5.369,10.958,10.958,0,0,1-3.01,3.373A12.09,12.09,0,0,1,69.6,64.827a19.813,19.813,0,0,1-5.067.6h-1.2a3.605,3.605,0,0,0-2.354.885,3.749,3.749,0,0,0-1.227,2.24l-.091.5L58.135,78.93l-.07.362a.314.314,0,0,1-.1.211.25.25,0,0,1-.158.059Z" transform="translate(-38.39 -30.39)" fill="#253b80"/>
        <path id="Path_407" data-name="Path 407" d="M72.153,37.682c-.046.3-.1.611-.158.928-2.041,10.712-9.022,14.412-17.938,14.412h-4.54a2.221,2.221,0,0,0-2.179,1.91L45.013,70l-.658,4.272A1.18,1.18,0,0,0,45.5,75.648h8.052a1.951,1.951,0,0,0,1.913-1.67l.079-.419,1.516-9.836.1-.54a1.95,1.95,0,0,1,1.913-1.673h1.2c7.8,0,13.908-3.238,15.693-12.609.745-3.914.36-7.183-1.613-9.482A7.728,7.728,0,0,0,72.153,37.682Z" transform="translate(-34.133 -24.75)" fill="#179bd7"/>
        <path id="Path_408" data-name="Path 408" d="M68.509,37.627q-.467-.139-.963-.253t-1.021-.2a24.667,24.667,0,0,0-4-.3H50.4a1.89,1.89,0,0,0-.837.194,1.974,1.974,0,0,0-1.076,1.479L45.9,55.259l-.074.488a2.221,2.221,0,0,1,2.179-1.91h4.54c8.916,0,15.9-3.7,17.938-14.412.061-.317.112-.626.158-.928a10.706,10.706,0,0,0-1.678-.723C68.818,37.723,68.665,37.674,68.509,37.627Z" transform="translate(-32.624 -25.565)" fill="#222d65"/>
        <path id="Path_409" data-name="Path 409" d="M55.13,44.245a1.968,1.968,0,0,1,1.076-1.478,1.9,1.9,0,0,1,.837-.194H69.17a24.712,24.712,0,0,1,4,.3q.525.086,1.021.2t.963.253c.155.047.309.1.459.145a10.859,10.859,0,0,1,1.678.723c.607-3.958-.005-6.654-2.1-9.094-2.307-2.687-6.473-3.837-11.8-3.837H47.918a2.227,2.227,0,0,0-2.186,1.911L39.288,74.94A1.35,1.35,0,0,0,40.6,76.512h9.553l2.4-15.559Z" transform="translate(-39.271 -31.26)" fill="#253b80"/>
      </g>
    </g>
  </g>
</svg>
