<?xml version="1.0" encoding="utf-8"?>
<!-- Generator: Adobe Illustrator 24.1.2, SVG Export Plug-In . SVG Version: 6.00 Build 0)  -->
<svg version="1.1" id="Layer_1" xmlns="http://www.w3.org/2000/svg" xmlns:xlink="http://www.w3.org/1999/xlink" x="0px" y="0px"
	 width="51px" height="44px" viewBox="0 0 51 44" style="enable-background:new 0 0 51 44;" xml:space="preserve">
<style type="text/css">
	.st0{fill:#003087;}
	.st1{fill:#FFFFFF;}
	.st2{fill:#0070E0;}
</style>
<g>
	<g>
		<g>
			<path class="st0" d="M45,19v-4c0-1.7-1.3-3-3-3H3c-1.7,0-3,1.3-3,3v4H45z"/>
			<path class="st0" d="M0,24v17c0,1.7,1.3,3,3,3h39c1.7,0,3-1.3,3-3V24H0z"/>
		</g>
		<path class="st1" d="M39.3,38.1h-5.5c-0.6,0-1-0.4-1-1v-1.3c0-0.6,0.4-1,1-1h5.5c0.6,0,1,0.4,1,1v1.3
			C40.3,37.6,39.9,38.1,39.3,38.1z"/>
	</g>
	<circle class="st2" cx="37" cy="14" r="14"/>
	<path class="st1" d="M44.6,12.7H44h-2.4h-4.4v3h4.5c-0.3,1-0.9,1.9-1.7,2.5c-0.7,0.6-1.7,0.9-2.7,0.9c-2.1,0-3.9-1.4-4.6-3.3
		c-0.2-0.5-0.2-1-0.2-1.5c0-0.6,0.1-1.1,0.3-1.6c0.7-1.9,2.5-3.2,4.5-3.2c1.1,0,2.2,0.4,2.9,1.1l2.2-2.2c-1.3-1.3-3.2-2.1-5.2-2.1
		c-3,0-5.7,1.8-7.1,4.4c-0.5,1.1-0.8,2.3-0.8,3.5c0,1.3,0.3,2.5,0.9,3.6c1.3,2.5,4,4.3,7,4.3c2,0,3.8-0.8,5.1-2
		c1.5-1.4,2.5-3.5,2.5-5.9C44.7,13.7,44.7,13.2,44.6,12.7z"/>
</g>
</svg>
