<svg width="1em" height="1em" viewBox="0 0 16 16" class="bi bi-arrow-down-left-square" fill="currentColor" xmlns="http://www.w3.org/2000/svg">
  <path fill-rule="evenodd" d="M14 1H2a1 1 0 0 0-1 1v12a1 1 0 0 0 1 1h12a1 1 0 0 0 1-1V2a1 1 0 0 0-1-1zM2 0a2 2 0 0 0-2 2v12a2 2 0 0 0 2 2h12a2 2 0 0 0 2-2V2a2 2 0 0 0-2-2H2z"/>
  <path fill-rule="evenodd" d="M10.828 5.172a.5.5 0 0 0-.707 0L6.025 9.268V6.5a.5.5 0 0 0-1 0v3.975a.5.5 0 0 0 .5.5H9.5a.5.5 0 0 0 0-1H6.732l4.096-4.096a.5.5 0 0 0 0-.707z"/>
</svg>