<svg width="1em" height="1em" viewBox="0 0 16 16" class="bi bi-calendar-week-fill" fill="currentColor" xmlns="http://www.w3.org/2000/svg">
  <path fill-rule="evenodd" d="M4 .5a.5.5 0 0 0-1 0V1H2a2 2 0 0 0-2 2v1h16V3a2 2 0 0 0-2-2h-1V.5a.5.5 0 0 0-1 0V1H4V.5zM16 14V5H0v9a2 2 0 0 0 2 2h12a2 2 0 0 0 2-2zM9.5 7a.5.5 0 0 0-.5.5v1a.5.5 0 0 0 .5.5h1a.5.5 0 0 0 .5-.5v-1a.5.5 0 0 0-.5-.5h-1zm3 0a.5.5 0 0 0-.5.5v1a.5.5 0 0 0 .5.5h1a.5.5 0 0 0 .5-.5v-1a.5.5 0 0 0-.5-.5h-1zM2 10.5a.5.5 0 0 1 .5-.5h1a.5.5 0 0 1 .5.5v1a.5.5 0 0 1-.5.5h-1a.5.5 0 0 1-.5-.5v-1zm3.5-.5a.5.5 0 0 0-.5.5v1a.5.5 0 0 0 .5.5h1a.5.5 0 0 0 .5-.5v-1a.5.5 0 0 0-.5-.5h-1z"/>
</svg>