<svg width="1em" height="1em" viewBox="0 0 16 16" class="bi bi-calendar2-plus" fill="currentColor" xmlns="http://www.w3.org/2000/svg">
  <path fill-rule="evenodd" d="M3.5 0a.5.5 0 0 1 .5.5V1h8V.5a.5.5 0 0 1 1 0V1h1a2 2 0 0 1 2 2v11a2 2 0 0 1-2 2H2a2 2 0 0 1-2-2V3a2 2 0 0 1 2-2h1V.5a.5.5 0 0 1 .5-.5zM2 2a1 1 0 0 0-1 1v11a1 1 0 0 0 1 1h12a1 1 0 0 0 1-1V3a1 1 0 0 0-1-1H2z"/>
  <path d="M2.5 4a.5.5 0 0 1 .5-.5h10a.5.5 0 0 1 .5.5v1a.5.5 0 0 1-.5.5H3a.5.5 0 0 1-.5-.5V4z"/>
  <path fill-rule="evenodd" d="M8 8a.5.5 0 0 1 .5.5V10H10a.5.5 0 0 1 0 1H8.5v1.5a.5.5 0 0 1-1 0V11H6a.5.5 0 0 1 0-1h1.5V8.5A.5.5 0 0 1 8 8z"/>
</svg>