<svg width="1em" height="1em" viewBox="0 0 16 16" class="bi bi-collection-play" fill="currentColor" xmlns="http://www.w3.org/2000/svg">
  <path fill-rule="evenodd" d="M14.5 13.5h-13A.5.5 0 0 1 1 13V6a.5.5 0 0 1 .5-.5h13a.5.5 0 0 1 .5.5v7a.5.5 0 0 1-.5.5zm-13 1A1.5 1.5 0 0 1 0 13V6a1.5 1.5 0 0 1 1.5-1.5h13A1.5 1.5 0 0 1 16 6v7a1.5 1.5 0 0 1-1.5 1.5h-13zM2 3a.5.5 0 0 0 .5.5h11a.5.5 0 0 0 0-1h-11A.5.5 0 0 0 2 3zm2-2a.5.5 0 0 0 .5.5h7a.5.5 0 0 0 0-1h-7A.5.5 0 0 0 4 1z"/>
  <path fill-rule="evenodd" d="M6.258 6.563a.5.5 0 0 1 .507.013l4 2.5a.5.5 0 0 1 0 .848l-4 2.5A.5.5 0 0 1 6 12V7a.5.5 0 0 1 .258-.437z"/>
</svg>