<svg width="1em" height="1em" viewBox="0 0 16 16" class="bi bi-emoji-wink-fill" fill="currentColor" xmlns="http://www.w3.org/2000/svg">
  <path fill-rule="evenodd" d="M8 0a8 8 0 1 1 0 16A8 8 0 0 1 8 0zM7 6.5C7 7.328 6.552 8 6 8s-1-.672-1-1.5S5.448 5 6 5s1 .672 1 1.5zM4.285 9.567a.5.5 0 0 1 .683.183A3.498 3.498 0 0 0 8 11.5a3.498 3.498 0 0 0 3.032-1.75.5.5 0 1 1 .866.5A4.498 4.498 0 0 1 8 12.5a4.498 4.498 0 0 1-3.898-2.25.5.5 0 0 1 .183-.683zm5.152-3.31a.5.5 0 0 0-.874.486c.33.595.958 1.007 1.687 1.007.73 0 1.356-.412 1.687-1.007a.5.5 0 0 0-.874-.486.934.934 0 0 1-.813.493.934.934 0 0 1-.813-.493z"/>
</svg>