<svg width="1em" height="1em" viewBox="0 0 16 16" class="bi bi-file-earmark-binary-fill" fill="currentColor" xmlns="http://www.w3.org/2000/svg">
  <path fill-rule="evenodd" d="M2 2a2 2 0 0 1 2-2h5.293A1 1 0 0 1 10 .293L13.707 4a1 1 0 0 1 .293.707V14a2 2 0 0 1-2 2H4a2 2 0 0 1-2-2V2zm7.5 1.5v-2l3 3h-2a1 1 0 0 1-1-1zm-2.45 8.385c0 1.415-.548 2.206-1.524 2.206C4.548 14.09 4 13.3 4 11.885c0-1.412.548-2.203 1.526-2.203.976 0 1.524.79 1.524 2.203zm-1.524-1.612c-.542 0-.832.563-.832 1.612 0 .088.003.173.006.252l1.559-1.143c-.126-.474-.375-.72-.733-.72zm-.732 2.508c.126.472.372.718.732.718.54 0 .83-.563.83-1.614 0-.085-.003-.17-.006-.25l-1.556 1.146zm6.061.624V14h-3v-.595h1.181V10.5h-.05l-1.136.747v-.688l1.19-.786h.69v3.633h1.125z"/>
</svg>