<svg width="1em" height="1em" viewBox="0 0 16 16" class="bi bi-file-zip-fill" fill="currentColor" xmlns="http://www.w3.org/2000/svg">
  <path fill-rule="evenodd" d="M4 0h8a2 2 0 0 1 2 2v12a2 2 0 0 1-2 2H4a2 2 0 0 1-2-2V2a2 2 0 0 1 2-2zm2.5 8.5a1 1 0 0 1 1-1h1a1 1 0 0 1 1 1v.938l.4 1.599a1 1 0 0 1-.416 1.074l-.93.62a1 1 0 0 1-1.109 0l-.93-.62a1 1 0 0 1-.415-1.074l.4-1.599V8.5zm2 .938V8.5h-1v.938a1 1 0 0 1-.03.243l-.4 1.598.93.62.93-.62-.4-1.598a1 1 0 0 1-.03-.243zM7.5 3V2h-1V1H8v1h1v1H8v1h1v1H8v1h1v1H7.5V6h-1V5h1V4h-1V3h1z"/>
</svg>