<svg width="1em" height="1em" viewBox="0 0 16 16" class="bi bi-file-slides" fill="currentColor" xmlns="http://www.w3.org/2000/svg">
  <path fill-rule="evenodd" d="M4 0h8a2 2 0 0 1 2 2v12a2 2 0 0 1-2 2H4a2 2 0 0 1-2-2V2a2 2 0 0 1 2-2zm0 1a1 1 0 0 0-1 1v12a1 1 0 0 0 1 1h8a1 1 0 0 0 1-1V2a1 1 0 0 0-1-1H4z"/>
  <path d="M10 11.5c0 .276-.895.5-2 .5s-2-.224-2-.5.895-.5 2-.5 2 .224 2 .5z"/>
  <path fill-rule="evenodd" d="M4.504 4.438A.5.5 0 0 1 5 4h6a.5.5 0 0 1 .496.438l.5 4A.5.5 0 0 1 11.5 9h-3v2.016a7.795 7.795 0 0 0-1 0V9h-3a.5.5 0 0 1-.496-.562l.5-4zM7 5.221v2.558c0 .097.106.157.19.107l2.13-1.279a.125.125 0 0 0 0-.214l-2.13-1.28a.125.125 0 0 0-.19.109z"/>
</svg>