<svg width="1em" height="1em" viewBox="0 0 16 16" class="bi bi-headset" fill="currentColor" xmlns="http://www.w3.org/2000/svg">
  <path fill-rule="evenodd" d="M8 1a5 5 0 0 0-5 5v4.5H2V6a6 6 0 1 1 12 0v4.5h-1V6a5 5 0 0 0-5-5z"/>
  <path d="M11 8a1 1 0 0 1 1-1h2v4a1 1 0 0 1-1 1h-1a1 1 0 0 1-1-1V8zM5 8a1 1 0 0 0-1-1H2v4a1 1 0 0 0 1 1h1a1 1 0 0 0 1-1V8z"/>
  <path fill-rule="evenodd" d="M13.5 8.5a.5.5 0 0 1 .5.5v3a2.5 2.5 0 0 1-2.5 2.5H8a.5.5 0 0 1 0-1h3.5A1.5 1.5 0 0 0 13 12V9a.5.5 0 0 1 .5-.5z"/>
  <path d="M6.5 14a1 1 0 0 1 1-1h1a1 1 0 1 1 0 2h-1a1 1 0 0 1-1-1z"/>
</svg>