<svg width="1em" height="1em" viewBox="0 0 16 16" class="bi bi-kanban" fill="currentColor" xmlns="http://www.w3.org/2000/svg">
  <path fill-rule="evenodd" d="M13.5 1h-11a1 1 0 0 0-1 1v12a1 1 0 0 0 1 1h11a1 1 0 0 0 1-1V2a1 1 0 0 0-1-1zm-11-1a2 2 0 0 0-2 2v12a2 2 0 0 0 2 2h11a2 2 0 0 0 2-2V2a2 2 0 0 0-2-2h-11z"/>
  <path d="M6.5 3a1 1 0 0 1 1-1h1a1 1 0 0 1 1 1v3a1 1 0 0 1-1 1h-1a1 1 0 0 1-1-1V3zm-4 0a1 1 0 0 1 1-1h1a1 1 0 0 1 1 1v7a1 1 0 0 1-1 1h-1a1 1 0 0 1-1-1V3zm8 0a1 1 0 0 1 1-1h1a1 1 0 0 1 1 1v10a1 1 0 0 1-1 1h-1a1 1 0 0 1-1-1V3z"/>
</svg>