<svg width="1em" height="1em" viewBox="0 0 16 16" class="bi bi-menu-up" fill="currentColor" xmlns="http://www.w3.org/2000/svg">
  <path fill-rule="evenodd" d="M15 3.207v9a1 1 0 0 1-1 1h-3.586A2 2 0 0 0 9 13.793l-1 1-1-1a2 2 0 0 0-1.414-.586H2a1 1 0 0 1-1-1v-9a1 1 0 0 1 1-1h12a1 1 0 0 1 1 1zm-13 11a2 2 0 0 1-2-2v-9a2 2 0 0 1 2-2h12a2 2 0 0 1 2 2v9a2 2 0 0 1-2 2h-3.586a1 1 0 0 0-.707.293l-1.353 1.354a.5.5 0 0 1-.708 0L6.293 14.5a1 1 0 0 0-.707-.293H2z"/>
  <path fill-rule="evenodd" d="M15 5.207H1v1h14v-1zm0 4H1v1h14v-1zm-13-5.5a.5.5 0 0 0 .5.5h6a.5.5 0 1 0 0-1h-6a.5.5 0 0 0-.5.5zm0 4a.5.5 0 0 0 .5.5h11a.5.5 0 0 0 0-1h-11a.5.5 0 0 0-.5.5zm0 4a.5.5 0 0 0 .5.5h8a.5.5 0 0 0 0-1h-8a.5.5 0 0 0-.5.5z"/>
</svg>