<svg width="1em" height="1em" viewBox="0 0 16 16" class="bi bi-sim-fill" fill="currentColor" xmlns="http://www.w3.org/2000/svg">
  <path fill-rule="evenodd" d="M3.5 0A1.5 1.5 0 0 0 2 1.5v13A1.5 1.5 0 0 0 3.5 16h9a1.5 1.5 0 0 0 1.5-1.5V3.414a1.5 1.5 0 0 0-.44-1.06L11.647.439A1.5 1.5 0 0 0 10.586 0H3.5zM5 4.5a.5.5 0 0 1 .5-.5h2v2H5V4.5zM8.5 6V4h2a.5.5 0 0 1 .5.5V6H8.5zM5 7h6v2H5V7zm3.5 3H11v1.5a.5.5 0 0 1-.5.5h-2v-2zm-1 0v2h-2a.5.5 0 0 1-.5-.5V10h2.5zm-2-7A1.5 1.5 0 0 0 4 4.5v7A1.5 1.5 0 0 0 5.5 13h5a1.5 1.5 0 0 0 1.5-1.5v-7A1.5 1.5 0 0 0 10.5 3h-5z"/>
</svg>