<svg width="1em" height="1em" viewBox="0 0 16 16" class="bi bi-tv" fill="currentColor" xmlns="http://www.w3.org/2000/svg">
  <path fill-rule="evenodd" d="M2.5 13.5A.5.5 0 0 1 3 13h10a.5.5 0 0 1 0 1H3a.5.5 0 0 1-.5-.5zM13.991 3H2c-.325 0-.502.078-.602.145a.758.758 0 0 0-.254.302A1.46 1.46 0 0 0 1 4.01V10c0 .325.078.502.145.602.07.105.17.188.302.254a1.464 1.464 0 0 0 .538.143L2.01 11H14c.325 0 .502-.078.602-.145a.758.758 0 0 0 .254-.302 1.464 1.464 0 0 0 .143-.538L15 9.99V4c0-.325-.078-.502-.145-.602a.757.757 0 0 0-.302-.254A1.46 1.46 0 0 0 13.99 3zM14 2H2C0 2 0 4 0 4v6c0 2 2 2 2 2h12c2 0 2-2 2-2V4c0-2-2-2-2-2z"/>
</svg>