<?xml version="1.0" encoding="utf-8"?>
<!-- Generator: Adobe Illustrator 24.1.2, SVG Export Plug-In . SVG Version: 6.00 Build 0)  -->
<svg version="1.1" id="Layer_1" xmlns="http://www.w3.org/2000/svg" xmlns:xlink="http://www.w3.org/1999/xlink" x="0px" y="0px"
	 width="51px" height="44px" viewBox="0 0 51 44" style="enable-background:new 0 0 51 44;" xml:space="preserve">
<style type="text/css">
	.st0{fill:#003087;}
	.st1{fill:#0070E0;}
	.st2{fill:#FFFFFF;}
</style>
<g>
	<path class="st0" d="M45,19v-4c0-1.7-1.3-3-3-3H3c-1.7,0-3,1.3-3,3v4H45z"/>
	<path class="st0" d="M0,24v17c0,1.7,1.3,3,3,3h39c1.7,0,3-1.3,3-3V24H0z"/>
</g>
<circle class="st1" cx="37" cy="14" r="14"/>
<path class="st2" d="M4.8,36.4l1.1-6.1c0-0.1,0.1-0.2,0.2-0.2H10c0.1,0,0.2,0.1,0.2,0.2l-0.2,0.9c0,0.1-0.1,0.2-0.2,0.2H7.3L7,32.7
	h2.3c0.1,0,0.2,0.1,0.2,0.2l-0.1,0.8c0,0.1-0.1,0.2-0.2,0.2H6.8l-0.4,2.5c0,0.1-0.1,0.2-0.2,0.2H5C4.9,36.6,4.8,36.5,4.8,36.4
	L4.8,36.4z M9.4,35.4c0-1.2,1.3-1.6,2.6-1.7c0.2,0,0.3,0,0.9-0.1c0-0.1,0-0.2,0-0.3c0-0.4-0.2-0.7-0.7-0.7c-0.4,0-0.7,0.2-0.8,0.5
	c0,0.1-0.1,0.2-0.2,0.2h-0.9c-0.1,0-0.2-0.1-0.2-0.2c0,0,0-0.1,0-0.1c0.3-0.9,1.1-1.4,2.4-1.4s1.9,0.5,1.9,1.6c0,0.2,0,0.5-0.1,0.7
	L14,35.3c-0.1,0.3-0.1,0.8-0.1,1.1c0,0.2-0.1,0.2-0.2,0.2h-0.9c-0.1,0-0.2-0.1-0.2-0.2c0-0.1,0-0.2,0-0.4c-0.4,0.3-0.8,0.6-1.6,0.6
	C10,36.7,9.4,36.3,9.4,35.4L9.4,35.4L9.4,35.4z M12.8,34.7l0-0.2l-0.3,0c-0.5,0.1-1.6,0.1-1.6,0.8c0,0.3,0.3,0.5,0.7,0.5
	C12.4,35.8,12.6,35.3,12.8,34.7L12.8,34.7L12.8,34.7z M14.4,35.5c0-0.1,0-0.2,0-0.3c0-0.2,0.1-0.2,0.2-0.2h1.1
	c0.1,0,0.2,0.1,0.2,0.2c0.1,0.4,0.4,0.5,0.9,0.5c0.5,0,0.8-0.2,0.8-0.5c0-0.2-0.3-0.3-0.7-0.5l-0.5-0.2c-0.8-0.2-1.4-0.5-1.4-1.4
	c0-1,1-1.6,2.3-1.6c1,0,1.9,0.3,2.1,1.3c0,0,0,0.1,0,0.1c0,0.1-0.1,0.1-0.2,0.1h-1c-0.1,0-0.2-0.1-0.2-0.2c-0.1-0.2-0.4-0.4-0.8-0.4
	c-0.5,0-0.7,0.2-0.7,0.4c0,0.2,0.2,0.4,0.9,0.5l0.4,0.1c0.8,0.3,1.5,0.6,1.5,1.3c0,1.1-1,1.7-2.4,1.7C15.6,36.8,14.6,36.5,14.4,35.5
	L14.4,35.5L14.4,35.5z M19.7,35.8c0-0.2,0-0.3,0.1-0.5l0.5-2.5h-0.5c-0.1,0-0.2-0.1-0.2-0.2l0.1-0.6c0-0.1,0.1-0.2,0.2-0.2h0.5
	l0.2-1.1c0-0.1,0.1-0.2,0.2-0.2h1c0.1,0,0.2,0.1,0.2,0.2l-0.2,1.1h0.7c0.1,0,0.2,0.1,0.2,0.2l-0.1,0.6c0,0.1-0.1,0.2-0.2,0.2h-0.7
	l-0.3,1.6c-0.1,0.3-0.1,0.5-0.1,0.7c0,0.3,0.1,0.4,0.3,0.4c0.1,0,0.2,0,0.2,0c0.1,0,0.2,0.1,0.2,0.2l-0.1,0.6c0,0.2-0.2,0.3-0.5,0.3
	C20.5,36.7,19.7,36.7,19.7,35.8L19.7,35.8z M22.4,36.4l1.1-6.1c0-0.1,0.1-0.2,0.2-0.2h1c0.1,0,0.2,0.1,0.2,0.2l-1.1,6.1
	c0,0.1-0.1,0.2-0.2,0.2h-1C22.4,36.6,22.4,36.5,22.4,36.4L22.4,36.4z M24.5,35.4c0-1.2,1.3-1.6,2.6-1.7c0.2,0,0.3,0,0.9-0.1
	c0-0.1,0-0.2,0-0.3c0-0.4-0.2-0.7-0.7-0.7c-0.4,0-0.7,0.2-0.8,0.5c0,0.1-0.1,0.2-0.2,0.2h-0.9c-0.1,0-0.2-0.1-0.2-0.2
	c0,0,0-0.1,0-0.1c0.3-0.9,1.1-1.4,2.4-1.4c1.2,0,1.9,0.5,1.9,1.6c0,0.2,0,0.5-0.1,0.7l-0.3,1.3c-0.1,0.3-0.1,0.8-0.1,1.1
	c0,0.2-0.1,0.2-0.2,0.2h-0.9c-0.1,0-0.2-0.1-0.2-0.2c0-0.1,0-0.2,0-0.4c-0.4,0.3-0.8,0.6-1.6,0.6C25.1,36.7,24.5,36.3,24.5,35.4
	L24.5,35.4L24.5,35.4z M27.8,34.7l0-0.2l-0.3,0c-0.5,0.1-1.6,0.1-1.6,0.8c0,0.3,0.3,0.5,0.7,0.5C27.4,35.8,27.7,35.3,27.8,34.7
	L27.8,34.7L27.8,34.7z M29.5,36.4l0.8-4.4c0-0.1,0.1-0.2,0.2-0.2h1c0.1,0,0.2,0.1,0.2,0.2l-0.1,0.4c0.2-0.3,0.8-0.8,1.6-0.8
	c0.9,0,1.5,0.6,1.5,1.5c0,0.2,0,0.3-0.1,0.6l-0.5,2.7c0,0.1-0.1,0.2-0.2,0.2h-1c-0.1,0-0.2-0.1-0.2-0.2l0.4-2.1
	c0.1-0.3,0.1-0.5,0.1-0.7c0-0.5-0.2-0.8-0.6-0.8c-0.6,0-1,0.5-1.1,1.3l-0.4,2.3c0,0.1-0.1,0.2-0.2,0.2h-1
	C29.5,36.6,29.5,36.5,29.5,36.4L29.5,36.4z M34.9,34.6c0-1.5,1.1-2.9,2.9-2.9c1.4,0,2.3,0.8,2.3,2.2c0,0.2,0,0.3,0,0.5
	c0,0.1-0.1,0.2-0.2,0.2h-3.5c0,0.7,0.3,1.1,1.1,1.1c0.4,0,0.6-0.1,0.8-0.3c0.1-0.1,0.1-0.1,0.3-0.1h1.1c0.1,0,0.2,0,0.2,0.1
	c0,0,0,0.1,0,0.1c-0.5,0.8-1.2,1.3-2.5,1.3C35.9,36.8,34.9,36,34.9,34.6L34.9,34.6L34.9,34.6z M38.7,33.7c0-0.6-0.3-1-1-1
	c-0.7,0-1.1,0.5-1.2,1H38.7L38.7,33.7L38.7,33.7z"/>
<path class="st2" d="M38.5,11.9c-0.1,0-0.1,0-0.1-0.1c0,0,0,0,0-0.1l0.4-1l-1.2-3.1c0,0,0-0.1,0-0.1c0-0.1,0.1-0.1,0.1-0.1h0.4
	c0.1,0,0.1,0,0.2,0.1l0.6,1.7c0.1,0.3,0.2,0.5,0.3,0.8h0c0.1-0.3,0.2-0.5,0.3-0.8L40,7.6c0-0.1,0.1-0.1,0.2-0.1h0.4
	c0.1,0,0.1,0,0.1,0.1c0,0,0,0.1,0,0.1l-1.7,4.1c0,0.1-0.1,0.1-0.2,0.1L38.5,11.9L38.5,11.9z M36,10.8c-0.6,0-0.9-0.2-1.1-0.5v0.3
	c0,0.1-0.1,0.1-0.1,0.1h-0.3c-0.1,0-0.1,0-0.1-0.1V6.5c0-0.1,0.1-0.1,0.1-0.1h0.4c0.1,0,0.1,0,0.1,0.1v0.8c0,0.2,0,0.4,0,0.6
	c0.2-0.3,0.6-0.5,1.1-0.5c0.9,0,1.5,0.7,1.5,1.7C37.6,10.1,36.9,10.8,36,10.8z M35.9,10.3c0.6,0,1-0.5,1-1.2c0-0.7-0.4-1.2-1-1.2
	c-0.6,0-1,0.5-1,1.2S35.3,10.3,35.9,10.3L35.9,10.3z M29.7,15.5c0,0.3-0.3,0.5-0.8,0.5h-0.6l0.2-1.1h0.6
	C29.5,14.9,29.7,15.2,29.7,15.5L29.7,15.5z M33.1,16.9c-0.1,0.4-0.4,0.7-0.9,0.7c-0.1,0-0.2,0-0.2,0c-0.3-0.1-0.5-0.4-0.5-0.8
	c0.1-0.4,0.4-0.7,0.9-0.7c0.1,0,0.2,0,0.2,0C32.9,16.2,33.1,16.5,33.1,16.9L33.1,16.9z M40.7,15.5c-0.1,0.3-0.3,0.5-0.8,0.5h-0.6
	l0.2-1.1h0.6C40.6,14.9,40.7,15.2,40.7,15.5L40.7,15.5z M44.1,16.9c-0.1,0.4-0.4,0.7-0.9,0.7c-0.1,0-0.2,0-0.2,0
	c-0.3-0.1-0.5-0.4-0.5-0.8c0.1-0.4,0.4-0.7,0.9-0.7c0.1,0,0.2,0,0.2,0C44,16.2,44.1,16.5,44.1,16.9L44.1,16.9z M37,15.3l-0.9,1.5
	l-0.5-1.5c0,0-0.1-0.1-0.1-0.1h-0.8c-0.1,0-0.1,0.1-0.1,0.1l0.8,2.6l-0.8,1.2c0,0.1,0,0.1,0.1,0.1h0.9c0.1,0,0.1,0,0.1-0.1l2.3-3.8
	c0-0.1,0-0.1-0.1-0.1h-0.9C37.1,15.3,37,15.3,37,15.3L37,15.3z M29,17c0.9,0,1.6-0.6,1.7-1.4c0.1-0.8-0.5-1.6-1.5-1.6h-1.5
	c-0.1,0-0.1,0-0.1,0.1l-0.7,4.2c0,0.1,0,0.1,0.1,0.1h0.8c0.1,0,0.1,0,0.1-0.1l0.2-1.2c0-0.1,0.1-0.1,0.1-0.1L29,17L29,17z
	 M34.2,15.3h-0.8c-0.1,0-0.1,0-0.1,0.1l0,0.2c0,0-0.6-0.6-1.6-0.2c-0.6,0.2-0.9,0.8-1,1.1c0,0-0.4,1.1,0.5,1.8c0,0,0.8,0.6,1.7,0
	l0,0.1c0,0.1,0,0.1,0.1,0.1h0.8c0.1,0,0.1,0,0.1-0.1l0.5-2.9C34.3,15.3,34.3,15.3,34.2,15.3L34.2,15.3z M40,17
	c0.9,0,1.6-0.6,1.7-1.4c0.1-0.8-0.5-1.6-1.5-1.6h-1.5c-0.1,0-0.1,0-0.1,0.1l-0.7,4.2c0,0.1,0,0.1,0.1,0.1h0.8c0.1,0,0.1,0,0.1-0.1
	l0.2-1.2c0-0.1,0.1-0.1,0.1-0.1L40,17L40,17L40,17z M45.2,15.3h-0.8c-0.1,0-0.1,0-0.1,0.1l0,0.2c0,0-0.6-0.6-1.6-0.2
	c-0.6,0.2-0.9,0.8-1,1.1c0,0-0.4,1.1,0.5,1.8c0,0,0.8,0.6,1.7,0l0,0.1c0,0.1,0,0.1,0.1,0.1h0.8c0.1,0,0.1,0,0.1-0.1l0.5-2.9
	C45.3,15.3,45.3,15.3,45.2,15.3L45.2,15.3z M46.1,14l-0.7,4.2c0,0.1,0,0.1,0.1,0.1h0.8c0.1,0,0.1,0,0.1-0.1l0.7-4.2
	c0-0.1,0-0.1-0.1-0.1h-0.8C46.1,13.9,46.1,14,46.1,14z"/>
</svg>
