<svg id="Image" xmlns="http://www.w3.org/2000/svg" width="407" height="407" viewBox="0 0 407 407">
  <rect id="Rectangle_190" data-name="Rectangle 190" width="407" height="407" fill="#f2f6ff"/>
  <g id="Group_407" data-name="Group 407" transform="translate(-731.818 -765)">
    <path id="Path_533" data-name="Path 533" d="M1000.17,892H897.418a10.887,10.887,0,0,0-10.873,10.873v12.232H869.691a10.887,10.887,0,0,0-10.873,10.873v107.373a10.887,10.887,0,0,0,10.873,10.873H977.064a10.885,10.885,0,0,0,10.873-10.873V1016.5h12.232a10.885,10.885,0,0,0,10.873-10.873V902.873A10.886,10.886,0,0,0,1000.17,892ZM890.894,902.873a6.532,6.532,0,0,1,6.524-6.524H1000.17a6.53,6.53,0,0,1,6.524,6.524V975.3l-18.756-16.077V925.979a10.886,10.886,0,0,0-10.873-10.873h-86.17Zm-21.2,16.582H977.064a6.53,6.53,0,0,1,6.524,6.524v72.953L956.6,975.8a6.99,6.99,0,0,0-8.894-.15l-17.536,14.031a2.619,2.619,0,0,1-3.495-.194L904.05,966.86a6.781,6.781,0,0,0-9.4-.2l-31.484,28.862V925.979A6.532,6.532,0,0,1,869.691,919.455Zm107.373,120.421H869.691a6.532,6.532,0,0,1-6.524-6.524v-31.935l34.422-31.554a2.443,2.443,0,0,1,3.386.072L923.6,992.562a6.972,6.972,0,0,0,9.288.515l17.534-14.031a2.633,2.633,0,0,1,3.349.057l29.814,25.554v28.694A6.53,6.53,0,0,1,977.064,1039.875Zm23.106-27.727H987.937v-47.2l18.756,16.077v24.6A6.531,6.531,0,0,1,1000.17,1012.149Z" transform="translate(0 0)" fill="#d3def8"/>
    <path id="Path_534" data-name="Path 534" d="M911.151,929.055a7.2,7.2,0,1,0-7.2-7.2A7.2,7.2,0,0,0,911.151,929.055Z" transform="translate(53.017 26.616)" fill="#d3def8"/>
  </g>
</svg>
