<svg xmlns="http://www.w3.org/2000/svg" width="18.548" height="15.976" viewBox="0 0 18.548 15.976">
  <path id="arrow_left" data-name="arrow left" d="M13630.656-428.749l-.008-.007-6.679-6.786a1.13,1.13,0,0,1-.1-.12,1.191,1.191,0,0,1,.041-1.637l6.734-6.734a1.187,1.187,0,0,1,1.682,0,1.19,1.19,0,0,1,0,1.684l-4.756,4.756h13.343a1.2,1.2,0,0,1,1.2,1.2,1.2,1.2,0,0,1-1.2,1.2h-13.257l4.663,4.738a1.214,1.214,0,0,1,0,1.7,1.167,1.167,0,0,1-.834.35A1.165,1.165,0,0,1,13630.656-428.749Z" transform="translate(-13623.561 444.382)" fill="#102f82"/>
</svg>
