<?xml version="1.0" encoding="UTF-8" standalone="no"?>
<svg
   xmlns:dc="http://purl.org/dc/elements/1.1/"
   xmlns:cc="http://creativecommons.org/ns#"
   xmlns:rdf="http://www.w3.org/1999/02/22-rdf-syntax-ns#"
   xmlns:svg="http://www.w3.org/2000/svg"
   xmlns="http://www.w3.org/2000/svg"
   viewBox="0 0 81.333336 576"
   height="576"
   width="81.333336"
   xml:space="preserve"
   id="svg2"
   version="1.1"><metadata
     id="metadata8"><rdf:RDF><cc:Work
         rdf:about=""><dc:format>image/svg+xml</dc:format><dc:type
           rdf:resource="http://purl.org/dc/dcmitype/StillImage" /></cc:Work></rdf:RDF></metadata><defs
     id="defs6"><clipPath
       id="clipPath18"
       clipPathUnits="userSpaceOnUse"><path
         id="path16"
         d="M 0,432 H 61 V 0 H 0 Z" /></clipPath><linearGradient
       id="linearGradient96"
       spreadMethod="pad"
       gradientTransform="matrix(9.33988,0,0,-9.33988,36.297581,268.54712)"
       gradientUnits="userSpaceOnUse"
       y2="0"
       x2="1"
       y1="0"
       x1="0"><stop
         id="stop88"
         offset="0"
         style="stop-opacity:1;stop-color:#007940" /><stop
         id="stop90"
         offset="0.2285"
         style="stop-opacity:1;stop-color:#00873f" /><stop
         id="stop92"
         offset="0.7433"
         style="stop-opacity:1;stop-color:#40a737" /><stop
         id="stop94"
         offset="1"
         style="stop-opacity:1;stop-color:#5cb531" /></linearGradient><clipPath
       id="clipPath106"
       clipPathUnits="userSpaceOnUse"><path
         id="path104"
         d="M 0,432 H 61 V 0 H 0 Z" /></clipPath><linearGradient
       id="linearGradient140"
       spreadMethod="pad"
       gradientTransform="matrix(9.3402557,0,0,-9.3402557,36.297344,271.586)"
       gradientUnits="userSpaceOnUse"
       y2="0"
       x2="1"
       y1="0"
       x1="0"><stop
         id="stop132"
         offset="0"
         style="stop-opacity:1;stop-color:#007940" /><stop
         id="stop134"
         offset="0.2285"
         style="stop-opacity:1;stop-color:#00873f" /><stop
         id="stop136"
         offset="0.7433"
         style="stop-opacity:1;stop-color:#40a737" /><stop
         id="stop138"
         offset="1"
         style="stop-opacity:1;stop-color:#5cb531" /></linearGradient><clipPath
       id="clipPath150"
       clipPathUnits="userSpaceOnUse"><path
         id="path148"
         d="M 0,432 H 61 V 0 H 0 Z" /></clipPath></defs><g
     transform="matrix(1.3333333,0,0,-1.3333333,0,576)"
     id="g10"><g
       id="g12"><g
         clip-path="url(#clipPath18)"
         id="g14"><g
           transform="translate(56.9997,360.9998)"
           id="g20"><path
             id="path22"
             style="fill:#006fcf;fill-opacity:1;fill-rule:nonzero;stroke:none"
             d="m 0,0 h -53 c -1.657,0 -3,1.343 -3,3 v 28 c 0,1.657 1.343,3 3,3 H 0 c 1.657,0 3,-1.343 3,-3 V 3 C 3,1.343 1.657,0 0,0" /></g><g
           transform="translate(59.9997,366.6087)"
           id="g24"><path
             id="path26"
             style="fill:#ffffff;fill-opacity:1;fill-rule:nonzero;stroke:none"
             d="m 0,0 v 9.745 h -36.136 l -0.919,-1.317 -0.92,1.317 H -48.487 V -0.659 h 10.512 l 0.92,1.317 0.919,-1.317 h 6.571 V 1.58 h -0.263 c 0.92,0 1.708,0.132 2.365,0.395 v -2.766 h 4.731 v 1.317 l 0.92,-1.317 H -2.233 C -1.445,-0.527 -0.656,-0.395 0,0 m -7.227,13.169 h 4.468 v 10.404 h -4.862 v -1.448 l -0.92,1.448 h -4.205 v -1.844 l -0.788,1.844 h -7.753 c -0.263,0 -0.525,-0.132 -0.788,-0.132 -0.263,0 -0.395,-0.131 -0.657,-0.263 -0.263,-0.132 -0.395,-0.132 -0.658,-0.263 v 0.658 h -22.207 l -0.656,-1.712 -0.658,1.712 h -5.256 v -1.844 l -0.788,1.844 H -57.16 L -59,19.095 v -5.926 h 3.022 l 0.526,1.449 h 1.052 l 0.525,-1.449 h 23.127 v 1.317 l 0.92,-1.317 h 6.438 v 0.79 c 0.132,-0.131 0.395,-0.131 0.526,-0.263 0.132,-0.132 0.394,-0.132 0.526,-0.263 0.263,-0.132 0.526,-0.132 0.788,-0.132 h 4.731 l 0.525,1.449 h 1.052 l 0.525,-1.449 h 6.439 v 1.317 z" /></g><g
           transform="translate(7.3073,381.49)"
           id="g28"><path
             id="path30"
             style="fill:#006fcf;fill-opacity:1;fill-rule:nonzero;stroke:none"
             d="M 0,0 H 1.708 L -1.314,6.979 H -3.285 L -6.307,0 h 1.708 l 0.657,1.448 h 3.417 z m -2.759,4.346 0.525,1.448 0.526,-1.448 0.657,-1.58 H -3.417 Z M 5.782,0 H 7.227 L 9.198,5.663 V 0 h 1.577 V 6.979 H 8.147 L 6.57,2.239 4.993,6.979 H 2.365 V 0 H 3.942 V 5.663 Z M 17.739,5.531 V 6.979 H 12.221 V 0 h 5.518 v 1.448 h -3.942 v 1.449 h 3.811 v 1.449 h -3.811 v 1.317 h 3.942 z M 20.63,2.502 h 0.789 L 23.521,0 h 1.971 l -2.365,2.634 c 1.183,0.263 1.84,1.054 1.84,2.107 0,1.317 -0.92,2.238 -2.365,2.238 h -3.68 V 0 h 1.577 z m 1.972,3.029 c 0.656,0 0.919,-0.395 0.919,-0.79 0,-0.395 -0.263,-0.79 -0.919,-0.79 H 20.63 V 5.663 Z M 26.018,0 h 1.577 v 6.848 h -1.577 z m 5.913,0 0.657,1.448 h -0.395 c -1.182,0 -1.839,0.791 -1.839,1.976 v 0.132 c 0,1.185 0.657,1.975 1.839,1.975 h 1.709 v 1.448 h -1.839 c -2.103,0 -3.286,-1.448 -3.286,-3.423 V 3.424 C 28.777,1.317 29.96,0 31.931,0 m 7.359,0 h 1.708 L 37.976,6.979 H 35.873 L 32.851,0 h 1.708 l 0.657,1.448 h 3.417 z m -2.76,4.346 0.526,1.448 0.525,-1.448 0.657,-1.58 H 35.873 Z M 43.363,4.214 46.122,0 h 1.972 V 6.979 H 46.517 V 2.37 l -0.395,0.659 -2.496,3.95 H 41.523 V 0 h 1.578 V 4.741 Z M 11.432,-8.165 v 1.449 H 5.913 v -6.98 h 5.519 v 1.448 H 7.49 v 1.449 h 3.811 v 1.448 H 7.49 v 1.317 h 3.942 z m 5.913,-5.531 h 1.971 l -2.759,3.555 2.759,3.425 h -1.971 l -1.708,-2.239 -1.708,2.239 h -1.971 l 2.759,-3.425 -2.759,-3.423 h 1.971 l 1.708,2.238 z m 2.365,6.98 v -6.98 h 1.577 v 2.37 h 2.103 c 1.445,0 2.497,0.922 2.497,2.371 0,1.317 -0.92,2.37 -2.366,2.37 z m 4.6,-2.371 c 0,-0.527 -0.263,-0.922 -0.92,-0.922 h -2.103 v 1.844 h 1.971 c 0.658,0 1.052,-0.395 1.052,-0.922 m 4.205,-2.107 h 0.788 l 2.102,-2.502 h 1.971 l -2.365,2.633 c 1.182,0.264 1.84,1.054 1.84,2.108 0,1.317 -0.92,2.239 -2.366,2.239 h -3.678 v -6.98 h 1.576 z m 1.97,3.029 c 0.658,0 0.92,-0.395 0.92,-0.79 0,-0.396 -0.262,-0.791 -0.92,-0.791 h -1.97 v 1.712 z m 8.936,0 v 1.449 h -5.519 v -6.98 h 5.519 v 1.448 h -3.942 v 1.449 h 3.811 v 1.448 h -3.811 v 1.317 h 3.942 z m 4.6,-4.214 h -3.548 v -1.449 h 3.416 c 1.445,0 2.365,0.922 2.365,2.239 0,1.317 -0.788,1.975 -2.103,1.975 h -1.577 c -0.393,0 -0.656,0.263 -0.656,0.659 0,0.395 0.263,0.658 0.656,0.658 h 3.023 l 0.657,1.449 h -3.548 c -1.445,0 -2.365,-0.922 -2.365,-2.107 0,-1.317 0.788,-1.976 2.102,-1.976 h 1.578 c 0.393,0 0.656,-0.263 0.656,-0.658 0.132,-0.527 -0.263,-0.79 -0.656,-0.79 m 6.438,0 h -3.548 v -1.449 h 3.416 c 1.445,0 2.365,0.922 2.365,2.239 0,1.317 -0.788,1.975 -2.102,1.975 h -1.576 c -0.395,0 -0.658,0.263 -0.658,0.659 0,0.395 0.263,0.658 0.658,0.658 h 3.022 l 0.656,1.449 h -3.547 c -1.446,0 -2.366,-0.922 -2.366,-2.107 0,-1.317 0.789,-1.976 2.103,-1.976 h 1.577 c 0.395,0 0.657,-0.263 0.657,-0.658 0.131,-0.527 -0.132,-0.79 -0.657,-0.79" /></g><g
           transform="translate(56.9997,324.9998)"
           id="g32"><path
             id="path34"
             style="fill:#0079be;fill-opacity:1;fill-rule:nonzero;stroke:none"
             d="m 0,0 h -53 c -1.657,0 -3,1.343 -3,3 v 28 c 0,1.657 1.343,3 3,3 H 0 c 1.657,0 3,-1.343 3,-3 V 3 C 3,1.343 1.657,0 0,0" /></g><g
           transform="translate(47.1179,341.885)"
           id="g36"><path
             id="path38"
             style="fill:#ffffff;fill-opacity:1;fill-rule:nonzero;stroke:none"
             d="m 0,0 c 0,7.887 -6.568,13.338 -13.766,13.336 h -6.193 C -27.241,13.338 -33.236,7.885 -33.236,0 c 0,-7.214 5.995,-13.141 13.277,-13.105 h 6.193 C -6.569,-13.14 0,-7.212 0,0" /></g><g
           transform="translate(27.198,354.1038)"
           id="g40"><path
             id="path42"
             style="fill:#0079be;fill-opacity:1;fill-rule:nonzero;stroke:none"
             d="m 0,0 c -6.655,-0.002 -12.047,-5.419 -12.048,-12.104 10e-4,-6.685 5.394,-12.101 12.048,-12.104 6.656,0.003 12.05,5.419 12.051,12.104 C 12.05,-5.419 6.656,-0.002 0,0" /></g><g
           transform="translate(29.9519,334.8704)"
           id="g44"><path
             id="path46"
             style="fill:#ffffff;fill-opacity:1;fill-rule:nonzero;stroke:none"
             d="M 0,0 V 14.322 C 2.866,13.217 4.901,10.43 4.906,7.161 4.901,3.892 2.866,1.106 0,0 m -10.37,7.162 c 0.007,3.266 2.038,6.052 4.904,7.159 V 0.003 c -2.866,1.107 -4.897,3.891 -4.904,7.159" /></g><g
           transform="translate(56.9997,288.9998)"
           id="g48"><path
             id="path50"
             style="fill:#4d4d4d;fill-opacity:1;fill-rule:nonzero;stroke:none"
             d="m 0,0 h -53 c -1.657,0 -3,1.343 -3,3 v 28 c 0,1.657 1.343,3 3,3 H 0 c 1.657,0 3,-1.343 3,-3 V 3 C 3,1.343 1.657,0 0,0" /></g><g
           transform="translate(7.2194,308.4778)"
           id="g52"><path
             id="path54"
             style="fill:#ffffff;fill-opacity:1;fill-rule:evenodd;stroke:none"
             d="m 0,0 v -4.959 h 0.417 c 1.004,0 1.638,0.181 2.126,0.596 0.538,0.45 0.86,1.17 0.86,1.889 0,0.719 -0.322,1.417 -0.86,1.868 C 2.03,-0.169 1.421,0 0.417,0 Z m 43.851,0.089 v -2.271 h 0.453 c 0.992,0 1.518,0.406 1.518,1.16 0,0.73 -0.526,1.111 -1.493,1.111 z m -1.552,1.182 h 2.303 c 1.792,0 2.819,-0.811 2.819,-2.215 0,-1.148 -0.645,-1.901 -1.815,-2.125 l 2.508,-3.16 h -1.911 l -2.15,3.013 h -0.202 v -3.013 h -1.552 z m -5.436,0 H 41.27 V 0 h -2.854 v -1.665 h 2.748 v -1.27 h -2.748 v -2.024 h 2.854 v -1.27 h -4.407 z m -31.144,0 H 7.273 V -6.228 H 5.719 Z m -7.272,0 h 2.281 c 2.52,0 4.276,-1.542 4.276,-3.755 0,-1.104 -0.537,-2.171 -1.446,-2.879 C 2.793,-5.96 1.922,-6.229 0.716,-6.229 H -1.553 Z M 28.503,1.282 H 30.2 l 2.124,-5.037 2.153,5.037 H 36.16 L 32.72,-6.41 H 31.883 Z M 10.749,1.413 c 0.873,0 1.672,-0.282 2.34,-0.832 l -0.813,-1.002 c -0.405,0.427 -0.788,0.608 -1.253,0.608 -0.669,0 -1.157,-0.36 -1.157,-0.832 0,-0.405 0.274,-0.619 1.206,-0.944 1.767,-0.609 2.291,-1.148 2.291,-2.339 0,-1.452 -1.133,-2.463 -2.747,-2.463 -1.183,0 -2.042,0.439 -2.758,1.428 l 1.003,0.91 c 0.358,-0.652 0.955,-1 1.696,-1 0.693,0 1.207,0.45 1.207,1.057 0,0.315 -0.156,0.585 -0.466,0.776 -0.156,0.091 -0.466,0.225 -1.074,0.428 -1.459,0.494 -1.96,1.022 -1.96,2.056 0,1.227 1.075,2.149 2.485,2.149 m 7.345,0.047 c 0.669,0 1.229,-0.135 1.911,-0.46 v -1.721 c -0.646,0.595 -1.207,0.843 -1.948,0.843 -1.457,0 -2.603,-1.136 -2.603,-2.575 0,-1.519 1.11,-2.587 2.675,-2.587 0.705,0 1.255,0.236 1.876,0.821 V -5.94 c -0.706,-0.313 -1.279,-0.437 -1.948,-0.437 -2.366,0 -4.204,1.709 -4.204,3.913 0,2.18 1.887,3.924 4.241,3.924" /></g><g
           transform="translate(31.9685,309.9895)"
           id="g56"><path
             id="path58"
             style="fill:#f47216;fill-opacity:1;fill-rule:evenodd;stroke:none"
             d="M 0,0 C 2.34,0 4.237,-1.784 4.237,-3.987 V -3.99 C 4.237,-6.193 2.34,-7.979 0,-7.979 c -2.34,0 -4.238,1.786 -4.238,3.989 v 0.003 C -4.238,-1.784 -2.34,0 0,0" /></g><g
           transform="translate(59.9997,303.9998)"
           id="g60"><path
             id="path62"
             style="fill:#f47216;fill-opacity:1;fill-rule:evenodd;stroke:none"
             d="M 0,0 C -1.838,-1.293 -15.596,-10.535 -39.418,-15 H -3.879 -3 c 1.657,0 3,1.343 3,3 z" /></g><g
           transform="translate(56.9997,252.9998)"
           id="g64"><path
             id="path66"
             style="fill:#005da3;fill-opacity:1;fill-rule:nonzero;stroke:none"
             d="m 0,0 h -53 c -1.657,0 -3,1.343 -3,3 v 28 c 0,1.657 1.343,3 3,3 H 0 c 1.657,0 3,-1.343 3,-3 V 3 C 3,1.343 1.657,0 0,0" /></g><g
           transform="translate(38.1501,270.6634)"
           id="g68"><path
             id="path70"
             style="fill:#ffffff;fill-opacity:1;fill-rule:nonzero;stroke:none"
             d="M 0,0 V 1.827 H 1.974 C 2.038,1.827 2.139,1.804 2.181,1.804 2.599,1.74 2.951,1.409 2.951,0.909 2.951,0.409 2.599,0.078 2.181,0.014 2.157,-0.009 2.033,-0.009 1.974,-0.009 H 0 Z m 2.185,-1.12 c 0.083,0 0.207,0 0.271,-0.023 0.418,-0.106 0.772,-0.478 0.772,-0.978 0,-0.519 -0.354,-0.895 -0.772,-0.978 -0.064,0 -0.207,-0.023 -0.271,-0.023 h -2.18 v 1.997 h 2.18 z m 5.279,-7.111 c 0,-2.098 -1.703,-3.782 -3.782,-3.782 h -5.55 v 7.693 h 5.862 c 1.372,0 2.409,0.749 2.409,1.892 0,1.06 -0.936,1.744 -2.162,1.826 v 0.042 c 1.12,0.147 1.727,0.872 1.727,1.726 0,1.079 -0.896,1.703 -2.098,1.767 C 3.764,2.956 3.622,2.956 3.498,2.956 H -1.85 v 3.93 c 0,2.097 1.704,3.782 3.783,3.782 H 7.46 V -8.231 Z M -2.97,-8.249 c 0,-2.098 -1.703,-3.783 -3.782,-3.783 h -5.551 v 8.727 c 0.955,-0.813 2.617,-1.331 5.303,-1.208 1.455,0.065 2.97,0.46 2.97,0.46 v 1.602 c -0.772,-0.372 -1.685,-0.749 -2.869,-0.831 -2.039,-0.165 -3.265,0.831 -3.265,2.598 0,1.745 1.226,2.745 3.265,2.598 1.184,-0.082 2.097,-0.436 2.869,-0.831 v 1.603 c 0,0 -1.538,0.394 -2.97,0.459 -2.681,0.124 -4.343,-0.395 -5.303,-1.208 v 4.944 c 0,2.098 1.703,3.783 3.783,3.783 h 5.55 z m -10.476,0.041 c 0,-2.098 -1.702,-3.782 -3.782,-3.782 h -5.55 v 7.96 c 0,0 1.703,-0.478 3.888,-0.478 3.595,0 4.655,1.391 4.655,3.099 v 4.384 h -3.241 v -4.407 c 0,-1.079 -0.707,-1.869 -2.015,-1.869 -1.102,0 -2.204,0.331 -3.264,0.854 v 9.328 c 0,2.098 1.703,3.783 3.782,3.783 h 5.527 z m -5.926,20.639 c -2.91,0 -5.279,-2.368 -5.279,-5.279 v -20.91 H 4.071 c 2.911,0 5.28,2.369 5.28,5.279 v 20.91 z" /></g><g
           transform="translate(38.1501,267.5462)"
           id="g72"><path
             id="path74"
             style="fill:#ffffff;fill-opacity:1;fill-rule:nonzero;stroke:none"
             d="m 0,0 h 2.181 c 0.064,0 0.206,0.023 0.27,0.023 0.418,0.083 0.772,0.459 0.772,0.978 0,0.5 -0.354,0.872 -0.772,0.978 C 2.387,2.001 2.263,2.001 2.181,2.001 H 0 Z" /></g></g></g><g
       id="g76"><g
         id="g78"><g
           id="g84"><g
             id="g86"><path
               id="path98"
               style="fill:url(#linearGradient96);stroke:none"
               d="m 38.15,269.547 v -2 h 2.181 c 0.065,0 0.206,0.022 0.271,0.022 v 0 c 0.417,0.083 0.771,0.46 0.771,0.978 v 0 c 0,0.501 -0.354,0.872 -0.771,0.978 v 0 c -0.065,0.022 -0.189,0.022 -0.271,0.022 v 0 z" /></g></g></g></g><g
       id="g100"><g
         clip-path="url(#clipPath106)"
         id="g102"><g
           transform="translate(36.3005,277.5442)"
           id="g108"><path
             id="path110"
             style="fill:#ffffff;fill-opacity:1;fill-rule:nonzero;stroke:none"
             d="m 0,0 v -3.929 h 5.343 c 0.124,0 0.27,0 0.372,-0.023 1.207,-0.065 2.097,-0.684 2.097,-1.768 0,-0.853 -0.601,-1.579 -1.725,-1.725 v -0.042 c 1.225,-0.082 2.162,-0.771 2.162,-1.827 0,-1.143 -1.038,-1.891 -2.41,-1.891 h -5.858 v -7.689 h 5.55 c 2.079,0 3.782,1.685 3.782,3.782 V 3.783 H 3.782 C 1.703,3.783 0,2.098 0,0" /></g><g
           transform="translate(36.3005,277.5442)"
           id="g112"><path
             id="path114"
             style="fill:#00933f;fill-opacity:1;fill-rule:nonzero;stroke:none"
             d="m 0,0 v -3.929 h 5.343 c 0.124,0 0.27,0 0.372,-0.023 1.207,-0.065 2.097,-0.684 2.097,-1.768 0,-0.853 -0.601,-1.579 -1.725,-1.725 v -0.042 c 1.225,-0.082 2.162,-0.771 2.162,-1.827 0,-1.143 -1.038,-1.891 -2.41,-1.891 h -5.858 v -7.689 h 5.55 c 2.079,0 3.782,1.685 3.782,3.782 V 3.783 H 3.782 C 1.703,3.783 0,2.098 0,0" /></g><g
           transform="translate(41.1013,271.5813)"
           id="g116"><path
             id="path118"
             style="fill:#ffffff;fill-opacity:1;fill-rule:nonzero;stroke:none"
             d="m 0,0 c 0,0.5 -0.353,0.831 -0.771,0.895 -0.041,0 -0.147,0.023 -0.207,0.023 h -1.973 v -1.827 h 1.973 c 0.065,0 0.189,0 0.207,0.023 C -0.353,-0.835 0,-0.5 0,0" /></g></g></g><g
       id="g120"><g
         id="g122"><g
           id="g128"><g
             id="g130"><path
               id="path142"
               style="fill:url(#linearGradient140);stroke:none"
               d="m 38.15,272.499 v -1.827 h 1.974 c 0.065,0 0.188,0 0.207,0.024 v 0 c 0.417,0.05 0.77,0.385 0.77,0.885 v 0 c 0,0.501 -0.353,0.831 -0.77,0.895 v 0 c -0.043,0 -0.148,0.023 -0.207,0.023 v 0 z" /></g></g></g></g><g
       id="g144"><g
         clip-path="url(#clipPath150)"
         id="g146"><g
           transform="translate(15.3903,277.5442)"
           id="g152"><path
             id="path154"
             style="fill:#ffffff;fill-opacity:1;fill-rule:nonzero;stroke:none"
             d="m 0,0 v -9.332 c 1.061,-0.519 2.162,-0.854 3.264,-0.854 1.308,0 2.015,0.79 2.015,1.868 v 4.407 H 8.52 v -4.384 c 0,-1.703 -1.061,-3.099 -4.655,-3.099 -2.18,0 -3.888,0.478 -3.888,0.478 v -7.96 h 5.55 c 2.079,0 3.783,1.685 3.783,3.783 V 3.783 H 3.783 C 1.708,3.783 0,2.098 0,0" /></g><g
           transform="translate(15.3903,277.5442)"
           id="g156"><path
             id="path158"
             style="fill:#005182;fill-opacity:1;fill-rule:nonzero;stroke:none"
             d="m 0,0 v -9.332 c 1.061,-0.519 2.162,-0.854 3.264,-0.854 1.308,0 2.015,0.79 2.015,1.868 v 4.407 H 8.52 v -4.384 c 0,-1.703 -1.061,-3.099 -4.655,-3.099 -2.18,0 -3.888,0.478 -3.888,0.478 v -7.96 h 5.55 c 2.079,0 3.783,1.685 3.783,3.783 V 3.783 H 3.783 C 1.708,3.783 0,2.098 0,0" /></g><g
           transform="translate(25.8474,277.5442)"
           id="g160"><path
             id="path162"
             style="fill:#ffffff;fill-opacity:1;fill-rule:nonzero;stroke:none"
             d="m 0,0 v -4.948 c 0.955,0.812 2.617,1.331 5.302,1.207 1.432,-0.064 2.97,-0.459 2.97,-0.459 v -1.602 c -0.771,0.395 -1.684,0.748 -2.869,0.831 -2.038,0.147 -3.264,-0.854 -3.264,-2.598 0,-1.768 1.226,-2.764 3.264,-2.598 1.185,0.082 2.098,0.459 2.869,0.83 v -1.602 c 0,0 -1.519,-0.394 -2.97,-0.459 -2.68,-0.124 -4.343,0.395 -5.302,1.208 v -8.732 h 5.55 c 2.08,0 3.783,1.685 3.783,3.783 V 3.783 H 3.783 C 1.703,3.783 0,2.098 0,0" /></g><g
           transform="translate(25.8474,277.5442)"
           id="g164"><path
             id="path166"
             style="fill:#be1833;fill-opacity:1;fill-rule:nonzero;stroke:none"
             d="m 0,0 v -4.948 c 0.955,0.812 2.617,1.331 5.302,1.207 1.432,-0.064 2.97,-0.459 2.97,-0.459 v -1.602 c -0.771,0.395 -1.684,0.748 -2.869,0.831 -2.038,0.147 -3.264,-0.854 -3.264,-2.598 0,-1.768 1.226,-2.764 3.264,-2.598 1.185,0.082 2.098,0.459 2.869,0.83 v -1.602 c 0,0 -1.519,-0.394 -2.97,-0.459 -2.68,-0.124 -4.343,0.395 -5.302,1.208 v -8.732 h 5.55 c 2.08,0 3.783,1.685 3.783,3.783 V 3.783 H 3.783 C 1.703,3.783 0,2.098 0,0" /></g><g
           transform="translate(56.9997,216.9998)"
           id="g168"><path
             id="path170"
             style="fill:#e5e5e5;fill-opacity:1;fill-rule:nonzero;stroke:none"
             d="m 0,0 h -53 c -1.657,0 -3,1.343 -3,3 v 28 c 0,1.657 1.343,3 3,3 H 0 c 1.657,0 3,-1.343 3,-3 V 3 C 3,1.343 1.657,0 0,0" /></g><g
           transform="translate(20.0856,221.4046)"
           id="g172"><path
             id="path174"
             style="fill:#231f20;fill-opacity:1;fill-rule:nonzero;stroke:none"
             d="M 0,0 C 0.026,0.502 0.46,0.889 0.962,0.857 1.463,0.831 1.85,0.397 1.819,-0.104 1.793,-0.59 1.396,-0.961 0.91,-0.967 0.413,-0.972 0,-0.575 -0.005,-0.078 0,-0.047 0,-0.021 0,0 M 2.436,0 V 1.505 H 1.777 V 1.14 C 1.552,1.432 1.192,1.6 0.831,1.579 -0.042,1.537 -0.716,0.794 -0.674,-0.078 c 0.042,-0.816 0.69,-1.464 1.505,-1.505 0.371,-0.016 0.721,0.146 0.946,0.438 V -1.51 h 0.659 z m 22.113,0 c 0.026,0.502 0.46,0.889 0.962,0.857 0.502,-0.026 0.888,-0.46 0.856,-0.961 -0.025,-0.486 -0.423,-0.857 -0.909,-0.863 -0.496,-0.005 -0.909,0.392 -0.914,0.889 0.005,0.031 0.005,0.057 0.005,0.078 m 3.475,-1.28 v -0.074 h 0.069 c 0.015,0 0.025,0 0.041,0.006 0.006,0.005 0.015,0.02 0.015,0.026 0,0.015 -0.004,0.021 -0.015,0.026 -0.016,0.005 -0.026,0.005 -0.041,0.005 h -0.069 z m 0.074,0.057 c 0.026,0 0.057,-0.005 0.078,-0.026 0.021,-0.016 0.031,-0.042 0.026,-0.068 0,-0.021 -0.005,-0.042 -0.02,-0.058 C 28.16,-1.39 28.14,-1.4 28.113,-1.4 l 0.094,-0.105 H 28.134 L 28.051,-1.4 h -0.027 v -0.105 h -0.057 v 0.277 h 0.131 z m -0.021,-0.376 c 0.031,0 0.057,0.005 0.094,0.021 0.026,0.016 0.052,0.026 0.073,0.052 0.094,0.094 0.094,0.24 0,0.329 -0.021,0.021 -0.047,0.042 -0.073,0.047 -0.026,0.016 -0.058,0.021 -0.094,0.021 -0.037,0 -0.057,-0.005 -0.095,-0.021 -0.026,-0.016 -0.051,-0.026 -0.073,-0.047 -0.094,-0.094 -0.094,-0.24 0,-0.329 0.022,-0.021 0.047,-0.042 0.073,-0.052 0.027,-0.011 0.058,-0.021 0.095,-0.021 m 0,0.533 c 0.041,0 0.078,-0.005 0.12,-0.026 0.032,-0.016 0.068,-0.042 0.099,-0.068 0.026,-0.027 0.053,-0.058 0.068,-0.094 0.032,-0.074 0.032,-0.157 0,-0.23 -0.015,-0.032 -0.042,-0.068 -0.068,-0.094 -0.025,-0.026 -0.058,-0.047 -0.099,-0.068 -0.042,-0.016 -0.079,-0.026 -0.12,-0.026 -0.121,0 -0.23,0.073 -0.288,0.188 -0.031,0.073 -0.031,0.156 0,0.23 0.016,0.031 0.042,0.067 0.068,0.094 0.027,0.026 0.058,0.047 0.099,0.068 0.032,0.021 0.079,0.026 0.121,0.026 M 26.979,0 V 2.713 H 26.32 V 1.14 C 26.096,1.432 25.735,1.6 25.375,1.579 24.502,1.537 23.827,0.794 23.869,-0.078 c 0.042,-0.816 0.691,-1.464 1.506,-1.505 0.371,-0.016 0.721,0.146 0.945,0.438 V -1.51 h 0.659 z M 10.563,0.999 C 10.976,1.003 11.31,0.68 11.326,0.267 H 9.769 c 0.015,0.423 0.365,0.742 0.794,0.732 m 0.01,0.59 C 9.7,1.542 9.026,0.8 9.073,-0.073 c 0.047,-0.821 0.716,-1.479 1.537,-1.5 0.449,-0.016 0.889,0.131 1.234,0.423 l -0.32,0.486 C 11.279,-0.862 10.965,-0.977 10.652,-0.977 10.202,-1.019 9.805,-0.69 9.748,-0.24 h 2.236 C 11.989,-0.162 12,-0.073 12,0.011 11.995,0.941 11.415,1.589 10.573,1.589 M 18.471,0 c 0.026,0.502 0.46,0.889 0.962,0.857 0.501,-0.026 0.887,-0.46 0.856,-0.961 -0.026,-0.486 -0.423,-0.857 -0.909,-0.863 -0.496,-0.005 -0.909,0.392 -0.915,0.889 0.006,0.031 0.006,0.057 0.006,0.078 m 2.435,0 V 1.505 H 20.247 V 1.14 C 20.022,1.432 19.662,1.6 19.302,1.579 18.429,1.537 17.755,0.794 17.796,-0.078 c 0.042,-0.816 0.69,-1.464 1.506,-1.505 0.371,-0.016 0.72,0.146 0.945,0.438 V -1.51 h 0.659 z M 14.78,0 c -0.031,-0.841 0.617,-1.547 1.458,-1.578 h 0.147 c 0.392,-0.021 0.784,0.104 1.082,0.36 l -0.314,0.533 c -0.224,-0.172 -0.502,-0.266 -0.789,-0.272 -0.533,0.032 -0.935,0.492 -0.904,1.02 0.026,0.486 0.418,0.873 0.904,0.904 0.287,0 0.565,-0.099 0.789,-0.272 l 0.314,0.534 c -0.303,0.25 -0.69,0.375 -1.082,0.36 C 15.549,1.636 14.827,0.999 14.78,0.157 14.78,0.1 14.771,0.052 14.78,0 m 8.436,1.589 C 22.892,1.594 22.584,1.432 22.422,1.15 v 0.366 h -0.653 v -3.011 h 0.658 v 1.683 c 0,0.497 0.215,0.774 0.642,0.774 0.142,0 0.278,-0.026 0.413,-0.073 l 0.2,0.616 C 23.524,1.552 23.373,1.579 23.216,1.589 M 5.671,1.27 C 5.3,1.49 4.876,1.6 4.442,1.584 3.68,1.584 3.188,1.218 3.188,0.622 c 0,-0.491 0.366,-0.794 1.041,-0.889 l 0.313,-0.046 c 0.36,-0.053 0.533,-0.147 0.533,-0.314 0,-0.23 -0.241,-0.366 -0.685,-0.366 -0.36,-0.016 -0.71,0.099 -1.003,0.314 L 3.073,-1.191 c 0.387,-0.267 0.837,-0.403 1.302,-0.392 0.867,0 1.374,0.413 1.374,0.982 0,0.533 -0.397,0.81 -1.056,0.904 L 4.38,0.35 C 4.092,0.392 3.868,0.444 3.868,0.648 c 0,0.22 0.214,0.351 0.569,0.351 0.33,-0.006 0.648,-0.095 0.936,-0.257 z m 8.446,0.319 C 13.793,1.594 13.484,1.432 13.322,1.15 v 0.366 h -0.648 v -3.011 h 0.659 v 1.683 c 0,0.497 0.214,0.774 0.643,0.774 0.141,0 0.277,-0.026 0.413,-0.073 l 0.198,0.616 c -0.151,0.047 -0.314,0.074 -0.47,0.084 M 8.53,1.505 H 7.463 V 2.42 H 6.8 V 1.505 H 6.188 V 0.91 H 6.8 v -1.375 c 0,-0.695 0.271,-1.113 1.045,-1.113 0.293,0 0.57,0.078 0.815,0.23 L 8.472,-0.789 C 8.3,-0.894 8.096,-0.957 7.897,-0.961 c -0.324,0 -0.428,0.198 -0.428,0.501 V 0.899 H 8.53 Z m -9.779,-3.01 v 1.892 c 0.042,0.616 -0.423,1.155 -1.04,1.192 -0.047,0.005 -0.094,0.005 -0.147,0 C -2.859,1.604 -3.267,1.401 -3.491,1.04 -3.695,1.385 -4.082,1.589 -4.484,1.579 -4.834,1.6 -5.174,1.427 -5.368,1.134 v 0.371 h -0.658 v -3.01 h 0.664 v 1.672 c -0.053,0.387 0.214,0.743 0.601,0.795 0.047,0.005 0.094,0.005 0.141,0.005 0.429,0 0.659,-0.287 0.659,-0.795 v -1.677 h 0.663 v 1.672 c -0.052,0.393 0.225,0.743 0.611,0.795 0.042,0.005 0.079,0.005 0.126,0.005 0.444,0 0.664,-0.287 0.664,-0.795 v -1.677 z" /></g><path
           id="path176"
           style="fill:#ff5f00;fill-opacity:1;fill-rule:nonzero;stroke:none"
           d="m 25.542,245.844 h 9.915 v -17.822 h -9.915 z" /><g
           transform="translate(26.1691,236.9378)"
           id="g178"><path
             id="path180"
             style="fill:#eb001b;fill-opacity:1;fill-rule:nonzero;stroke:none"
             d="m 0,0 c 0,3.476 1.594,6.763 4.333,8.906 -4.923,3.867 -12.042,3.015 -15.915,-1.903 -3.867,-4.923 -3.015,-12.041 1.903,-15.914 4.113,-3.23 9.893,-3.23 14.007,0 C 1.6,-6.763 0,-3.481 0,0" /></g><g
           transform="translate(48.8366,236.9378)"
           id="g182"><path
             id="path184"
             style="fill:#f79e1b;fill-opacity:1;fill-rule:nonzero;stroke:none"
             d="m 0,0 c 0,-6.261 -5.075,-11.336 -11.336,-11.336 -2.54,0 -5.007,0.857 -7.004,2.419 4.924,3.868 5.776,10.997 1.903,15.915 -0.559,0.711 -1.192,1.349 -1.903,1.903 4.924,3.867 12.042,3.016 15.909,-1.903 C -0.857,5.002 0,2.54 0,0" /></g><g
           transform="translate(48.4812,229.9134)"
           id="g186"><path
             id="path188"
             style="fill:#f79e1b;fill-opacity:1;fill-rule:nonzero;stroke:none"
             d="M 0,0 V 0.439 H -0.115 L -0.246,0.136 -0.376,0.439 H -0.491 V 0 h 0.078 v 0.329 l 0.126,-0.287 h 0.083 l 0.126,0.287 0,-0.329 z M -0.727,0 V 0.366 H -0.58 V 0.439 H -0.951 V 0.366 h 0.146 V 0 Z" /></g><g
           transform="translate(56.9997,180.9998)"
           id="g190"><path
             id="path192"
             style="fill:#e5e5e5;fill-opacity:1;fill-rule:nonzero;stroke:none"
             d="m 0,0 h -53 c -1.657,0 -3,1.344 -3,3 v 28 c 0,1.657 1.343,3 3,3 H 0 c 1.657,0 3,-1.343 3,-3 V 3 C 3,1.344 1.657,0 0,0" /></g><g
           transform="translate(47.9587,193.4295)"
           id="g194"><path
             id="path196"
             style="fill:#00a2e5;fill-opacity:1;fill-rule:nonzero;stroke:none"
             d="M 0,0 V 0.372 H 0.149 V 0.447 H -0.224 V 0.372 h 0.15 L -0.074,0 Z M 0.75,0 V 0.441 H 0.639 L 0.511,0.144 0.383,0.441 H 0.271 V 0 H 0.346 V 0.335 L 0.474,0.037 H 0.569 L 0.697,0.335 V 0 Z" /></g><path
           id="path198"
           style="fill:#7375cf;fill-opacity:1;fill-rule:nonzero;stroke:none"
           d="m 35.509,191.515 h -10.04 v 18.038 h 10.04 z" /><g
           transform="translate(26.1232,200.535)"
           id="g200"><path
             id="path202"
             style="fill:#eb001b;fill-opacity:1;fill-rule:nonzero;stroke:none"
             d="m 0,0 c 0,3.658 1.707,6.918 4.377,9.014 -1.952,1.542 -4.419,2.446 -7.089,2.446 -6.329,0 -11.471,-5.143 -11.471,-11.471 0,-6.329 5.148,-11.466 11.471,-11.466 2.67,0 5.142,0.91 7.089,2.447 C 1.707,-6.925 0,-3.654 0,0" /></g><g
           transform="translate(49.0593,200.535)"
           id="g204"><path
             id="path206"
             style="fill:#00a2e5;fill-opacity:1;fill-rule:nonzero;stroke:none"
             d="m 0,0 c 0,-6.329 -5.142,-11.472 -11.471,-11.472 -2.669,0 -5.142,0.91 -7.088,2.447 2.669,2.095 4.376,5.366 4.376,9.014 0,3.648 -1.707,6.929 -4.376,9.03 1.952,1.542 4.419,2.446 7.088,2.446 C -5.147,11.471 0,6.328 0,0" /></g><g
           transform="translate(22.8366,183.2986)"
           id="g208"><path
             id="path210"
             style="fill:#000000;fill-opacity:1;fill-rule:nonzero;stroke:none"
             d="M 0,0 V 1.909 C 0,2.638 -0.462,3.111 -1.202,3.111 -1.59,3.111 -2,3 -2.276,2.574 c -0.202,0.335 -0.537,0.537 -1,0.537 -0.313,0 -0.654,-0.095 -0.888,-0.441 v 0.372 h -0.67 v -3.047 h 0.665 v 1.686 c 0,0.515 0.298,0.813 0.739,0.813 0.442,0 0.665,-0.276 0.665,-0.797 V 0.011 h 0.664 v 1.686 c 0,0.516 0.314,0.814 0.74,0.814 0.441,0 0.665,-0.277 0.665,-0.798 V 0.017 L 0,0.017 Z M 3.728,1.516 V 3.037 H 3.063 V 2.665 C 2.861,2.941 2.547,3.106 2.096,3.106 1.239,3.106 0.575,2.441 0.575,1.511 c 0,-0.931 0.664,-1.596 1.521,-1.596 0.425,0 0.738,0.17 0.967,0.441 v -0.372 h 0.665 z m -2.467,0 C 1.261,2.053 1.611,2.5 2.186,2.5 2.744,2.5 3.095,2.074 3.095,1.516 3.095,0.958 2.723,0.548 2.186,0.548 1.611,0.554 1.261,0.979 1.261,1.516 M 18.48,3.111 c 0.245,0 0.462,-0.043 0.654,-0.128 C 19.336,2.909 19.507,2.798 19.65,2.648 19.794,2.5 19.91,2.335 20.001,2.144 20.075,1.941 20.129,1.734 20.129,1.511 20.129,1.287 20.086,1.069 20.001,0.878 19.927,0.676 19.799,0.506 19.65,0.373 19.501,0.224 19.336,0.112 19.134,0.037 18.933,-0.037 18.709,-0.09 18.48,-0.09 c -0.245,0 -0.462,0.042 -0.654,0.127 -0.202,0.075 -0.372,0.187 -0.515,0.336 -0.144,0.148 -0.261,0.314 -0.352,0.505 -0.074,0.202 -0.128,0.409 -0.128,0.633 0,0.223 0.043,0.441 0.128,0.633 0.074,0.202 0.202,0.372 0.352,0.504 0.148,0.15 0.313,0.261 0.515,0.335 0.192,0.096 0.415,0.128 0.654,0.128 m 0,-0.611 C 18.353,2.5 18.22,2.479 18.107,2.426 18.002,2.372 17.885,2.313 17.81,2.224 17.735,2.133 17.661,2.037 17.608,1.909 17.555,1.798 17.533,1.648 17.533,1.521 c 0,-0.149 0.022,-0.276 0.075,-0.388 0.053,-0.112 0.112,-0.223 0.202,-0.314 0.086,-0.095 0.186,-0.148 0.297,-0.202 0.107,-0.053 0.246,-0.074 0.373,-0.074 0.127,0 0.26,0.021 0.373,0.074 0.111,0.054 0.223,0.112 0.297,0.202 0.096,0.096 0.149,0.187 0.203,0.314 0.052,0.112 0.074,0.261 0.074,0.388 0,0.149 -0.022,0.277 -0.074,0.388 C 19.299,2.021 19.24,2.133 19.15,2.224 19.055,2.319 18.964,2.372 18.853,2.426 18.746,2.468 18.607,2.5 18.48,2.5 M 10.317,2.266 C 10.131,2.378 9.759,2.526 9.37,2.526 8.998,2.526 8.791,2.398 8.791,2.176 8.791,1.974 9.014,1.915 9.307,1.878 L 9.62,1.835 c 0.665,-0.096 1.059,-0.372 1.059,-0.909 0,-0.58 -0.505,-1 -1.394,-1 -0.505,0 -0.968,0.128 -1.319,0.388 L 8.28,0.83 C 8.503,0.66 8.839,0.517 9.302,0.517 c 0.441,0 0.685,0.127 0.685,0.372 0,0.17 -0.17,0.26 -0.537,0.313 L 9.137,1.245 C 8.451,1.341 8.078,1.654 8.078,2.133 c 0,0.611 0.505,0.983 1.266,0.983 0.484,0 0.926,-0.111 1.244,-0.313 z M 7.403,1.516 c 0,0.947 -0.591,1.595 -1.446,1.595 -0.889,0 -1.521,-0.654 -1.521,-1.595 0,-0.968 0.653,-1.595 1.558,-1.595 0.462,0 0.872,0.111 1.244,0.425 L 6.903,0.83 C 6.642,0.628 6.323,0.517 6.015,0.517 c -0.426,0 -0.814,0.202 -0.91,0.739 h 2.266 c 0.016,0.096 0.032,0.17 0.032,0.26 M 5.122,1.798 c 0.074,0.441 0.335,0.739 0.813,0.739 0.425,0 0.707,-0.261 0.782,-0.739 z m 8.477,0.648 H 12.524 V 1.074 c 0,-0.298 0.112,-0.505 0.442,-0.505 0.17,0 0.388,0.053 0.59,0.17 L 13.742,0.16 c -0.202,-0.149 -0.537,-0.245 -0.835,-0.245 -0.782,0 -1.058,0.426 -1.058,1.128 v 1.393 h -0.612 v 0.612 h 0.612 v 0.925 h 0.665 V 3.048 h 1.074 z m 2.456,0.665 c 0.128,0 0.336,-0.021 0.463,-0.074 L 16.315,2.404 c -0.148,0.053 -0.276,0.075 -0.409,0.075 -0.426,0 -0.654,-0.277 -0.654,-0.782 v -1.708 h -0.665 v 3.048 h 0.654 V 2.665 c 0.181,0.287 0.437,0.446 0.814,0.446" /></g><g
           transform="translate(43.7312,183.74)"
           id="g212"><path
             id="path214"
             style="fill:#000000;fill-opacity:1;fill-rule:nonzero;stroke:none"
             d="m 0,0 c 0.042,0 0.074,0 0.111,-0.021 0.043,-0.021 0.076,-0.042 0.096,-0.053 0.022,-0.016 0.054,-0.053 0.075,-0.096 0.021,-0.042 0.021,-0.074 0.021,-0.111 0,-0.037 0,-0.075 -0.021,-0.113 C 0.261,-0.436 0.239,-0.468 0.207,-0.489 0.176,-0.51 0.154,-0.542 0.111,-0.563 0.069,-0.585 0.037,-0.585 0,-0.585 c -0.043,0 -0.096,0 -0.128,0.022 -0.031,0.021 -0.074,0.042 -0.096,0.074 -0.021,0.021 -0.052,0.053 -0.074,0.095 -0.021,0.043 -0.021,0.076 -0.021,0.113 0,0.042 0,0.074 0.021,0.111 0.022,0.043 0.043,0.074 0.074,0.096 0.022,0.021 0.054,0.053 0.096,0.053 C -0.091,0 -0.037,0 0,0 m 0,-0.537 c 0.042,0 0.053,0 0.096,0.021 0.043,0.022 0.052,0.043 0.074,0.054 0.021,0.021 0.043,0.042 0.054,0.074 0.02,0.042 0.02,0.053 0.02,0.096 0,0.042 0,0.053 -0.02,0.096 -0.022,0.042 -0.043,0.052 -0.054,0.074 -0.022,0.021 -0.042,0.043 -0.074,0.054 -0.022,0.02 -0.054,0.02 -0.096,0.02 -0.043,0 -0.054,0 -0.096,-0.02 -0.043,-0.022 -0.053,-0.043 -0.074,-0.054 -0.021,-0.022 -0.043,-0.053 -0.054,-0.074 -0.021,-0.043 -0.021,-0.054 -0.021,-0.096 0,-0.043 0,-0.054 0.021,-0.096 0.022,-0.043 0.043,-0.053 0.054,-0.074 0.016,-0.021 0.053,-0.043 0.074,-0.054 0.042,-0.021 0.059,-0.021 0.096,-0.021 m 0.021,0.367 c 0.042,0 0.053,0 0.075,-0.021 0.021,-0.021 0.043,-0.042 0.043,-0.075 0,-0.021 0,-0.043 -0.022,-0.052 C 0.096,-0.34 0.074,-0.34 0.042,-0.34 L 0.139,-0.452 H 0.063 l -0.095,0.112 h -0.022 v -0.112 h -0.052 v 0.277 z m -0.075,-0.032 v -0.074 h 0.075 c 0.021,0 0.042,0 0.042,0.021 0.022,0 0.022,0.022 0.022,0.043 0,0.021 0,0.021 -0.022,0.021 0,0 -0.021,0.021 -0.042,0.021 h -0.075 z" /></g><g
           transform="translate(56.9997,144.9998)"
           id="g216"><path
             id="path218"
             style="fill:#e5e5e5;fill-opacity:1;fill-rule:nonzero;stroke:none"
             d="m 0,0 h -53 c -1.657,0 -3,1.344 -3,3 v 28 c 0,1.657 1.343,3 3,3 H 0 c 1.657,0 3,-1.343 3,-3 V 3 C 3,1.344 1.657,0 0,0" /></g><g
           transform="translate(18.7556,173.9998)"
           id="g220"><path
             id="path222"
             style="fill:#d10429;fill-opacity:1;fill-rule:nonzero;stroke:none"
             d="m 0,0 h 9.633 c 1.344,0 2.184,-1.109 1.869,-2.467 L 7.015,-21.915 c -0.316,-1.357 -1.667,-2.468 -3.011,-2.468 h -9.633 c -1.344,0 -2.184,1.111 -1.869,2.468 l 4.487,19.448 C -2.696,-1.103 -1.352,0 -0.007,0 Z" /></g><g
           transform="translate(27.5461,173.9998)"
           id="g224"><path
             id="path226"
             style="fill:#022e64;fill-opacity:1;fill-rule:nonzero;stroke:none"
             d="m 0,0 h 11.083 c 1.343,0 0.735,-1.109 0.419,-2.467 L 7.015,-21.915 C 6.7,-23.272 6.798,-24.383 5.454,-24.383 H -5.628 c -1.351,0 -2.184,1.111 -1.862,2.468 l 4.487,19.448 C -2.688,-1.103 -1.344,0 0.008,0 Z" /></g><g
           transform="translate(38.2399,173.9998)"
           id="g228"><path
             id="path230"
             style="fill:#076f74;fill-opacity:1;fill-rule:nonzero;stroke:none"
             d="m 0,0 h 9.634 c 1.344,0 2.183,-1.109 1.869,-2.467 L 7.015,-21.915 C 6.7,-23.272 5.349,-24.383 4.005,-24.383 h -9.633 c -1.351,0 -2.184,1.111 -1.87,2.468 L -3.01,-2.467 C -2.695,-1.103 -1.351,0 -0.007,0 Z" /></g><g
           transform="translate(39.8142,159.5955)"
           id="g232"><path
             id="path234"
             style="fill:#fefefe;fill-opacity:1;fill-rule:nonzero;stroke:none"
             d="m 0,0 -1.176,-3.923 h 0.316 l -0.245,-0.813 h -0.316 l -0.077,-0.247 h -1.12 l 0.077,0.247 H -4.81 l 0.225,0.749 h 0.231 L -3.164,0 -2.926,0.807 h 1.141 L -1.904,0.403 c 0,0 0.301,0.219 0.595,0.297 0.288,0.078 1.94,0.107 1.94,0.107 L 0.386,0.008 H -0.007 Z M -2.009,0 -2.31,-1.004 c 0,0 0.336,0.156 0.525,0.205 0.189,0.05 0.47,0.064 0.47,0.064 l 0.216,0.728 h -0.903 z m -0.455,-1.498 -0.315,-1.047 c 0,0 0.343,0.177 0.532,0.233 0.189,0.043 0.469,0.079 0.469,0.079 l 0.217,0.727 h -0.91 z m -0.728,-2.433 h 0.91 l 0.26,0.884 h -0.904 z" /></g><g
           transform="translate(31.6022,160.3953)"
           id="g236"><path
             id="path238"
             style="fill:#fefefe;fill-opacity:1;fill-rule:nonzero;stroke:none"
             d="M 0,0 H 1.071 L 0.917,-0.545 c 0,0 0.336,0.276 0.574,0.375 C 1.729,-0.085 2.261,0 2.261,0 L 3.997,0.007 3.402,-1.987 C 3.304,-2.326 3.186,-2.545 3.115,-2.651 3.052,-2.75 2.976,-2.842 2.821,-2.927 2.674,-3.005 2.541,-3.055 2.415,-3.062 2.303,-3.068 2.121,-3.075 1.883,-3.075 H 0.21 l -0.469,-1.577 c -0.042,-0.156 -0.063,-0.233 -0.035,-0.276 0.021,-0.035 0.084,-0.078 0.161,-0.078 L 0.602,-4.935 0.35,-5.797 h -0.826 c -0.266,0 -0.455,0.007 -0.588,0.014 -0.126,0.014 -0.259,0 -0.351,0.071 -0.076,0.07 -0.195,0.162 -0.189,0.254 0.007,0.085 0.042,0.227 0.099,0.425 z M 2.282,-2.008 H 0.524 L 0.42,-2.368 h 1.526 c 0.182,0.02 0.217,-0.008 0.231,0.007 l 0.112,0.353 z m -1.666,0.325 c 0,0 0.343,0.318 0.931,0.417 0.133,0.029 0.974,0.014 0.974,0.014 l 0.125,0.425 H 0.875 L 0.616,-1.689 Z m -2.375,1.273 h 1.26 L -0.73,-1.181 h -1.722 l -0.189,-0.163 c -0.085,-0.077 -0.105,-0.049 -0.211,-0.105 -0.097,-0.05 -0.3,-0.149 -0.566,-0.149 h -0.554 l 0.224,0.743 h 0.168 c 0.141,0 0.239,0.013 0.288,0.042 0.056,0.035 0.119,0.113 0.182,0.24 l 0.315,0.58 h 1.253 l -0.217,-0.424 z m -2.124,-1.342 h 3.074 l -0.224,-0.742 h -1.225 l -0.189,-0.63 h 1.26 l -0.231,-0.763 h -1.253 l -0.308,-1.025 c -0.036,-0.113 0.301,-0.127 0.419,-0.127 l 0.631,0.084 -0.253,-0.848 h -1.414 c -0.112,0 -0.196,0.014 -0.321,0.042 -0.12,0.029 -0.176,0.085 -0.225,0.163 -0.049,0.085 -0.133,0.149 -0.077,0.332 l 0.406,1.358 h -0.7 l 0.231,0.777 h 0.7 l 0.189,0.629 h -0.7 l 0.224,0.743 z M 8.829,-3.592 H 7.667 l 0.196,0.671 h 1.33 l 0.189,0.615 H 8.073 l 0.224,0.757 h 3.641 l -0.224,-0.757 h -1.226 l -0.189,-0.615 h 1.225 L 11.321,-3.592 H 9.998 L 9.76,-3.875 h 0.539 l 0.134,-0.849 c 0.013,-0.085 0.013,-0.141 0.042,-0.176 0.027,-0.029 0.188,-0.042 0.279,-0.042 h 0.161 L 10.663,-5.77 H 10.25 c -0.062,0 -0.161,0.007 -0.294,0.007 -0.126,0.015 -0.21,0.085 -0.294,0.127 -0.077,0.036 -0.189,0.128 -0.217,0.29 L 9.319,-4.497 8.717,-5.331 C 8.528,-5.593 8.27,-5.798 7.828,-5.798 H 6.987 l 0.225,0.736 h 0.322 c 0.091,0 0.175,0.035 0.238,0.07 0.063,0.028 0.119,0.056 0.175,0.148 z M 8.68,0.007 h 1.217 l 0.014,-0.46 C 9.904,-0.53 9.968,-0.565 10.114,-0.565 h 0.245 L 10.136,-1.322 H 9.478 C 8.91,-1.365 8.693,-1.117 8.707,-0.842 L 8.687,0 Z" /></g><g
           transform="translate(42.0173,161.8299)"
           id="g240"><path
             id="path242"
             style="fill:#fefefe;fill-opacity:1;fill-rule:nonzero;stroke:none"
             d="M 0,0 C -0.588,0.007 -0.756,0.007 -1.295,-0.021 L -1.33,0.021 c 0.146,0.559 0.294,1.125 0.427,1.69 0.168,0.735 0.21,1.047 0.266,1.477 l 0.042,0.036 C -0.014,3.309 0.147,3.33 0.756,3.443 L 0.771,3.394 C 0.658,2.927 0.553,2.468 0.441,2.008 0.217,1.039 0.14,0.545 0.056,0.035 L 0,-0.007 Z m -11.8,1.765 c 0.168,0.749 0.035,1.102 -0.126,1.314 -0.252,0.325 -0.7,0.432 -1.162,0.432 -0.281,0 -0.939,-0.029 -1.457,-0.509 -0.371,-0.347 -0.546,-0.82 -0.644,-1.273 -0.105,-0.459 -0.224,-1.287 0.532,-1.597 0.231,-0.1 0.567,-0.128 0.784,-0.128 0.554,0 1.121,0.156 1.547,0.608 0.329,0.367 0.476,0.919 0.533,1.153 z m -1.267,0.056 c -0.021,-0.127 -0.134,-0.6 -0.281,-0.799 -0.105,-0.148 -0.224,-0.24 -0.363,-0.24 -0.042,0 -0.281,0 -0.288,0.361 0,0.176 0.035,0.36 0.077,0.558 0.127,0.572 0.28,1.046 0.666,1.046 0.3,0 0.321,-0.353 0.189,-0.926 m -3.109,-1.737 c -0.294,0 -0.483,0.007 -0.665,0 -0.181,0 -0.357,-0.014 -0.63,-0.021 l -0.014,0.021 -0.014,0.028 c 0.077,0.284 0.112,0.382 0.154,0.481 0.035,0.099 0.07,0.198 0.14,0.488 0.084,0.375 0.141,0.636 0.175,0.869 0.042,0.22 0.063,0.41 0.092,0.63 l 0.021,0.014 0.021,0.021 c 0.293,0.042 0.476,0.071 0.665,0.099 0.189,0.028 0.384,0.063 0.686,0.12 l 0.014,-0.028 0.007,-0.029 -0.168,-0.699 c -0.057,-0.233 -0.112,-0.467 -0.162,-0.7 -0.104,-0.495 -0.153,-0.679 -0.174,-0.814 -0.029,-0.127 -0.035,-0.19 -0.077,-0.445 l -0.029,-0.02 -0.028,-0.022 z m -1.965,0.002 c -0.484,0.007 -0.658,0.007 -1.226,-0.022 l -0.021,0.043 c 0.05,0.219 0.105,0.431 0.147,0.651 l 0.071,0.297 c 0.105,0.459 0.203,1.004 0.216,1.166 0.015,0.099 0.042,0.346 -0.237,0.346 -0.12,0 -0.239,-0.056 -0.365,-0.113 -0.069,-0.247 -0.203,-0.94 -0.273,-1.251 -0.14,-0.665 -0.147,-0.742 -0.21,-1.067 l -0.042,-0.043 c -0.497,0.008 -0.671,0.008 -1.246,-0.021 l -0.028,0.049 c 0.098,0.397 0.189,0.792 0.28,1.189 0.238,1.067 0.302,1.477 0.364,2.021 l 0.049,0.028 c 0.56,0.079 0.693,0.099 1.303,0.219 l 0.048,-0.057 -0.09,-0.338 c 0.105,0.063 0.202,0.127 0.307,0.176 0.287,0.142 0.603,0.184 0.778,0.184 0.266,0 0.56,-0.078 0.679,-0.389 0.112,-0.275 0.042,-0.615 -0.113,-1.287 L -17.826,1.528 C -17.98,0.779 -18.008,0.645 -18.092,0.136 l -0.056,-0.043 z m -3.994,5.86 c -0.035,-0.17 -0.707,-3.287 -0.707,-3.287 -0.147,-0.63 -0.252,-1.082 -0.602,-1.372 -0.203,-0.169 -0.441,-0.247 -0.714,-0.247 -0.441,0 -0.693,0.219 -0.735,0.636 L -24.9,1.817 c 0,0 0.133,0.842 0.133,0.849 0,0 0.7,2.842 0.826,3.217 0.007,0.021 0.007,0.035 0.007,0.042 -1.365,-0.014 -1.61,0 -1.624,0.021 C -25.565,5.918 -25.6,5.741 -25.6,5.741 l -0.714,-3.202 -0.063,-0.268 -0.119,-0.892 c 0,-0.261 0.049,-0.481 0.154,-0.657 0.329,-0.58 1.26,-0.664 1.785,-0.664 0.679,0 1.316,0.148 1.743,0.41 0.749,0.445 0.945,1.144 1.113,1.76 l 0.084,0.318 c 0,0 0.721,2.948 0.847,3.33 0.007,0.02 0.007,0.035 0.015,0.042 -0.995,-0.007 -1.282,0 -1.38,0.021 z M -7.294,-4.607 -7.393,-5.088 C -7.434,-5.236 -7.469,-5.35 -7.581,-5.448 -7.7,-5.548 -7.833,-5.653 -8.155,-5.653 L -8.75,-5.682 -8.757,-6.219 c -0.007,-0.148 0.035,-0.135 0.056,-0.163 0.028,-0.028 0.049,-0.035 0.077,-0.05 l 0.188,0.015 0.568,0.028 -0.238,-0.792 h -0.651 c -0.455,0 -0.799,0.015 -0.903,0.099 -0.112,0.071 -0.126,0.156 -0.126,0.311 l 0.042,2.107 h 1.043 l -0.014,-0.431 h 0.252 c 0.084,0 0.147,0.007 0.182,0.029 0.035,0.02 0.056,0.056 0.07,0.105 l 0.105,0.34 h 0.819 z" /></g><g
           transform="translate(26.382,164.8836)"
           id="g244"><path
             id="path246"
             style="fill:#fefefe;fill-opacity:1;fill-rule:nonzero;stroke:none"
             d="M 0,0 C 0.322,0.227 0.364,0.537 0.091,0.7 -0.182,0.862 -0.665,0.813 -0.987,0.587 -1.309,0.368 -1.344,0.057 -1.071,-0.113 -0.805,-0.269 -0.322,-0.226 0,0 M 20.48,0.469 20.431,0.525 C 19.835,0.405 19.723,0.384 19.177,0.306 L 19.135,0.264 c 0,-0.007 -0.007,-0.015 -0.007,-0.029 v 0.007 c -0.406,-0.954 -0.399,-0.749 -0.727,-1.499 0,0.036 0,0.057 -0.008,0.092 L 18.309,0.461 18.26,0.518 C 17.63,0.397 17.617,0.377 17.042,0.299 L 17,0.257 C 16.994,0.235 16.994,0.214 16.994,0.192 L 17,0.186 c 0.071,-0.375 0.056,-0.29 0.126,-0.877 0.036,-0.289 0.078,-0.58 0.113,-0.863 0.055,-0.48 0.091,-0.714 0.16,-1.442 -0.392,-0.65 -0.482,-0.898 -0.86,-1.47 l 0.02,-0.056 c 0.567,0.021 0.693,0.021 1.113,0.021 l 0.091,0.105 c 0.316,0.686 2.724,4.857 2.724,4.857 z M 11.874,1.055 C 11.79,0.666 11.538,0.334 11.215,0.178 10.95,0.044 10.627,0.029 10.292,0.029 h -0.217 l 0.013,0.085 c 0,0 0.4,1.754 0.4,1.746 l 0.013,0.092 0.007,0.071 0.161,-0.014 c 0,0 0.827,-0.071 0.84,-0.071 0.323,-0.126 0.463,-0.452 0.365,-0.883 M 11.349,2.886 10.943,2.879 C 9.892,2.864 9.472,2.872 9.304,2.893 9.291,2.815 9.262,2.681 9.262,2.681 c 0,0 -0.378,-1.753 -0.378,-1.76 0,0 -0.895,-3.734 -0.937,-3.91 0.917,0.014 1.288,0.014 1.448,-0.007 0.035,0.177 0.245,1.216 0.253,1.216 0,0 0.182,0.763 0.188,0.792 0,0 0.056,0.078 0.113,0.113 h 0.084 c 0.791,0 1.679,0 2.38,0.516 0.476,0.353 0.798,0.883 0.945,1.52 0.035,0.155 0.063,0.339 0.063,0.53 0,0.247 -0.049,0.488 -0.189,0.679 -0.357,0.502 -1.065,0.509 -1.883,0.516 M 7.154,-2.968 C 6.671,-2.96 6.503,-2.96 5.936,-2.988 l -0.02,0.042 c 0.048,0.219 0.104,0.431 0.153,0.65 l 0.063,0.297 c 0.105,0.46 0.21,1.004 0.217,1.167 0.014,0.099 0.042,0.346 -0.231,0.346 -0.119,0 -0.244,-0.056 -0.364,-0.113 C 5.691,-0.847 5.551,-1.539 5.481,-1.851 5.348,-2.515 5.333,-2.593 5.271,-2.918 L 5.229,-2.96 C 4.732,-2.953 4.557,-2.953 3.983,-2.981 l -0.028,0.049 c 0.098,0.396 0.189,0.791 0.28,1.188 0.238,1.067 0.294,1.477 0.364,2.021 l 0.042,0.029 c 0.56,0.078 0.7,0.099 1.302,0.219 L 5.992,0.469 5.908,0.129 c 0.098,0.063 0.203,0.128 0.301,0.177 0.288,0.141 0.602,0.183 0.777,0.183 0.266,0 0.554,-0.077 0.68,-0.388 0.111,-0.276 0.035,-0.616 -0.12,-1.287 L 7.469,-1.525 C 7.308,-2.274 7.288,-2.409 7.203,-2.918 L 7.147,-2.96 Z m 8.791,1.584 c 0.168,0.75 -0.518,0.064 -0.623,0.312 -0.168,0.388 -0.064,1.166 -0.736,1.427 -0.258,0.107 -0.868,-0.028 -1.385,-0.508 -0.365,-0.34 -0.546,-0.813 -0.645,-1.266 -0.104,-0.452 -0.223,-1.286 0.526,-1.576 0.238,-0.107 0.455,-0.135 0.671,-0.12 0.757,0.042 1.33,1.194 1.758,1.647 0.328,0.361 0.385,-0.135 0.434,0.084 m -1.155,0.057 c -0.029,-0.12 -0.14,-0.601 -0.288,-0.799 -0.097,-0.142 -0.335,-0.233 -0.468,-0.233 -0.042,0 -0.274,0 -0.287,0.353 0,0.177 0.035,0.361 0.077,0.559 0.126,0.558 0.28,1.032 0.665,1.032 0.301,0 0.433,-0.347 0.301,-0.919 z" /></g><g
           transform="translate(44.0524,160.3943)"
           id="g248"><path
             id="path250"
             style="fill:#fefefe;fill-opacity:1;fill-rule:nonzero;stroke:none"
             d="m 0,0 -0.47,-0.812 c -0.146,-0.277 -0.426,-0.489 -0.86,-0.489 l -0.749,0.015 0.217,0.735 h 0.146 c 0.077,0 0.134,0.007 0.176,0.029 0.042,0.013 0.062,0.042 0.098,0.084 l 0.28,0.445 h 1.169 z" /></g><g
           transform="translate(56.9997,108.9998)"
           id="g252"><path
             id="path254"
             style="fill:#e5e5e5;fill-opacity:1;fill-rule:nonzero;stroke:none"
             d="m 0,0 h -53 c -1.657,0 -3,1.344 -3,3 v 28 c 0,1.657 1.343,3 3,3 H 0 c 1.657,0 3,-1.343 3,-3 V 3 C 3,1.344 1.657,0 0,0" /></g><g
           transform="translate(25.3303,132.7)"
           id="g256"><path
             id="path258"
             style="fill:#1c33c3;fill-opacity:1;fill-rule:nonzero;stroke:none"
             d="m 0,0 -5.629,-13.432 h -3.673 l -2.774,10.721 c -0.169,0.662 -0.312,0.899 -0.824,1.181 -0.838,0.45 -2.212,0.875 -3.43,1.136 l 0.081,0.388 h 5.91 c 0.756,0 1.43,-0.5 1.606,-1.368 L -7.266,-9.146 -3.655,0 Z m 14.387,-9.046 c 0.013,3.542 -4.897,3.742 -4.866,5.322 0.013,0.482 0.469,0.995 1.475,1.125 0.499,0.063 1.867,0.12 3.429,-0.599 l 0.606,2.848 c -0.837,0.3 -1.911,0.594 -3.248,0.594 -3.437,0 -5.854,-1.824 -5.873,-4.442 -0.025,-1.937 1.724,-3.011 3.043,-3.655 1.355,-0.656 1.811,-1.081 1.805,-1.668 -0.012,-0.899 -1.081,-1.299 -2.081,-1.318 -1.749,-0.025 -2.76,0.475 -3.567,0.85 l -0.631,-2.943 c 0.813,-0.375 2.312,-0.693 3.861,-0.712 3.649,0 6.041,1.806 6.047,4.598 m 9.071,-4.386 h 3.211 L 23.865,0 h -2.961 c -0.669,0 -1.232,-0.387 -1.481,-0.987 l -5.216,-12.445 h 3.648 l 0.725,2.006 h 4.454 z m -3.873,4.754 1.831,5.042 1.049,-5.042 z M 4.967,0 2.093,-13.432 h -3.48 L 1.487,0 Z" /></g><g
           transform="translate(56.9997,72.9998)"
           id="g260"><path
             id="path262"
             style="fill:#000000;fill-opacity:1;fill-rule:nonzero;stroke:none"
             d="m 0,0 h -53 c -1.657,0 -3,1.344 -3,3 v 28 c 0,1.657 1.343,3 3,3 H 0 c 1.657,0 3,-1.343 3,-3 V 3 C 3,1.344 1.657,0 0,0" /></g><g
           transform="translate(14.5656,94.6375)"
           id="g264"><path
             id="path266"
             style="fill:#fff100;fill-opacity:1;fill-rule:nonzero;stroke:none"
             d="m 0,0 c 0.485,0.164 1.005,0.25 1.547,0.25 2.367,0 4.342,-1.683 4.791,-3.914 l 3.351,0.685 c -0.77,3.791 -4.121,6.651 -8.142,6.651 -0.92,0 -1.803,-0.15 -2.63,-0.428 z" /></g><g
           transform="translate(10.6091,83.7723)"
           id="g268"><path
             id="path270"
             style="fill:#00a3df;fill-opacity:1;fill-rule:nonzero;stroke:none"
             d="M 0,0 2.267,2.566 C 1.255,3.465 0.62,4.77 0.62,6.231 c 0,1.455 0.635,2.766 1.647,3.658 L 0,12.448 C -1.718,10.923 -2.802,8.705 -2.802,6.225 -2.802,3.75 -1.718,1.526 0,0" /></g><g
           transform="translate(20.904,89.0193)"
           id="g272"><path
             id="path274"
             style="fill:#ee4023;fill-opacity:1;fill-rule:nonzero;stroke:none"
             d="m 0,0 c -0.457,-2.231 -2.424,-3.906 -4.791,-3.906 -0.542,0 -1.063,0.085 -1.554,0.249 l -1.084,-3.244 c 0.827,-0.278 1.718,-0.428 2.638,-0.428 4.021,0 7.372,2.852 8.142,6.645 z" /></g><g
           transform="translate(41.1511,96.2137)"
           id="g276"><path
             id="path278"
             style="fill:#ffffff;fill-opacity:1;fill-rule:nonzero;stroke:none"
             d="m 0,0 v -9.789 l 1.697,-0.706 -0.805,-1.932 -1.683,0.698 c -0.378,0.165 -0.635,0.415 -0.827,0.7 -0.186,0.285 -0.328,0.684 -0.328,1.212 V 0 Z m -10.787,-7.672 c -0.014,0.114 -0.021,0.235 -0.021,0.357 0.029,1.647 1.383,2.965 3.03,2.937 0.898,-0.015 1.697,-0.421 2.231,-1.062 z m 3.045,5.39 c -2.795,0.043 -5.105,-2.196 -5.148,-4.99 -0.014,-1.048 0.286,-2.033 0.82,-2.845 l 9.183,3.929 c -0.513,2.203 -2.481,3.864 -4.855,3.906 m 2.011,-7.207 c -0.557,-0.542 -1.305,-0.87 -2.132,-0.856 -0.571,0.007 -1.098,0.178 -1.54,0.463 l -1.113,-1.767 c 0.763,-0.479 1.655,-0.764 2.624,-0.778 1.405,-0.021 2.688,0.534 3.621,1.441 z" /></g><g
           transform="translate(51.1472,88.2566)"
           id="g280"><path
             id="path282"
             style="fill:#ffffff;fill-opacity:1;fill-rule:nonzero;stroke:none"
             d="m 0,0 c -0.278,-1.361 -1.483,-2.388 -2.924,-2.388 -0.327,0 -0.648,0.057 -0.948,0.157 l -0.663,-1.982 c 0.507,-0.172 1.049,-0.264 1.611,-0.264 2.453,0 4.499,1.74 4.97,4.057 z m -6.288,-3.193 1.383,1.56 c -0.62,0.55 -1.006,1.348 -1.006,2.239 0,0.891 0.392,1.69 1.006,2.232 L -6.288,4.399 C -7.337,3.473 -8,2.11 -8,0.599 c 0,-1.511 0.663,-2.866 1.712,-3.792 m 2.416,6.623 c 0.3,0.099 0.613,0.149 0.948,0.149 1.447,0 2.646,-1.026 2.924,-2.389 l 2.046,0.421 c -0.471,2.318 -2.517,4.057 -4.97,4.057 -0.562,0 -1.104,-0.093 -1.603,-0.257 z" /></g><g
           transform="translate(56.9997,36.9998)"
           id="g284"><path
             id="path286"
             style="fill:#f37421;fill-opacity:1;fill-rule:nonzero;stroke:none"
             d="m 0,0 h -53 c -1.657,0 -3,1.344 -3,3 v 28 c 0,1.657 1.343,3 3,3 H 0 c 1.657,0 3,-1.343 3,-3 V 3 C 3,1.344 1.657,0 0,0" /></g><g
           transform="translate(8.5217,61.8309)"
           id="g288"><path
             id="path290"
             style="fill:#ffffff;fill-opacity:1;fill-rule:nonzero;stroke:none"
             d="m 0,0 v -13.77 h 3.124 v 5.76 h 5.13 v -5.76 h 3.108 V 0 H 8.254 v -5.295 h -5.13 l 0,5.295 z" /></g><g
           transform="translate(40.3171,54.1912)"
           id="g292"><path
             id="path294"
             style="fill:#ffffff;fill-opacity:1;fill-rule:nonzero;stroke:none"
             d="M 0,0 C 0.079,0.834 0.614,2.021 1.92,2.021 3.352,2.021 3.675,0.755 3.675,0 Z m 6.46,-2.125 c 0.039,0.229 0.102,0.692 0.102,1.228 0,2.47 -1.227,4.988 -4.454,4.988 -3.469,0 -5.043,-2.801 -5.043,-5.334 0,-3.124 1.944,-5.091 5.334,-5.091 1.346,0 2.597,0.204 3.621,0.613 L 5.61,-3.62 C 4.776,-3.888 3.91,-4.029 2.849,-4.029 1.4,-4.029 0.134,-3.415 0.031,-2.133 H 6.46 Z" /></g><g
           transform="translate(47.8708,48.0613)"
           id="g296"><path
             id="path298"
             style="fill:#ffffff;fill-opacity:1;fill-rule:nonzero;stroke:none"
             d="m 0,0 h 3.107 v 5.067 c 0,0.245 0.025,0.489 0.064,0.693 0.204,0.96 0.983,1.573 2.124,1.573 0.347,0 0.614,-0.039 0.834,-0.078 v 2.919 C 5.901,10.213 5.76,10.213 5.477,10.213 4.517,10.213 3.289,9.6 2.777,8.151 H 2.698 L 2.597,9.993 H -0.079 C -0.039,9.135 0,8.176 0,6.704 Z" /></g><g
           transform="translate(23.0383,62.3816)"
           id="g300"><path
             id="path302"
             style="fill:#ffe700;fill-opacity:1;fill-rule:evenodd;stroke:none"
             d="m 0,0 c 0.881,0 1.598,-0.716 1.598,-1.598 0,-0.881 -0.717,-1.596 -1.598,-1.596 -0.881,0 -1.597,0.715 -1.597,1.596 C -1.597,-0.716 -0.881,0 0,0" /></g><g
           transform="translate(21.4411,58.0623)"
           id="g304"><path
             id="path306"
             style="fill:#ffffff;fill-opacity:1;fill-rule:evenodd;stroke:none"
             d="m 0,0 h 3.195 v -5.634 c 0,-1.047 0.582,-2.046 1.865,-2.046 0.007,2.534 0,5.146 -0.087,7.68 H 7.64 c 0.055,-0.488 0.11,-0.976 0.157,-1.464 1.26,2.518 5.233,1.967 6.57,-0.165 1.377,-2.195 1.85,-8.49 -4.65,-8.49 h -1.51 c 0.016,-1.275 0.016,-2.557 0.016,-3.839 H 5.028 c 0,1.227 0.008,2.518 0.015,3.839 C 1.589,-10.104 0,-7.916 0,-5.634 Z m 8.16,-7.672 h 1.557 c 1.566,0 2.274,0.999 2.274,2.046 0,1.047 -0.078,3.407 -2.006,3.407 -2.219,0 -1.865,-2.935 -1.849,-4.469 C 8.128,-7.019 8.152,-7.35 8.16,-7.672" /></g><g
           transform="translate(56.9997,0.9998)"
           id="g308"><path
             id="path310"
             style="fill:#e5e5e5;fill-opacity:1;fill-rule:nonzero;stroke:none"
             d="m 0,0 h -53 c -1.657,0 -3,1.344 -3,3 v 28 c 0,1.657 1.343,3 3,3 H 0 c 1.657,0 3,-1.343 3,-3 V 3 C 3,1.344 1.657,0 0,0" /></g><g
           transform="translate(8.071,11.7664)"
           id="g312"><path
             id="path314"
             style="fill:#fefefe;fill-opacity:1;fill-rule:nonzero;stroke:none"
             d="m 0,0 v 5 l 2,8 H 44 L 46,9 42,-2 Z" /></g><g
           transform="translate(18.1047,21.116)"
           id="g316"><path
             id="path318"
             style="fill:#b3131b;fill-opacity:1;fill-rule:nonzero;stroke:none"
             d="m 0,0 h 0.157 l 0.125,0.042 0.125,0.043 0.11,0.111 0.11,0.113 0.059,0.149 0.058,0.149 0.002,0.22 0.002,0.22 L 0.696,1.133 0.645,1.218 0.555,1.273 0.464,1.33 H 0.076 L -0.057,1.271 -0.189,1.211 -0.266,1.129 -0.342,1.047 -0.403,0.904 -0.463,0.763 -0.475,0.541 -0.486,0.319 -0.43,0.209 -0.374,0.099 -0.265,0.05 -0.157,0.001 Z m 25.017,-6.309 h 0.565 v 0.345 l 0.065,0.429 c 0.035,0.235 0.095,0.608 0.131,0.829 0.036,0.221 0.082,0.5 0.1,0.621 0.02,0.12 0.07,0.382 0.113,0.581 0.043,0.199 0.095,0.414 0.118,0.479 0.022,0.063 0.041,0.13 0.041,0.149 0.001,0.018 0.049,0.134 0.107,0.258 l 0.107,0.225 0.14,0.187 0.141,0.186 0.153,0.117 c 0.085,0.063 0.221,0.147 0.303,0.187 l 0.149,0.071 0.323,-10e-4 0.323,-0.002 0.127,-0.041 0.127,-0.041 0.021,0.013 0.022,0.013 10e-4,0.083 c 0.001,0.045 0.028,0.214 0.061,0.375 l 0.061,0.293 -0.067,0.026 c -0.066,0.025 -0.131,0.047 -0.198,0.068 l -0.13,0.041 -0.232,-0.001 -0.232,-0.001 -0.19,-0.067 -0.19,-0.066 -0.142,-0.086 -0.143,-0.086 -0.185,-0.194 -0.185,-0.194 -0.099,-0.15 c -0.055,-0.083 -0.103,-0.148 -0.108,-0.143 -0.004,0.005 0.026,0.177 0.067,0.383 0.04,0.207 0.074,0.402 0.074,0.434 l 0.002,0.057 h -0.957 v -0.015 c 0,-0.01 -0.024,-0.176 -0.053,-0.369 -0.029,-0.194 -0.088,-0.568 -0.13,-0.83 -0.051,-0.315 -0.102,-0.629 -0.155,-0.944 -0.045,-0.272 -0.093,-0.544 -0.143,-0.814 -0.035,-0.193 -0.099,-0.53 -0.141,-0.75 -0.042,-0.221 -0.112,-0.575 -0.154,-0.789 L 24.5,-6.07 24.453,-6.309 Z m -13.103,0 h 0.551 l 0.017,0.234 c 0.009,0.128 0.04,0.387 0.069,0.575 0.03,0.188 0.089,0.563 0.133,0.833 0.055,0.334 0.115,0.667 0.18,0.999 0.055,0.279 0.118,0.558 0.139,0.617 0.021,0.061 0.039,0.125 0.039,0.145 0,0.019 0.041,0.126 0.092,0.236 0.051,0.11 0.145,0.279 0.21,0.375 l 0.118,0.175 0.158,0.146 0.158,0.146 0.194,0.093 0.195,0.092 0.296,-10e-4 0.298,-0.002 0.146,-0.042 c 0.081,-0.025 0.153,-0.044 0.162,-0.044 0.009,0 0.015,0.027 0.015,0.06 0,0.034 0.03,0.204 0.065,0.379 0.035,0.175 0.064,0.324 0.064,0.334 0,0.009 -0.084,0.042 -0.187,0.073 -0.103,0.032 -0.245,0.064 -0.317,0.073 l -0.129,0.016 -0.168,-0.03 c -0.092,-0.016 -0.23,-0.052 -0.305,-0.08 -0.076,-0.028 -0.201,-0.091 -0.277,-0.14 -0.078,-0.049 -0.198,-0.145 -0.266,-0.213 -0.07,-0.068 -0.187,-0.205 -0.26,-0.304 -0.056,-0.078 -0.113,-0.156 -0.17,-0.233 l -0.037,-0.052 0.023,0.104 c 0.012,0.057 0.047,0.243 0.076,0.413 0.03,0.171 0.061,0.331 0.068,0.355 l 0.014,0.046 h -0.986 v -0.062 c 0,-0.034 -0.029,-0.241 -0.065,-0.459 -0.036,-0.219 -0.094,-0.583 -0.13,-0.811 -0.036,-0.227 -0.1,-0.623 -0.142,-0.879 -0.045,-0.271 -0.093,-0.543 -0.143,-0.814 -0.097,-0.518 -0.197,-1.035 -0.298,-1.552 -0.044,-0.22 -0.096,-0.48 -0.116,-0.578 -0.021,-0.098 -0.037,-0.187 -0.037,-0.2 v -0.023 z m -13.008,0 h 0.556 l 0.016,0.04 c 0.009,0.024 0.016,0.082 0.016,0.132 0,0.05 0.035,0.308 0.078,0.574 0.097,0.604 0.197,1.209 0.3,1.814 0.044,0.254 0.089,0.509 0.138,0.763 0.041,0.213 0.105,0.545 0.14,0.736 0.037,0.192 0.108,0.558 0.158,0.812 0.051,0.254 0.099,0.472 0.106,0.485 L 0.428,-0.93 -0.134,-0.937 -0.696,-0.944 -0.743,-1.28 c -0.026,-0.185 -0.082,-0.552 -0.126,-0.815 -0.043,-0.262 -0.108,-0.664 -0.144,-0.891 -0.045,-0.273 -0.092,-0.544 -0.142,-0.815 -0.041,-0.22 -0.105,-0.558 -0.141,-0.75 -0.036,-0.192 -0.1,-0.529 -0.144,-0.75 -0.043,-0.22 -0.101,-0.511 -0.128,-0.646 -0.028,-0.135 -0.057,-0.272 -0.066,-0.304 L -1.65,-6.309 Z m -6.954,0 h 0.628 l 0.045,0.278 c 0.025,0.153 0.073,0.447 0.108,0.653 l 0.142,0.853 c 0.044,0.263 0.109,0.653 0.146,0.866 0.037,0.214 0.095,0.545 0.129,0.735 0.034,0.192 0.069,0.355 0.077,0.362 l 0.014,0.015 h 3.379 l 0.018,-0.019 0.019,-0.019 -0.029,-0.149 C -3.388,-2.816 -3.436,-3.069 -3.478,-3.297 -3.52,-3.524 -3.591,-3.908 -3.635,-4.15 -3.682,-4.404 -3.73,-4.659 -3.778,-4.913 c -0.035,-0.178 -0.103,-0.55 -0.154,-0.827 -0.05,-0.278 -0.091,-0.519 -0.09,-0.536 v -0.033 h 1.261 l 0.028,0.162 c 0.016,0.088 0.04,0.249 0.055,0.355 0.015,0.106 0.051,0.334 0.079,0.504 0.029,0.171 0.087,0.509 0.129,0.75 0.041,0.242 0.111,0.655 0.155,0.918 0.043,0.263 0.108,0.647 0.143,0.853 0.045,0.259 0.092,0.518 0.14,0.776 0.042,0.22 0.112,0.593 0.155,0.827 0.043,0.234 0.107,0.59 0.144,0.789 0.036,0.199 0.101,0.56 0.145,0.801 0.044,0.242 0.1,0.524 0.124,0.628 L -1.42,1.24 H -2.698 L -2.715,1.118 C -2.725,1.051 -2.756,0.861 -2.784,0.697 -2.812,0.534 -2.863,0.243 -2.897,0.052 -2.932,-0.141 -2.995,-0.507 -3.038,-0.763 -3.079,-1.014 -3.119,-1.265 -3.158,-1.517 l -0.043,-0.287 -0.938,-0.018 -0.937,-0.02 -0.785,0.019 c -0.432,0.011 -0.788,0.02 -0.791,0.023 -0.003,0.003 0.012,0.103 0.033,0.224 0.027,0.154 0.057,0.309 0.088,0.464 0.039,0.198 0.078,0.396 0.115,0.594 0.036,0.193 0.077,0.431 0.091,0.531 0.014,0.099 0.043,0.265 0.065,0.368 0.022,0.103 0.063,0.32 0.091,0.482 0.029,0.163 0.059,0.314 0.068,0.336 l 0.016,0.042 H -7.353 L -7.393,1.015 C -7.415,0.89 -7.445,0.713 -7.459,0.62 -7.473,0.528 -7.52,0.231 -7.564,-0.039 -7.607,-0.31 -7.672,-0.711 -7.707,-0.931 L -7.849,-1.823 C -7.899,-2.134 -7.951,-2.444 -8.007,-2.754 -8.053,-3.008 -8.1,-3.263 -8.147,-3.517 -8.181,-3.694 -8.245,-4.031 -8.29,-4.267 -8.336,-4.513 -8.385,-4.758 -8.435,-5.003 -8.47,-5.174 -8.508,-5.372 -8.521,-5.442 -8.533,-5.514 -8.573,-5.719 -8.61,-5.898 -8.646,-6.078 -8.676,-6.244 -8.676,-6.267 v -0.042 z m 38.051,0.608 -0.195,-0.011 -0.131,0.024 c -0.073,0.013 -0.188,0.048 -0.258,0.078 l -0.126,0.053 -0.106,0.087 -0.105,0.087 -0.08,0.152 -0.079,0.15 -0.036,0.168 -0.035,0.168 0.003,0.336 0.003,0.337 0.042,0.297 0.041,0.297 0.065,0.207 c 0.036,0.114 0.065,0.221 0.066,0.239 0,0.016 0.035,0.11 0.078,0.206 0.05,0.111 0.102,0.222 0.158,0.331 0.045,0.085 0.128,0.218 0.186,0.295 0.056,0.077 0.159,0.193 0.226,0.259 0.068,0.064 0.175,0.15 0.238,0.189 l 0.117,0.071 0.203,0.071 0.203,0.07 h 0.427 0.426 l 0.246,-0.068 c 0.134,-0.038 0.278,-0.081 0.319,-0.097 l 0.072,-0.028 -0.013,-0.071 C 31.95,-1.843 31.918,-2.015 31.889,-2.186 31.86,-2.355 31.8,-2.682 31.759,-2.909 31.717,-3.137 31.653,-3.48 31.616,-3.672 31.58,-3.864 31.526,-4.108 31.498,-4.215 31.469,-4.324 31.439,-4.434 31.41,-4.543 31.389,-4.617 31.34,-4.745 31.301,-4.827 31.262,-4.91 31.193,-5.03 31.149,-5.094 31.104,-5.158 31.029,-5.247 30.981,-5.291 30.933,-5.335 30.831,-5.414 30.752,-5.466 L 30.61,-5.561 30.405,-5.626 30.199,-5.691 Z m -0.44,-0.734 0.245,-0.002 0.234,0.037 c 0.127,0.02 0.291,0.054 0.361,0.074 0.071,0.02 0.199,0.072 0.284,0.116 l 0.155,0.08 0.134,0.117 0.134,0.117 0.14,0.188 c 0.078,0.104 0.147,0.205 0.156,0.227 l 0.014,0.039 -0.012,-0.13 c -0.01,-0.087 -0.022,-0.173 -0.036,-0.259 -0.013,-0.07 -0.031,-0.207 -0.039,-0.304 l -0.018,-0.174 h 1.015 v 0.349 l 0.077,0.659 c 0.042,0.364 0.105,0.846 0.139,1.073 0.035,0.228 0.087,0.553 0.118,0.724 0.03,0.171 0.085,0.48 0.12,0.686 0.035,0.206 0.099,0.566 0.142,0.8 0.042,0.236 0.112,0.608 0.152,0.829 0.041,0.219 0.104,0.563 0.141,0.762 0.037,0.199 0.103,0.548 0.147,0.776 0.046,0.237 0.092,0.474 0.142,0.711 0.034,0.163 0.063,0.305 0.063,0.316 v 0.02 H 32.463 L 32.448,1.234 C 32.438,1.146 32.396,0.852 32.353,0.581 32.302,0.263 32.25,-0.057 32.198,-0.375 32.167,-0.56 32.137,-0.743 32.107,-0.927 l -0.014,-0.086 -0.044,0.019 c -0.023,0.01 -0.154,0.046 -0.289,0.08 l -0.245,0.061 -0.336,0.027 -0.337,0.026 -0.284,-0.026 -0.284,-0.028 -0.259,-0.064 -0.259,-0.065 -0.245,-0.121 -0.246,-0.12 -0.181,-0.133 -0.18,-0.134 -0.157,-0.168 c -0.086,-0.092 -0.21,-0.244 -0.276,-0.339 l -0.12,-0.171 -0.141,-0.292 c -0.077,-0.161 -0.17,-0.374 -0.209,-0.474 -0.037,-0.099 -0.103,-0.32 -0.147,-0.49 l -0.079,-0.309 -0.039,-0.402 -0.039,-0.402 0.029,-0.323 0.029,-0.324 0.036,-0.116 c 0.018,-0.063 0.058,-0.178 0.088,-0.253 l 0.055,-0.137 0.1,-0.134 0.099,-0.135 0.114,-0.094 0.114,-0.092 0.154,-0.078 c 0.086,-0.042 0.229,-0.096 0.318,-0.122 0.09,-0.024 0.236,-0.053 0.324,-0.065 0.088,-0.012 0.27,-0.023 0.406,-0.024 m -8.416,0.733 -0.207,-0.012 -0.137,0.035 c -0.075,0.02 -0.189,0.063 -0.254,0.096 l -0.117,0.06 -0.063,0.076 c -0.036,0.042 -0.089,0.124 -0.12,0.182 l -0.055,0.107 -0.011,0.248 -0.012,0.249 0.044,0.15 c 0.025,0.083 0.081,0.227 0.126,0.321 l 0.082,0.169 0.158,0.155 0.156,0.155 0.166,0.08 0.167,0.08 0.206,0.05 0.207,0.049 h 1.293 l 0.041,-0.017 0.041,-0.016 -0.034,-0.203 c -0.02,-0.113 -0.065,-0.314 -0.101,-0.45 -0.036,-0.134 -0.1,-0.333 -0.142,-0.44 -0.042,-0.109 -0.077,-0.203 -0.077,-0.212 0,-0.009 -0.042,-0.087 -0.094,-0.174 l -0.094,-0.159 -0.155,-0.153 c -0.085,-0.085 -0.164,-0.154 -0.176,-0.154 -0.012,0 -0.064,-0.029 -0.116,-0.065 l -0.096,-0.065 -0.209,-0.066 -0.21,-0.066 z m -0.323,-0.724 0.348,0.01 0.221,0.057 0.22,0.056 0.141,0.067 c 0.079,0.037 0.206,0.11 0.285,0.163 0.079,0.052 0.2,0.151 0.269,0.219 0.069,0.07 0.173,0.188 0.23,0.263 0.056,0.075 0.106,0.133 0.11,0.129 0.005,-0.004 -0.009,-0.124 -0.028,-0.266 -0.021,-0.141 -0.037,-0.331 -0.037,-0.419 l -10e-4,-0.162 h 0.949 l 0.014,0.369 0.015,0.368 0.067,0.478 c 0.038,0.263 0.098,0.654 0.134,0.866 0.036,0.213 0.1,0.574 0.14,0.802 0.041,0.228 0.105,0.582 0.143,0.788 l 0.071,0.375 0.002,0.325 0.002,0.323 -0.074,0.149 -0.073,0.151 -0.098,0.094 -0.1,0.096 -0.163,0.082 -0.163,0.083 -0.243,0.054 -0.243,0.054 -0.335,0.026 -0.334,0.025 -0.431,-0.026 c -0.237,-0.015 -0.57,-0.044 -0.741,-0.065 L 20.811,-0.93 20.599,-0.931 H 20.388 L 20.357,-1.08 c -0.017,-0.081 -0.064,-0.275 -0.105,-0.432 -0.04,-0.155 -0.069,-0.287 -0.065,-0.291 0.005,-0.005 0.118,0.021 0.252,0.057 0.133,0.036 0.417,0.096 0.631,0.132 l 0.388,0.066 0.348,0.014 0.35,0.014 0.224,-0.039 0.225,-0.04 0.15,-0.074 0.15,-0.073 0.084,-0.126 0.085,-0.125 -0.002,-0.197 -10e-4,-0.198 -0.045,-0.216 -0.044,-0.217 -0.931,-0.003 -0.93,-0.004 -0.304,-0.083 c -0.168,-0.046 -0.354,-0.107 -0.412,-0.136 -0.06,-0.028 -0.119,-0.052 -0.132,-0.052 -0.013,0 -0.112,-0.055 -0.222,-0.123 l -0.197,-0.123 -0.155,-0.155 c -0.086,-0.085 -0.196,-0.213 -0.243,-0.284 -0.048,-0.071 -0.126,-0.22 -0.173,-0.33 l -0.086,-0.2 -0.04,-0.227 -0.039,-0.226 v -0.473 l 0.037,-0.197 0.038,-0.198 0.07,-0.129 c 0.038,-0.07 0.11,-0.173 0.156,-0.229 l 0.088,-0.103 0.155,-0.093 0.154,-0.094 0.178,-0.05 c 0.096,-0.027 0.245,-0.061 0.329,-0.074 l 0.152,-0.025 z m -4.253,-0.01 0.284,-0.002 0.323,0.038 c 0.178,0.021 0.414,0.056 0.526,0.078 0.134,0.027 0.268,0.058 0.401,0.094 0.108,0.032 0.207,0.065 0.219,0.075 0.011,0.009 0.042,0.127 0.068,0.26 0.026,0.134 0.06,0.313 0.073,0.398 0.014,0.086 0.022,0.16 0.017,0.166 -0.006,0.005 -0.024,-0.002 -0.043,-0.017 -0.018,-0.013 -0.145,-0.067 -0.281,-0.118 l -0.249,-0.093 -0.355,-0.068 -0.354,-0.068 -0.302,0.009 -0.302,0.011 -0.171,0.059 -0.171,0.059 -0.132,0.117 -0.132,0.115 -0.088,0.16 -0.088,0.16 -0.042,0.214 -0.042,0.214 10e-4,0.277 v 0.277 l 0.051,0.336 0.051,0.336 0.053,0.182 c 0.03,0.099 0.064,0.216 0.074,0.258 0.012,0.043 0.059,0.165 0.106,0.271 0.047,0.108 0.13,0.272 0.184,0.367 l 0.101,0.172 0.123,0.127 0.122,0.128 0.131,0.08 0.13,0.081 0.167,0.052 c 0.092,0.028 0.255,0.066 0.361,0.081 l 0.195,0.03 0.284,-0.013 0.284,-0.015 0.336,-0.067 0.336,-0.067 0.137,-0.051 c 0.075,-0.028 0.14,-0.051 0.144,-0.051 0.004,0 0.022,0.096 0.04,0.213 0.018,0.118 0.05,0.31 0.071,0.429 0.021,0.119 0.034,0.221 0.028,0.227 -0.007,0.007 -0.108,0.022 -0.225,0.036 -0.117,0.013 -0.436,0.037 -0.708,0.053 l -0.495,0.028 -0.35,-0.027 -0.348,-0.027 -0.259,-0.054 -0.259,-0.054 -0.166,-0.066 c -0.092,-0.037 -0.225,-0.104 -0.298,-0.148 -0.07,-0.042 -0.137,-0.086 -0.205,-0.132 -0.04,-0.028 -0.162,-0.139 -0.271,-0.247 l -0.198,-0.194 -0.111,-0.162 c -0.06,-0.089 -0.166,-0.275 -0.233,-0.413 L 14.991,-2.573 14.896,-2.844 C 14.844,-2.993 14.772,-3.238 14.735,-3.387 L 14.668,-3.658 14.644,-3.904 14.62,-4.15 14.621,-4.473 v -0.323 l 0.024,-0.188 0.024,-0.188 0.078,-0.193 0.077,-0.195 0.09,-0.139 0.089,-0.14 0.142,-0.14 0.143,-0.139 0.15,-0.08 0.15,-0.079 0.198,-0.056 c 0.109,-0.029 0.265,-0.064 0.349,-0.076 0.083,-0.013 0.28,-0.025 0.436,-0.026 z m -7.735,3.643 c -0.716,0 -1.302,0.005 -1.302,0.012 0,0.006 0.031,0.096 0.068,0.2 0.038,0.104 0.103,0.259 0.146,0.344 l 0.078,0.155 0.171,0.17 0.171,0.17 0.168,0.08 c 0.092,0.044 0.214,0.093 0.271,0.107 0.057,0.015 0.22,0.034 0.362,0.043 l 0.259,0.017 0.198,-0.026 0.199,-0.025 0.144,-0.066 0.145,-0.067 0.079,-0.085 c 0.043,-0.047 0.095,-0.116 0.115,-0.153 l 0.036,-0.068 0.024,-0.153 0.024,-0.151 -0.027,-0.252 -0.028,-0.252 z m -0.487,-3.642 0.284,-0.003 0.284,0.026 c 0.157,0.014 0.413,0.044 0.569,0.065 0.157,0.023 0.427,0.073 0.601,0.111 l 0.316,0.069 0.016,0.116 c 0.008,0.065 0.044,0.255 0.079,0.424 l 0.063,0.308 -0.014,0.013 -0.014,0.015 -0.097,-0.047 C 10.383,-5.363 10.217,-5.425 10.068,-5.474 L 9.797,-5.563 9.512,-5.618 9.228,-5.674 8.775,-5.675 8.323,-5.676 8.168,-5.626 c -0.085,0.027 -0.211,0.077 -0.279,0.111 l -0.124,0.061 -0.102,0.093 -0.102,0.091 -0.08,0.14 -0.079,0.139 -0.05,0.175 -0.05,0.174 -10e-4,0.324 v 0.323 l 0.044,0.288 0.045,0.289 0.389,0.018 0.389,0.018 1.438,-0.009 1.438,-0.009 0.044,0.184 c 0.024,0.101 0.06,0.311 0.081,0.465 l 0.038,0.281 10e-4,0.237 v 0.237 l -0.041,0.176 -0.041,0.176 -0.067,0.118 c -0.038,0.064 -0.103,0.157 -0.146,0.207 -0.043,0.049 -0.12,0.119 -0.17,0.155 -0.052,0.036 -0.151,0.097 -0.222,0.134 L 10.392,-0.961 10.166,-0.907 9.94,-0.853 9.662,-0.826 9.383,-0.799 9.125,-0.816 8.866,-0.833 8.556,-0.893 8.246,-0.952 8.052,-1.029 C 7.945,-1.072 7.782,-1.15 7.69,-1.202 7.597,-1.255 7.469,-1.34 7.405,-1.392 7.341,-1.443 7.23,-1.545 7.159,-1.616 7.088,-1.687 6.982,-1.815 6.924,-1.9 6.867,-1.986 6.778,-2.138 6.728,-2.237 6.677,-2.337 6.612,-2.477 6.582,-2.547 6.552,-2.618 6.498,-2.764 6.461,-2.87 6.425,-2.978 6.367,-3.181 6.334,-3.323 6.294,-3.495 6.26,-3.669 6.231,-3.843 L 6.19,-4.104 V -4.489 L 6.191,-4.874 6.23,-5.042 C 6.252,-5.135 6.293,-5.274 6.322,-5.353 6.351,-5.431 6.404,-5.547 6.441,-5.611 6.477,-5.675 6.555,-5.778 6.614,-5.84 6.672,-5.902 6.778,-5.996 6.85,-6.049 6.92,-6.102 7.047,-6.177 7.131,-6.214 l 0.152,-0.069 0.212,-0.052 c 0.116,-0.028 0.292,-0.061 0.391,-0.074 0.098,-0.013 0.306,-0.025 0.463,-0.026 m -5.369,0.71 -0.216,-0.012 -0.141,0.025 -0.141,0.025 -0.144,0.065 -0.143,0.065 -0.1,0.096 -0.1,0.096 -0.058,0.129 c -0.032,0.071 -0.072,0.192 -0.09,0.268 l -0.034,0.14 0.014,0.223 0.013,0.222 0.067,0.349 c 0.05,0.267 0.099,0.534 0.146,0.802 0.044,0.249 0.11,0.613 0.147,0.81 l 0.068,0.358 0.148,0.124 c 0.082,0.067 0.21,0.158 0.287,0.201 l 0.139,0.079 0.18,0.056 0.182,0.056 0.233,0.014 0.232,0.013 0.189,-0.041 0.19,-0.04 L 4.182,-1.663 4.315,-1.725 4.428,-1.837 4.54,-1.95 4.6,-2.069 C 4.633,-2.135 4.68,-2.264 4.704,-2.355 L 4.747,-2.521 4.734,-3.013 4.721,-3.504 4.654,-3.794 C 4.618,-3.954 4.548,-4.198 4.5,-4.337 L 4.412,-4.59 4.304,-4.794 C 4.245,-4.906 4.153,-5.059 4.101,-5.132 4.048,-5.205 3.964,-5.3 3.915,-5.343 3.854,-5.395 3.792,-5.443 3.729,-5.491 L 3.635,-5.562 3.415,-5.637 3.196,-5.711 Z M 0.587,-8.714 h 0.556 l 0.015,0.041 c 0.009,0.023 0.016,0.075 0.016,0.118 0,0.042 0.018,0.196 0.041,0.34 0.022,0.146 0.075,0.48 0.117,0.742 0.042,0.264 0.104,0.66 0.139,0.879 0.033,0.209 0.064,0.418 0.094,0.627 0.017,0.125 0.038,0.227 0.046,0.227 0.009,0 0.045,-0.055 0.08,-0.122 l 0.065,-0.122 0.143,-0.145 0.143,-0.144 0.177,-0.071 0.177,-0.071 0.209,-0.027 0.211,-0.028 0.267,0.017 0.267,0.016 0.289,0.076 0.289,0.074 0.155,0.071 c 0.085,0.039 0.236,0.124 0.336,0.189 l 0.181,0.118 0.169,0.168 c 0.092,0.093 0.223,0.242 0.291,0.331 0.066,0.089 0.122,0.168 0.122,0.176 0,0.007 0.033,0.063 0.073,0.123 0.04,0.059 0.123,0.224 0.183,0.366 0.061,0.142 0.155,0.398 0.21,0.569 l 0.101,0.311 0.052,0.268 c 0.028,0.148 0.065,0.392 0.081,0.543 l 0.03,0.274 -0.017,0.233 -0.018,0.233 -0.054,0.232 -0.053,0.233 -0.088,0.174 -0.087,0.174 -0.169,0.179 -0.169,0.179 -0.199,0.103 -0.2,0.103 -0.219,0.053 -0.22,0.053 -0.22,0.016 -0.22,0.016 L 3.734,-0.827 3.49,-0.855 3.29,-0.906 3.09,-0.957 2.917,-1.038 C 2.821,-1.082 2.682,-1.157 2.608,-1.204 2.533,-1.252 2.457,-1.307 2.438,-1.326 2.418,-1.346 2.372,-1.381 2.334,-1.405 L 2.266,-1.45 2.313,-1.223 c 0.027,0.125 0.049,0.242 0.049,0.259 l 10e-4,0.032 H 1.415 L 1.332,-1.455 C 1.287,-1.743 1.214,-2.188 1.172,-2.443 1.078,-3.009 0.983,-3.573 0.887,-4.138 0.845,-4.386 0.775,-4.781 0.732,-5.017 0.689,-5.251 0.625,-5.594 0.591,-5.779 0.558,-5.964 0.493,-6.312 0.449,-6.555 0.396,-6.839 0.344,-7.124 0.291,-7.408 0.24,-7.675 0.188,-7.942 0.136,-8.209 0.094,-8.423 0.053,-8.623 0.045,-8.655 L 0.031,-8.714 Z m 7.6,-5.525 -21.362,-0.008 v 0.052 c 0,0.028 0.033,0.211 0.075,0.407 0.042,0.195 0.106,0.507 0.144,0.692 0.038,0.185 0.102,0.499 0.143,0.699 0.1,0.486 0.199,0.973 0.297,1.459 0.038,0.193 0.102,0.507 0.142,0.699 0.052,0.246 0.103,0.491 0.152,0.737 0.044,0.213 0.11,0.539 0.147,0.724 0.037,0.184 0.096,0.469 0.132,0.633 0.035,0.164 0.08,0.384 0.099,0.492 0.02,0.106 0.083,0.421 0.141,0.698 0.049,0.232 0.097,0.465 0.142,0.697 0.02,0.108 0.084,0.421 0.143,0.698 0.058,0.278 0.122,0.592 0.142,0.699 0.02,0.106 0.085,0.421 0.143,0.698 0.059,0.277 0.122,0.586 0.141,0.684 0.018,0.1 0.07,0.356 0.114,0.57 0.044,0.213 0.127,0.614 0.185,0.891 0.057,0.278 0.156,0.761 0.219,1.074 0.063,0.312 0.138,0.685 0.167,0.827 0.085,0.418 0.171,0.837 0.258,1.254 0.043,0.207 0.112,0.544 0.155,0.75 0.042,0.206 0.107,0.526 0.145,0.711 0.037,0.185 0.101,0.493 0.142,0.685 0.04,0.192 0.11,0.53 0.154,0.75 0.045,0.22 0.12,0.558 0.167,0.749 0.047,0.193 0.113,0.425 0.147,0.518 0.034,0.093 0.128,0.293 0.209,0.445 l 0.148,0.277 0.134,0.175 c 0.073,0.097 0.204,0.249 0.292,0.339 0.086,0.09 0.233,0.225 0.326,0.3 0.092,0.075 0.226,0.177 0.297,0.226 0.071,0.049 0.211,0.134 0.31,0.19 0.1,0.057 0.239,0.129 0.311,0.163 0.07,0.033 0.216,0.095 0.322,0.136 0.107,0.041 0.311,0.11 0.453,0.153 0.142,0.043 0.409,0.108 0.593,0.145 0.184,0.036 0.475,0.085 0.647,0.108 L -4.786,7.999 16.59,8.007 37.966,8.015 V 7.964 C 37.966,7.936 37.932,7.752 37.89,7.557 37.837,7.309 37.786,7.061 37.734,6.812 37.691,6.599 37.626,6.291 37.592,6.127 37.544,5.895 37.496,5.662 37.449,5.429 37.404,5.209 37.334,4.871 37.294,4.68 37.255,4.487 37.191,4.173 37.152,3.981 37.114,3.789 37.048,3.475 37.009,3.283 36.962,3.06 36.917,2.835 36.871,2.61 36.834,2.433 36.77,2.113 36.726,1.899 36.683,1.687 36.613,1.349 36.571,1.15 36.529,0.951 36.465,0.643 36.429,0.465 36.393,0.287 36.328,-0.033 36.285,-0.246 36.242,-0.459 36.171,-0.797 36.129,-0.996 36.087,-1.195 36.026,-1.497 35.991,-1.668 35.895,-2.143 35.799,-2.616 35.702,-3.09 35.667,-3.261 35.605,-3.563 35.563,-3.763 35.51,-4.017 35.458,-4.271 35.406,-4.525 c -0.045,-0.221 -0.11,-0.535 -0.143,-0.699 -0.034,-0.163 -0.097,-0.471 -0.14,-0.684 -0.051,-0.25 -0.103,-0.5 -0.155,-0.75 -0.041,-0.199 -0.105,-0.514 -0.142,-0.698 -0.038,-0.185 -0.104,-0.505 -0.146,-0.711 -0.043,-0.206 -0.112,-0.543 -0.154,-0.75 -0.042,-0.206 -0.106,-0.515 -0.141,-0.685 -0.048,-0.232 -0.094,-0.466 -0.142,-0.698 -0.051,-0.249 -0.103,-0.498 -0.157,-0.747 l -0.078,-0.36 -0.092,-0.248 c -0.051,-0.136 -0.128,-0.318 -0.17,-0.403 -0.043,-0.086 -0.13,-0.236 -0.194,-0.335 -0.063,-0.099 -0.152,-0.225 -0.197,-0.281 -0.045,-0.056 -0.18,-0.199 -0.3,-0.321 l -0.218,-0.218 -0.21,-0.15 c -0.115,-0.082 -0.239,-0.165 -0.276,-0.184 -0.036,-0.021 -0.175,-0.092 -0.309,-0.158 -0.133,-0.067 -0.322,-0.152 -0.418,-0.189 -0.097,-0.037 -0.29,-0.101 -0.427,-0.141 -0.138,-0.04 -0.285,-0.08 -0.328,-0.087 -0.042,-0.008 -0.191,-0.04 -0.329,-0.069 -0.138,-0.029 -0.417,-0.073 -0.621,-0.097 L 29.55,-14.231 8.188,-14.239 Z" /></g><g
           transform="translate(56.9997,396.9998)"
           id="g320"><path
             id="path322"
             style="fill:#e5e5e5;fill-opacity:1;fill-rule:nonzero;stroke:none"
             d="m 0,0 h -53 c -1.657,0 -3,1.343 -3,3 v 28 c 0,1.657 1.343,3 3,3 H 0 c 1.657,0 3,-1.343 3,-3 V 3 C 3,1.343 1.657,0 0,0" /></g><g
           transform="translate(13.5002,416.9998)"
           id="g324"><path
             id="path326"
             style="fill:#999999;fill-opacity:1;fill-rule:nonzero;stroke:none"
             d="m 0,0 h -6 c -0.829,0 -1.5,0.672 -1.5,1.5 v 6 C -7.5,8.329 -6.829,9 -6,9 H 0 C 0.828,9 1.5,8.329 1.5,7.5 v -6 C 1.5,0.672 0.828,0 0,0" /></g><g
           transform="translate(33.4997,402.9998)"
           id="g328"><path
             id="path330"
             style="fill:#999999;fill-opacity:1;fill-rule:nonzero;stroke:none"
             d="m 0,0 h -26 c -0.828,0 -1.5,0.672 -1.5,1.5 0,0.829 0.672,1.5 1.5,1.5 H 0 C 0.829,3 1.5,2.329 1.5,1.5 1.5,0.672 0.829,0 0,0" /></g><g
           transform="translate(53.4997,419.9998)"
           id="g332"><path
             id="path334"
             style="fill:#999999;fill-opacity:1;fill-rule:nonzero;stroke:none"
             d="m 0,0 h -26 c -0.828,0 -1.5,0.672 -1.5,1.5 0,0.829 0.672,1.5 1.5,1.5 H 0 C 0.829,3 1.5,2.329 1.5,1.5 1.5,0.672 0.829,0 0,0" /></g><g
           transform="translate(14.3,408.9998)"
           id="g336"><path
             id="path338"
             style="fill:#999999;fill-opacity:1;fill-rule:nonzero;stroke:none"
             d="m 0,0 h -6.8 c -0.828,0 -1.5,0.672 -1.5,1.5 0,0.829 0.672,1.5 1.5,1.5 H 0 C 0.829,3 1.5,2.329 1.5,1.5 1.5,0.672 0.829,0 0,0" /></g><g
           transform="translate(27.3669,408.9998)"
           id="g340"><path
             id="path342"
             style="fill:#999999;fill-opacity:1;fill-rule:nonzero;stroke:none"
             d="m 0,0 h -6.8 c -0.828,0 -1.5,0.672 -1.5,1.5 0,0.829 0.672,1.5 1.5,1.5 H 0 C 0.828,3 1.5,2.329 1.5,1.5 1.5,0.672 0.828,0 0,0" /></g><g
           transform="translate(40.4333,408.9998)"
           id="g344"><path
             id="path346"
             style="fill:#999999;fill-opacity:1;fill-rule:nonzero;stroke:none"
             d="m 0,0 h -6.8 c -0.828,0 -1.5,0.672 -1.5,1.5 0,0.829 0.672,1.5 1.5,1.5 H 0 C 0.828,3 1.5,2.329 1.5,1.5 1.5,0.672 0.828,0 0,0" /></g><g
           transform="translate(53.4997,408.9998)"
           id="g348"><path
             id="path350"
             style="fill:#999999;fill-opacity:1;fill-rule:nonzero;stroke:none"
             d="m 0,0 h -6.8 c -0.828,0 -1.5,0.672 -1.5,1.5 0,0.829 0.672,1.5 1.5,1.5 H 0 C 0.829,3 1.5,2.329 1.5,1.5 1.5,0.672 0.829,0 0,0" /></g></g></g></g></svg>