<svg fill="none" height="25" viewBox="0 0 184 25" width="184" xmlns="http://www.w3.org/2000/svg"><g fill="#000"><path d="m.0199331 20.8348 3.6571569-20.201492c.06281-.420454.33806-.633308.76564-.633308h12.77397c.4904 0 .739.300887.6441.752874l-.5225 2.839376c-.0628.39417-.338.63331-.7656.63331h-8.50487l-.79771 4.38059h7.73788c.4904 0 .7389.30089.6441.75288l-.4904 2.77757c-.0628.4205-.3381.6334-.7657.6334h-7.8648l-1.47248 8.1857c-.0628.4204-.33806.6333-.76564.6333h-3.629102c-.490383 0-.7389147-.3009-.6440449-.7529zm15.0802669-3.1705c0-3.9247 4.2384-5.253 8.6893-5.7668.5224-.0617.9233-.088 2.8875-.2391.0628-.3942.0895-.7266.0895-1.059 0-1.39016-.7656-2.17457-2.365-2.17457-1.383 0-2.3023.57156-2.7339 1.69237-.1537.3941-.4009.5755-.7977.5755h-3.1307c-.4009 0-.6761-.1814-.6761-.5138 0-.0933.032-.18131.0628-.27065.9821-2.83938 3.7159-4.65127 7.802-4.65127s6.3242 1.511 6.3242 5.16502c0 .695-.0895 1.5727-.2472 2.3874l-.8284 4.4068c-.1844 1.0275-.4597 2.595-.4597 3.6541 0 .5452-.2472.7265-.7068.7265h-2.8555c-.4275 0-.6761-.2128-.6761-.6017 0-.3627.0895-.7844.1537-1.1786-1.1665 1.147-2.6711 2.0812-5.3421 2.0812-3.1614 0-5.1885-1.5412-5.1885-4.2255v-.0092zm11.2027-2.5648.1215-.5452-.8284.088c-1.6582.1813-5.2833.4257-5.2833 2.5648 0 1.1155.8284 1.6607 2.1486 1.6607 2.4546 0 3.3472-1.6607 3.8375-3.7735l.0041.0039zm5.4409 2.8959c-.0895-.3626-.1536-.6333-.1536-.9342 0-.5137.2752-.6648.7068-.6648h3.5316c.4276 0 .644.2128.7389.6333.338 1.1786 1.3509 1.6923 2.8554 1.6923 1.7211 0 2.639-.6951 2.639-1.599 0-.7844-.9233-1.1471-2.4546-1.5991l-1.8105-.5453c-2.6083-.7844-4.7609-1.6923-4.7609-4.5001 0-3.41094 3.2831-5.28459 7.6163-5.28459 3.3779 0 6.1438.87639 6.9416 4.22556.032.1511.0628.30089.0628.48221 0 .30092-.2753.42042-.7069.42042h-3.3472c-.4008 0-.6119-.1813-.7977-.57547-.3687-.7844-1.1985-1.26661-2.5173-1.26661-1.5367 0-2.3023.57549-2.3023 1.39012 0 .81466.7389 1.17856 2.8554 1.81186l1.1986.3627c2.7659.8461 5.0668 1.8421 5.0668 4.3806 0 3.6855-3.3779 5.6157-7.9864 5.6157-3.5623 0-6.6622-.996-7.3691-4.0482h-.0093zm17.3198.9657c0-.5715.0895-1.0275.1844-1.5412l1.5045-8.27373h-1.6569c-.4903 0-.7389-.30088-.644-.75287l.3688-2.02475c.0628-.39417.338-.6333.7656-.6333h1.7798l.6441-3.65401c.0628-.42045.338-.6333.7656-.6333h3.3779c.4904 0 .7389.30088.6441.75287l-.6441 3.53444h2.1486c.4917 0 .7389.30088.6441.75681l-.3688 2.02475c-.0628.39417-.3381.63331-.7657.63331h-2.2702l-.9821 5.40418c-.1844 1.0274-.338 1.8118-.338 2.4452 0 .9959.338 1.3283 1.0449 1.3283.2752 0 .5224-.0315.7068-.0315.4904 0 .6441.3626.5545.8146l-.338 1.9617c-.1216.7568-.5853.8764-1.689.8764-2.8875 0-5.4369-.1511-5.4369-2.9892zm8.887 1.8737 3.6264-20.201492c.0628-.420454.3381-.633308.7657-.633308h3.3779c.4917 0 .7389.300887.644.752874l-3.6532 20.201426c-.0628.4205-.338.6334-.7656.6334h-3.3472c-.4917 0-.7389-.3009-.644-.7529zm7.0003-3.1705c0-3.9247 4.2384-5.253 8.6893-5.7668.5224-.0617.9233-.088 2.8875-.2391.0628-.3942.0895-.7266.0895-1.059 0-1.39016-.7656-2.17457-2.365-2.17457-1.383 0-2.301.57156-2.7339 1.69237-.1537.3941-.4009.5755-.7977.5755h-3.1307c-.4009 0-.6761-.1814-.6761-.5138 0-.0933.032-.18131.0628-.27065.9821-2.83938 3.7159-4.65127 7.802-4.65127s6.3242 1.511 6.3242 5.16502c0 .695-.0895 1.5727-.2485 2.3874l-.8285 4.4068c-.1844 1.0275-.4596 2.595-.4596 3.6541 0 .5452-.2472.7265-.7069.7265h-2.8567c-.4276 0-.6748-.2128-.6748-.6017 0-.3627.0895-.7844.1523-1.1786-1.1665 1.147-2.671 2.0812-5.3421 2.0812-3.1628 0-5.1898-1.5412-5.1898-4.2255v-.0092zm10.9314-2.5648.1216-.5452-.8284.088c-1.6569.1813-5.2833.4257-5.2833 2.5648 0 1.1155.8284 1.6607 2.1486 1.6607 2.4545 0 3.3471-1.6607 3.8375-3.7735l.004.0039zm5.5051 5.7353 2.5802-14.46625c.0628-.4257.3381-.6333.7657-.6333h3.1614c.4904 0 .7068.30088.612.75681l-.2472 1.41772c.7963-1.11552 2.5174-2.53849 5.3421-2.53849 3.0719 0 4.8517 1.87365 4.8517 4.80101 0 .5716-.0628 1.1471-.1844 1.8422l-1.6262 8.9385c-.0628.4205-.338.6333-.7656.6333h-3.3779c-.4904 0-.7389-.3009-.644-.7528l1.2573-6.9139c.1844-1.0274.2472-1.8119.2472-2.3874 0-1.62921-.612-2.50691-2.1165-2.50691-1.9963 0-3.1935 1.54121-3.716 4.43841l-1.3522 7.4893c-.0628.4205-.3381.6333-.7656.6333h-3.3779c-.4918 0-.7389-.3009-.6441-.7528zm17.9371-6.0099c0-5.0717 3.5315-9.48251 9.6755-9.48251 4.761 0 7.675 2.59498 7.675 7.27781 0 .5452-.031 1.0275-.09 1.511-.062.4257-.338.6333-.765.6333h-11.64c.063 2.2363 1.104 3.5922 3.468 3.5922 1.198 0 2.027-.4204 2.703-1.0853.243-.2706.491-.3941.86-.3941h3.716c.428 0 .676.1195.676.4257 0 .088-.032.2128-.152.4204-1.567 2.6581-4.085 4.4069-8.167 4.4069-4.666 0-7.9542-2.507-7.9542-7.308l-.004.0039zm12.4355-2.9905c0-1.93141-1.075-3.14021-3.161-3.14021-2.243 0-3.594 1.51101-3.959 3.14021h7.126-.004z"/><path d="m161.177 14.9718-2.018 3.3491-1.025-3.3229c-.032-.1077-.135-.1826-.248-.1826h-1.819c-.132 0-.227.1275-.187.2523l1.835 5.5959-1.66 2.6371c-.08.1274.012.293.166.293h1.962c.114 0 .217-.0578.276-.1537l5.122-8.3329c.08-.1275-.015-.2904-.169-.2904h-1.96c-.109-.0026-.215.0552-.274.1537zm-28.981 9.0831c-.18 0-.276-.0815-.276-.2168 0-.0408.013-.0946.041-.1498l.885-2.0786-2.613-6.7128c-.041-.1091-.069-.163-.069-.2444 0-.1354.111-.1761.29-.1761h.939c.181 0 .305.0946.36.2589l1.257 3.629c.235.6793.401 1.1418.58 1.712h.028c.235-.6661.359-1.0603.608-1.7527l1.285-3.5883c.07-.1761.193-.2589.373-.2589h.843c.181 0 .305.0539.305.1905 0 .0539-.028.1222-.07.2168l-3.621 8.9281c-.069.1629-.18.2444-.359.2444h-.788zm-5.477-2.2836c-1.244 0-2.045-.544-2.46-1.1681v.6924c0 .2037-.111.3128-.318.3128h-.677c-.207 0-.318-.1091-.318-.3128v-9.0923c0-.2036.111-.3127.318-.3127h.773c.208 0 .318.1091.318.3127v1.7804c0 .4888 0 .8974-.013 1.3993.414-.5847 1.216-1.1273 2.364-1.1273 2.059 0 3.386 1.603 3.386 3.7643 0 2.1614-1.383 3.7513-3.373 3.7513zm-.275-1.1287c1.354 0 2.142-1.0327 2.142-2.6094s-.802-2.6226-2.155-2.6226c-1.354 0-2.156 1.1011-2.156 2.6226s.802 2.6094 2.17 2.6094zm17.203-2.1469c1.874 0 3.463-1.3442 3.751-3.1626.293-1.8356-1.166-3.4359-3.231-3.4412h-3.331c-.127 0-.236.0933-.256.2181l-1.486 9.2671c-.024.1458.088.2733.239.2733h1.764c.127 0 .236-.0933.256-.2181l.437-2.7211c.022-.1249.13-.2181.257-.2181h1.6zm1.474-3.248c-.109.6793-.641 1.1786-1.662 1.1786h-1.305l.395-2.4689h1.281c1.057 0 1.401.6123 1.291 1.289zm9.912-.4336h-1.671c-.127 0-.237.0933-.257.2181l-.056.3429s-1.299-1.394-3.597-.4533c-1.318.5401-1.952 1.6582-2.221 2.4715 0 0-.856 2.4859 1.077 3.8511 0 0 1.793 1.3126 3.814-.0815l-.035.2181c-.024.1459.088.2733.239.2733h1.672c.127 0 .236-.0932.256-.2181l1.02-6.3462c.024-.1458-.089-.2759-.24-.2759zm-2.457 3.5055c-.144.9092-.905 1.5793-1.879 1.5793-.192 0-.369-.0262-.526-.0748-.72-.23-1.133-.9093-1.016-1.6503.145-.9093.906-1.5794 1.882-1.5794.192 0 .37.0263.526.0763.724.2299 1.132.9118 1.013 1.6502zm15.163.1761c1.873 0 3.462-1.3442 3.751-3.1626.292-1.8356-1.167-3.4359-3.231-3.4412h-3.329c-.127 0-.235.0933-.256.2181l-1.486 9.2671c-.024.1458.088.2733.239.2733h1.764c.127 0 .236-.0933.256-.2181l.437-2.7211c.022-.1249.13-.2181.257-.2181h1.597v.0026zm1.478-3.248c-.11.6793-.642 1.1786-1.662 1.1786h-1.306l.396-2.4689h1.281c1.054 0 1.399.6123 1.291 1.289zm9.912-.4336h-1.672c-.127 0-.236.0933-.256.2181l-.057.3429s-1.298-1.394-3.597-.4533c-1.317.5401-1.952 1.6582-2.22 2.4715 0 0-.857 2.4859 1.078 3.8511 0 0 1.793 1.3126 3.813-.0815l-.036.2181c-.024.1459.09.2733.24.2733h1.671c.127 0 .237-.0932.257-.2181l1.018-6.3462c.024-.1458-.091-.2759-.239-.2759zm-2.458 3.5055c-.145.9092-.904 1.5793-1.878 1.5793-.191 0-.369-.0262-.525-.0748-.721-.23-1.135-.9093-1.016-1.6503.144-.9093.907-1.5794 1.881-1.5794.193 0 .369.0263.526.0763.72.2299 1.131.9118 1.014 1.6502zm4.339-6.2109-1.486 9.2671c-.024.1458.09.2733.239.2733h1.764c.127 0 .237-.0933.257-.2181l1.486-9.2671c.024-.1458-.089-.2733-.24-.2733h-1.763c-.127 0-.237.0933-.257.2181z"/></g></svg>