<svg height="48" width="48" xmlns="http://www.w3.org/2000/svg" xmlns:xlink="http://www.w3.org/1999/xlink"><radialGradient id="a" cx="605.71429" cy="486.64789" gradientTransform="matrix(.02891661 0 0 .01235294 26.973101 38.470848)" gradientUnits="userSpaceOnUse" r="117.14286" xlink:href="#b"/><linearGradient id="b"><stop offset="0"/><stop offset="1" stop-opacity="0"/></linearGradient><radialGradient id="c" cx="605.71429" cy="486.64789" gradientTransform="matrix(-.0289166 0 0 .01235294 21.026894 38.470848)" gradientUnits="userSpaceOnUse" r="117.14286" xlink:href="#b"/><linearGradient id="d" gradientTransform="matrix(.08449704 0 0 .01235294 -6.539646 38.470822)" gradientUnits="userSpaceOnUse" x1="302.85715" x2="302.85715" y1="366.64789" y2="609.50507"><stop offset="0" stop-opacity="0"/><stop offset=".5"/><stop offset="1" stop-opacity="0"/></linearGradient><linearGradient id="e" gradientTransform="matrix(1.1621621 0 0 .91891888 -3.891894 4.445949)" gradientUnits="userSpaceOnUse" x1="40.290417" x2="40.290417" y1="6.093005" y2="41.843941"><stop offset="0" stop-color="#fff"/><stop offset=".04168307" stop-color="#fff" stop-opacity=".235294"/><stop offset=".96375686" stop-color="#fff" stop-opacity=".156863"/><stop offset="1" stop-color="#fff" stop-opacity=".392157"/></linearGradient><linearGradient id="f" gradientTransform="matrix(1.1500002 0 0 1.1666666 -.150004 17.333333)" gradientUnits="userSpaceOnUse" x1="10" x2="20" y1="-3" y2="12"><stop offset="0" stop-color="#fff"/><stop offset="1" stop-color="#fff" stop-opacity="0"/></linearGradient><linearGradient id="g" gradientTransform="matrix(1.0327681 0 0 .99872074 -1.29134 -5.518882)" gradientUnits="userSpaceOnUse" x1="23.25" x2="23.25" y1="-28.809029" y2="70.294914"><stop offset="0" stop-color="#333"/><stop offset="1" stop-color="#1a1a1a"/></linearGradient><g opacity=".3"><path d="m3.6 43h40.799999v3h-40.799999z" fill="url(#d)"/><path d="m3.6 43.00013v2.999835c-1.4891338.005647-3.6-.672111-3.6-1.500111 0-.827998 1.6617608-1.499723 3.6-1.499724z" fill="url(#c)"/><path d="m44.4 43.00013v2.999835c1.489133.0056 3.6-.672111 3.6-1.500111 0-.827998-1.661761-1.499723-3.6-1.499724z" fill="url(#a)"/></g><rect fill="url(#g)" height="36" rx="3" width="45" x="1.5" y="8.5"/><rect fill="none" height="36" opacity=".5" rx="3" stroke="#000" stroke-linecap="round" stroke-linejoin="round" width="45" x="1.5" y="8.5"/><rect fill="none" height="34" opacity=".25" rx="2" stroke="url(#e)" stroke-linecap="round" stroke-linejoin="round" width="43" x="2.5" y="9.5"/><circle cx="29" cy="26.5" fill="#f79e1b" r="8.5"/><circle cx="19" cy="26.5" fill="#eb001b" r="8.5"/><path d="m24.001953 19.638672a8.5 8.5 0 0 0 -3.501953 6.861328 8.5 8.5 0 0 0 3.498047 6.861328 8.5 8.5 0 0 0 3.501953-6.861328 8.5 8.5 0 0 0 -3.498047-6.861328z" fill="#ff5f00"/><path d="m4.5 8.5c-1.662 0-3 1.338-3 3v17.333984l45-14.980468v-2.353516c0-1.662-1.338-3-3-3z" fill="url(#f)" opacity=".15"/></svg>