<svg height="48" width="48" xmlns="http://www.w3.org/2000/svg" xmlns:xlink="http://www.w3.org/1999/xlink"><radialGradient id="a" cx="605.71429" cy="486.64789" gradientTransform="matrix(.02891661 0 0 .01235294 26.973101 38.470848)" gradientUnits="userSpaceOnUse" r="117.14286" xlink:href="#b"/><linearGradient id="b"><stop offset="0"/><stop offset="1" stop-opacity="0"/></linearGradient><radialGradient id="c" cx="605.71429" cy="486.64789" gradientTransform="matrix(-.0289166 0 0 .01235294 21.026894 38.470848)" gradientUnits="userSpaceOnUse" r="117.14286" xlink:href="#b"/><linearGradient id="d" gradientTransform="matrix(.08449704 0 0 .01235294 -6.539646 38.470822)" gradientUnits="userSpaceOnUse" x1="302.85715" x2="302.85715" y1="366.64789" y2="609.50507"><stop offset="0" stop-opacity="0"/><stop offset=".5"/><stop offset="1" stop-opacity="0"/></linearGradient><linearGradient id="e" gradientTransform="matrix(1.1621621 0 0 .91891888 -3.891894 4.445949)" gradientUnits="userSpaceOnUse" x1="40.290417" x2="40.290417" y1="6.093005" y2="41.843941"><stop offset="0" stop-color="#fff"/><stop offset=".04168307" stop-color="#fff" stop-opacity=".235294"/><stop offset=".96375686" stop-color="#fff" stop-opacity=".156863"/><stop offset="1" stop-color="#fff" stop-opacity=".392157"/></linearGradient><linearGradient id="f" gradientTransform="matrix(1.1500002 0 0 1.1666666 -.150004 17.333333)" gradientUnits="userSpaceOnUse" x1="10" x2="20" y1="-3" y2="12"><stop offset="0" stop-color="#fff"/><stop offset="1" stop-color="#fff" stop-opacity="0"/></linearGradient><linearGradient id="g" gradientTransform="matrix(1.0327681 0 0 .99872074 -1.29134 -5.518882)" gradientUnits="userSpaceOnUse" x1="23.25" x2="23.25" y1="-28.809029" y2="70.294914"><stop offset="0" stop-color="#fafafa"/><stop offset="1" stop-color="#d4d4d4"/></linearGradient><g opacity=".3"><path d="m3.6 43h40.799999v3h-40.799999z" fill="url(#d)"/><path d="m3.6 43.00013v2.999835c-1.4891338.005647-3.6-.672111-3.6-1.500111 0-.827998 1.6617608-1.499723 3.6-1.499724z" fill="url(#c)"/><path d="m44.4 43.00013v2.999835c1.489133.0056 3.6-.672111 3.6-1.500111 0-.827998-1.661761-1.499723-3.6-1.499724z" fill="url(#a)"/></g><rect fill="url(#g)" height="36" rx="3" width="45" x="1.5" y="8.5"/><path d="m27.475443 20.864295c-2.753629 0-4.692373 1.48889-4.704266 3.617636-.0229 1.570584 1.391387 2.442994 2.446851 2.966675 1.078793.535126 1.441801.888964 1.441801 1.365952-.01111.732568-.870527 1.067149-1.673331 1.067149-1.113255 0-1.708744-.174021-2.615238-.581595l-.368344-.176069-.38939 2.454441c.653984.302119 1.858928.575183 3.109869.586933 2.92578 0 4.82904-1.466507 4.851606-3.735024.01111-1.244809-.729823-2.197931-2.336347-2.977346-.975262-.500337-1.573354-.838014-1.573354-1.349945.01138-.465393.504024-.944428 1.604923-.944428.906493-.02322 1.573955.195085 2.07851.416189l.252578.117386.378865-2.358401c-.549994-.221251-1.42609-.469542-2.504733-.469542zm-12.723624.202761-2.731003 7.454039-.299936-1.510017c-.50486-1.744989-2.0848839-3.640716-3.8518157-4.583407l2.4994697 9.561662h2.952008l4.378021-10.922277zm4.072824 0-1.74174 10.932944h2.788888l1.741735-10.932947zm16.143954 0c-.665117 0-1.17062.197406-1.457588.907076l-4.141228 10.025868h2.925698s.48055-1.347397.584086-1.638073h3.583452c.080043.383909.331508 1.638073.331508 1.638073h2.583667l-2.252157-10.932947zm.194708 2.950668.194681.944428s.527305 2.617379.64197 3.164098h-2.315302c.229624-.628201 1.110294-3.057383 1.110294-3.057383-.01165.02322.230647-.644041.368343-1.051143z" fill="#1a1f71" stroke-width="4.429964"/><path d="m9.4860401 21.064985h-4.4862546l-.045918.220956c3.4995626.907437 5.8172515 3.09478 6.7694895 5.72386l-.975263-5.025619c-.160571-.698397-.653984-.896151-1.2620735-.919186z" fill="#f7b600"/><path d="m4.5 8.5c-1.662 0-3 1.338-3 3v4.5h45v-4.5c0-1.662-1.338-3-3-3z" fill="#1a1f71"/><path d="m1.5 37v4.5c0 1.662 1.338 3 3 3h39c1.662 0 3-1.338 3-3v-4.5z" fill="#f7b600"/><rect fill="none" height="34" opacity=".3" rx="2" stroke="url(#e)" stroke-linecap="round" stroke-linejoin="round" width="43" x="2.5" y="9.5"/><path d="m4.5 8.5c-1.662 0-3 1.338-3 3v17.333984l45-14.980468v-2.353516c0-1.662-1.338-3-3-3z" fill="url(#f)" opacity=".3"/><g fill="none"><path d="m1.5 16v21m45 0v-21" opacity=".5" stroke="#555761" stroke-linejoin="round"/><path d="m46.5 16v-4.5c0-1.662-1.338-3-3-3h-39c-1.662 0-3 1.338-3 3v4.5" opacity=".5" stroke="#000948"/><path d="m1.5 37v4.5c0 1.662 1.338 3 3 3h39c1.662 0 3-1.338 3-3v-4.5" opacity=".5" stroke="#ad5f00"/></g></svg>