<svg xmlns="http://www.w3.org/2000/svg" xmlns:xlink="http://www.w3.org/1999/xlink" viewBox="0 0 37 34" fill="#fff" fill-rule="evenodd" stroke="#000" stroke-linecap="round" stroke-linejoin="round"><use xlink:href="#A" x=".5" y=".5"/><symbol id="A" overflow="visible"><g stroke="none"><g fill-rule="nonzero"><path d="M16.164.457s.505 1.077-.213 2.264c-.359.593-9.403 2.518-12.934 7.418-2.161 3.386-5.476 13.185 5.116 19.67 4.755 2.45 6.773 2.378 6.773 2.378s-3.17-2.234-1.153-3.747 4.971-2.234 5.764-4.323c.937.721 2.45 2.234 3.891 2.089-.144-.937-.504-1.297.648-1.441s1.729-.144 1.729-.144-1.081-.865-2.306-.937-3.53-2.45-3.458-3.458c1.513-.865 3.458-2.306 4.611-1.873s2.306 1.153 2.522 1.801c0 .432-.216 1.153.72.576s.721-.937 1.081-1.729.432-.937-.36-1.585-2.666-2.161-4.179-1.729-4.683 1.657-6.268.144c.648-1.441 1.657-3.747 1.153-5.332.937-.72 2.017-1.513 2.161-2.81 1.081-.144 3.386-.793 2.954-1.945S20.916-.537 16.233.472m14.885 11.756c.793-2.089 2.089-5.62.865-5.764s-2.594 3.17-2.954 4.035-1.801 5.188-1.009 5.764 3.098-4.035 3.098-4.035"/><path d="M24.416 6.608c.226-.354.419-.046-.553.026s-2.134.374-2.334.796c-.374.793-.499 2.745-1.904 3.177-.072.504 0 1.657 1.981 1.873s2.053-1.081 3.206-1.045 1.045-.396.648-.721-1.765-2.522-1.765-3.242.468-.468.721-.865M6.727 28.331s-.612-1.621 1.189-2.486 3.422-.18 3.747.432-.54 3.062-3.639 3.098l-1.297-1.045" fill="#da687d"/></g><path d="M31.352 7.629c.03.113.021.231.018.349s-.014.239-.044.358c.008.027-.006.059-.001.086-.029.037-.014.065-.02.098.048.049.11.095.083.156-.019.043-.063.051-.105.072-.029.101-.05.223-.074.335-.007.034-.003.076-.013.107l-.07.223c-.017.068.002.195-.077.202l-.084.204c-.021.012-.033-.008-.05-.001-.022.025-.021.059-.042.08s-.036.012-.048.028c-.026.036-.019.089-.038.137a.34.34 0 0 0-.083.106c-.042.085-.05.193-.115.259-.02.021-.055.026-.072.047s-.033.048-.05.071c-.024.033-.048.075-.07.114l-.238.408c-.012.027-.014.058-.026.084-.027.06-.068.114-.091.168-.037.089-.094.241-.183.318-.011.009-.034.018-.044.03s-.01.041-.023.058c-.006.008-.029.012-.039.022-.015.014-.022.035-.035.046-.031.028-.073.04-.099.069-.02.022-.029.054-.05.081s-.055.056-.079.087c-.072.091-.099.202-.195.245-.028.013-.063.009-.094.017-.027-.025-.006-.059-.012-.084-.004-.016-.021-.028-.025-.042a.55.55 0 0 1-.024-.135c.001-.039.022-.07.027-.116.004-.04-.01-.09-.013-.134-.001-.022.005-.045.004-.069-.001-.038-.005-.058.001-.104.006-.054-.005-.105-.012-.155l.079-.354c.019-.063.052-.171.085-.241l.187-.428c.023-.047.059-.086.082-.133.013-.027.014-.06.028-.088.117-.245.279-.449.401-.701a8.27 8.27 0 0 1 .342-.616l.175-.294c.065-.089.121-.183.168-.282.02-.043.019-.077.072-.079.055-.068.096-.145.153-.203.014-.015.036-.022.053-.036s.028-.041.046-.056c.039-.032.103-.06.147-.12.012-.016.017-.032.029-.049.03-.039.086-.134.13-.145.006-.004.015-.002.024.002" fill="#da687d" opacity=".7"/><path d="M30.894 9.098c.05.139.055.296.067.451-.001.154-.012.33-.052.5.007.035-.011.08-.007.117-.037.054-.021.09-.032.135.052.06.12.115.083.204-.027.061-.081.075-.133.107l-.133.454c-.013.046-.015.101-.032.142l-.115.295c-.03.089-.026.252-.119.267l-.121.263c-.025.016-.037-.009-.058.001-.028.033-.032.077-.057.104-.019.021-.042.016-.057.037-.032.047-.028.114-.052.175a.47.47 0 0 0-.056.064l-.024.036-.011.019-.005.01-.002.005h0l.004-.009v.001.001l-.001.003c-.05.118-.061.262-.137.357-.024.03-.063.042-.082.07s-.036.066-.054.097c-.026.045-.052.103-.075.156l-.257.579c-.014.038-.015.08-.028.117-.03.085-.074.164-.1.241-.045.126-.106.341-.216.459-.013.014-.041.03-.053.047-.016.023-.014.057-.03.082-.008.012-.034.02-.046.035-.018.023-.028.05-.043.067-.036.042-.089.062-.123.104-.026.031-.04.074-.069.113s-.072.08-.103.121l-.132.188c-.043.059-.088.109-.147.136-.036.016-.075.009-.111.018-.025-.034.006-.077.004-.11-.001-.021-.018-.036-.02-.055a.78.78 0 0 1-.003-.172c.008-.049.039-.086.051-.144.009-.051-.002-.115-.002-.17 0-.028.009-.058.011-.087.003-.048-.001-.072.009-.129.012-.066-.002-.134-.009-.195l.091-.458.091-.323.097-.293.103-.306c.025-.068.065-.125.092-.197.015-.041.018-.086.034-.127l.111-.263.122-.24.068-.13.071-.126.136-.259.23-.412.262-.419.242-.386c.06-.084.157-.228.219-.369.025-.056.025-.099.086-.107l.177-.272c.015-.02.041-.032.058-.052s.029-.055.05-.077c.042-.047.12-.092.159-.185.011-.024.014-.047.027-.073.029-.059.079-.2.128-.227.007-.007.016-.007.027-.004" fill="#da687d" opacity=".7"/><g fill-rule="nonzero"><path d="M29.329 10.715s-.576 2.21-.336 4.035l.336-4.035m.684-1.493c-.043-.155-.331 4.285-.247 4.441s.515-3.5.247-4.441"/><g fill="#2d2b2c"><path d="M16.256.729s.336 1.918-2.786 2.927S6.044 5.528 2.874 9.322-.873 19.409 1.289 23.54s7.445 9.27 16.956 9.27S35.31 25.497 35.31 20.454c0-2.642-1.452-2.053-1.954.426-.454 2.237-4.64 10.586-15.16 10.586S2.297 25.077 1.626 19.601 2.483 9.408 8.007 6.575 17.036 4.87 16.268.739m-2.634 14.78s-.624 2.882-3.651 4.275-4.323 2.161-4.755 4.563c1.153-1.921 4.515-2.306 6.388-4.179s2.017-4.659 2.017-4.659"/><path d="M14.451 8.842s2.594 3.362 5.668 1.729 1.489-5.428 1.441-5.668.336 4.227-1.969 4.996-5.14-1.057-5.14-1.057M7.678 28.92s1.633.096 2.834-1.249.528-3.458 2.498-4.227 3.314-.288 3.314-.288-3.506.48-3.795 2.498-.768 2.93-1.537 3.554-1.777.721-1.777.721z"/><path d="M15.086 18.461s2.92-.489 4.251-3.458c1.093-2.438.36-4.539.36-4.539l-1.477.216s.612 1.765.144 3.35-1.549 3.422-3.278 4.431M30.8 11.712c-1.042 2.603-2.577 4.472-2.757 4.372-.324-.181-.026-2.452 1.016-5.055s2.337-4.585 2.817-4.396-.035 2.477-1.077 5.08m1.513-5.224c-1.185-.644-2.64 1.762-3.839 4.563s-1.336 5.06-.415 5.464c1.231.54 2.387-1.606 3.585-4.407s1.729-5.043.668-5.62"/><path d="M10.799 20.61s.744 2.236 4.467 1.777c3.506-.432 5.015-1.783 7.157-3.122 1.537-.961 1.441-.528 1.633-.48s1.057.576 1.969.48c.048.48-.432.096-.624.528-.096.288.729 1.644 1.921 1.441 1.969-.336 1.417-1.153 1.801-2.065s.648-1.393-1.273-2.69c-1.489-1.345-2.306-1.009-3.026-1.009s-2.594 1.009-3.891.769-2.114-.721-2.114-.721l-.865.961s1.585 1.201 3.41.768 3.17-1.825 4.755-1.105 1.894 1.203 2.378 1.561c.552.408.6.841.216 1.225s0 .673-.24 1.105-1.441.624-1.441.624 1.317-1.692-.288-1.825c-1.153-.096-1.873-1.633-3.506-.817-2.345 1.173-5.668 3.17-7.974 3.41-2.247.234-3.074-.48-3.651-1.825-.672.576-.817 1.009-.817 1.009"/><path d="M19.062 21.091s1.633.865 1.153 2.738-2.642 3.17-4.035 3.795-2.431 1.45-1.393 1.969c.865.432 1.345-.673 2.594-.865s2.354.288 2.45 1.009c-.528-.288-.913-.288-.913-.288s.432.288.48.769-.048.24-.336.24c-.72 0-.817-.624-1.441-.528-1.585.144-1.681.817-2.546.913s-2.306-.384-2.114-1.489 1.681-1.873 3.074-2.45 3.506-2.402 3.218-4.035-1.537-1.297-1.537-1.297zm4.095-13.599s.684.342 1.117 2.071c.288.624.672 1.129 1.009 1.273s-.144.288-.384.24-.745-.264-1.081.024-1.153 1.057-2.306.865-2.137-.925-2.137-.925.432 1.909 3.002 1.789c1.781-.083 1.393-1.009 2.594-1.201s1.073-.8.817-1.297c-.408-.793-1.681-.985-1.825-3.302-.144-.24-1.045.03-.805.462m4.106 12.053c.108.106-.851 2.267-.851 2.267s-.192.528-.707.342c-.526-.191-.39-.573-.39-.573l1.227-2.222.722.185m1.35-3.077l-.24.72-.785-.6.209-.456z"/><path d="M19.83 20.658c-.144.528 1.681 3.603 2.93 3.41s1.441.192 1.057.432-1.057.336-.961.673.36.673-.264.576-1.897-.769-2.666-2.066l-.336 1.009s2.45 2.546 4.947 1.489c-.432-.336-1.633-.24-.624-.817s1.777-.768 2.258.144c.24-.048.24-2.162-2.93-2.017-1.105-.144-2.594-2.306-2.594-3.41-.288.288-.672.048-.817.576m9.77-10.627s-.63 1.894-.368 3.458l.368-3.458m.645-1.12c-.032-.12-.293 3.297-.231 3.418s.425-2.69.231-3.418m-8.397-1.894s2.714-.24 2.234-1.321C22.632 2.436 19.878.532 14.786.724c2.882-1.153 5.332-1.009 7.685 1.009 1.177 1.009 1.721 2.236 2.143 3.176.673 1.499.476 1.639-.27 2.059-.906.511-2.464.185-2.498.048"/><path d="M22.124 7.431s.747.514 1.333.096c.269-.277.449-.429-.315-.397l-.93-.038c-.644-.132-.632.068-.088.34z"/></g></g></g></symbol></svg>