<svg xmlns="http://www.w3.org/2000/svg" width="74.05" height="95.106" viewBox="0 0 74.05 95.106">
  <g id="icon_default" data-name="icon default" transform="translate(-134.058 -527)">
    <path id="Path_555" data-name="Path 555" d="M196.433,569.2c-1.212,0-1.508.527-1.5,1.8.056,8.18.031,16.361.026,24.542,0,3.876-1.646,5.516-5.552,5.518q-9.164,0-18.326,0t-18.325,0c-3.935,0-5.534-1.6-5.536-5.508,0-8.231-.023-16.462.023-24.693.007-1.153-.255-1.652-1.382-1.652-.065,0-.134,0-.206.006-.835.039-1.67.051-2.507.051-.6,0-1.193-.006-1.789-.012s-1.2-.012-1.8-.012H139.3c-3.736.012-5.234,1.5-5.235,5.226q-.006,21.283,0,42.569c0,3.564,1.5,5.069,5.045,5.07q7.016,0,14.027,0H180.27l8.2,0q7.5,0,15-.009c2.98,0,4.572-1.622,4.579-4.584q.02-7.347.022-14.7c.013-9.694.058-19.389.022-29.084-.011-2.837-1.731-4.437-4.593-4.489-.366-.006-.735-.008-1.1-.008-.546,0-1.092.005-1.638.011s-1.094.01-1.642.01c-.81,0-1.621-.012-2.43-.054-.089,0-.174-.007-.255-.007" fill="#003087"/>
    <path id="Path_556" data-name="Path 556" d="M171.054,547.011a4.859,4.859,0,0,0,5-4.913,4.968,4.968,0,1,0-9.935.1,4.83,4.83,0,0,0,4.938,4.811M170.97,561.5h5.752c3.915,0,4.526-.7,3.5-4.457-1.85-6.737-6.38-9.007-12.106-7.5-3.53.93-6.194,4.9-6.534,9.2-.162,2.045.47,2.735,2.582,2.753,2.27.019,4.54,0,6.81.006m-23.435-12.483q0-8.711,0-17.422c.005-2.975,1.6-4.585,4.561-4.586q19.007-.014,38.014,0c2.873,0,4.521,1.619,4.526,4.486.017,11.918-.011,23.836.035,35.753.006,1.365-.466,1.719-1.758,1.7a55.092,55.092,0,0,0-7.541.26,5.55,5.55,0,0,0-2.985,1.778c-1.336,1.429-2.4,3.115-3.591,4.68a9.478,9.478,0,0,1-15.445-.043c-1.036-1.368-2.107-2.714-3.066-4.135a5.752,5.752,0,0,0-5.168-2.568c-2.019.006-4.04-.056-6.057.02-1.217.046-1.556-.437-1.548-1.6.042-6.11.02-12.22.02-18.331" fill="#0070e0"/>
    <rect id="Rectangle_284" data-name="Rectangle 284" width="10.616" height="5.521" transform="translate(165.758 587.607)" fill="#0070e0"/>
  </g>
</svg>
