<svg width="1em" height="1em" viewBox="0 0 16 16" class="bi bi-backspace-reverse" fill="currentColor" xmlns="http://www.w3.org/2000/svg">
  <path fill-rule="evenodd" d="M9.08 2H2a1 1 0 0 0-1 1v10a1 1 0 0 0 1 1h7.08a1 1 0 0 0 .76-.35L14.682 8 9.839 2.35A1 1 0 0 0 9.08 2zM2 1a2 2 0 0 0-2 2v10a2 2 0 0 0 2 2h7.08a2 2 0 0 0 1.519-.698l4.843-5.651a1 1 0 0 0 0-1.302L10.6 1.7A2 2 0 0 0 9.08 1H2zm7.854 4.146a.5.5 0 0 1 0 .708L7.707 8l2.147 2.146a.5.5 0 0 1-.708.708L7 8.707l-2.146 2.147a.5.5 0 0 1-.708-.708L6.293 8 4.146 5.854a.5.5 0 1 1 .708-.708L7 7.293l2.146-2.147a.5.5 0 0 1 .708 0z"/>
</svg>