<svg width="1em" height="1em" viewBox="0 0 16 16" class="bi bi-battery-charging" fill="currentColor" xmlns="http://www.w3.org/2000/svg">
  <path d="M14.5 9.5a1.5 1.5 0 0 0 0-3v3z"/>
  <path fill-rule="evenodd" d="M9.585 2.568a.5.5 0 0 1 .226.58L8.677 6.832h1.99a.5.5 0 0 1 .364.843l-5.334 5.667a.5.5 0 0 1-.842-.49L5.99 9.167H4a.5.5 0 0 1-.364-.843l5.333-5.667a.5.5 0 0 1 .616-.09z"/>
  <path fill-rule="evenodd" d="M6.332 4H2a2 2 0 0 0-2 2v4a2 2 0 0 0 2 2h2.072l.307-1H2a1 1 0 0 1-1-1V6a1 1 0 0 1 1-1h3.391l.941-1zM4.45 6H2v4h1.313a1.5 1.5 0 0 1-.405-2.361L4.45 6zm.976 5l-.308 1H6.96l.21-.224h.001l.73-.776H6.53l-.085.09.028-.09H5.426zm1.354-1H5.733l.257-.833H4a.5.5 0 0 1-.364-.843l.793-.843L5.823 6h1.373L5.157 8.167h1.51a.5.5 0 0 1 .478.647L6.78 10zm.69 0h1.374l1.394-1.482.793-.842a.5.5 0 0 0-.364-.843h-1.99L8.933 6H7.887l-.166.54-.199.646A.5.5 0 0 0 8 7.833h1.51L7.47 10zm.725-5H9.24l.308-1H7.706l-.942 1h1.374l.085-.09-.028.09zm2.4-1l-.308 1H12a1 1 0 0 1 1 1v4a1 1 0 0 1-1 1H9.276l-.942 1H12a2 2 0 0 0 2-2V6a2 2 0 0 0-2-2h-1.405zm-.378 6H12V8.02a1.499 1.499 0 0 1-.241.341L10.217 10zM12 6.646V6h-.646a1.5 1.5 0 0 1 .646.646z"/>
</svg>