<svg width="1em" height="1em" viewBox="0 0 16 16" class="bi bi-blockquote-left" fill="currentColor" xmlns="http://www.w3.org/2000/svg">
  <path fill-rule="evenodd" d="M2 3.5a.5.5 0 0 1 .5-.5h11a.5.5 0 0 1 0 1h-11a.5.5 0 0 1-.5-.5zm5 3a.5.5 0 0 1 .5-.5h6a.5.5 0 0 1 0 1h-6a.5.5 0 0 1-.5-.5zm0 3a.5.5 0 0 1 .5-.5h6a.5.5 0 0 1 0 1h-6a.5.5 0 0 1-.5-.5zm-5 3a.5.5 0 0 1 .5-.5h11a.5.5 0 0 1 0 1h-11a.5.5 0 0 1-.5-.5z"/>
  <path d="M3.734 6.352a6.586 6.586 0 0 0-.445.275 1.94 1.94 0 0 0-.346.299 1.38 1.38 0 0 0-.252.369c-.058.129-.1.295-.123.498h.282c.242 0 .431.06.568.182.14.117.21.29.21.521a.697.697 0 0 1-.187.463c-.12.14-.289.21-.503.21-.336 0-.577-.108-.721-.327C2.072 8.619 2 8.328 2 7.969c0-.254.055-.485.164-.692.11-.21.242-.398.398-.562.16-.168.33-.31.51-.428.18-.117.33-.213.451-.287l.211.352zm2.168 0a6.588 6.588 0 0 0-.445.275 1.94 1.94 0 0 0-.346.299c-.113.12-.199.246-.257.375a1.75 1.75 0 0 0-.118.492h.282c.242 0 .431.06.568.182.14.117.21.29.21.521a.697.697 0 0 1-.187.463c-.12.14-.289.21-.504.21-.335 0-.576-.108-.72-.327-.145-.223-.217-.514-.217-.873 0-.254.055-.485.164-.692.11-.21.242-.398.398-.562.16-.168.33-.31.51-.428.18-.117.33-.213.451-.287l.211.352z"/>
</svg>