<svg width="1em" height="1em" viewBox="0 0 16 16" class="bi bi-briefcase-fill" fill="currentColor" xmlns="http://www.w3.org/2000/svg">
  <path fill-rule="evenodd" d="M0 12.5A1.5 1.5 0 0 0 1.5 14h13a1.5 1.5 0 0 0 1.5-1.5V6.85L8.129 8.947a.5.5 0 0 1-.258 0L0 6.85v5.65z"/>
  <path fill-rule="evenodd" d="M0 4.5A1.5 1.5 0 0 1 1.5 3h13A1.5 1.5 0 0 1 16 4.5v1.384l-7.614 2.03a1.5 1.5 0 0 1-.772 0L0 5.884V4.5zm5-2A1.5 1.5 0 0 1 6.5 1h3A1.5 1.5 0 0 1 11 2.5V3h-1v-.5a.5.5 0 0 0-.5-.5h-3a.5.5 0 0 0-.5.5V3H5v-.5z"/>
</svg>