<svg width="1em" height="1em" viewBox="0 0 16 16" class="bi bi-emoji-wink" fill="currentColor" xmlns="http://www.w3.org/2000/svg">
  <path fill-rule="evenodd" d="M8 15A7 7 0 1 0 8 1a7 7 0 0 0 0 14zm0 1A8 8 0 1 0 8 0a8 8 0 0 0 0 16z"/>
  <path fill-rule="evenodd" d="M4.285 9.567a.5.5 0 0 1 .683.183A3.498 3.498 0 0 0 8 11.5a3.498 3.498 0 0 0 3.032-1.75.5.5 0 1 1 .866.5A4.498 4.498 0 0 1 8 12.5a4.498 4.498 0 0 1-3.898-2.25.5.5 0 0 1 .183-.683z"/>
  <path d="M7 6.5C7 7.328 6.552 8 6 8s-1-.672-1-1.5S5.448 5 6 5s1 .672 1 1.5z"/>
  <path fill-rule="evenodd" d="M8.757 6.063a.5.5 0 0 1 .68.194.934.934 0 0 0 .813.493c.339 0 .645-.19.813-.493a.5.5 0 1 1 .874.486A1.934 1.934 0 0 1 10.25 7.75c-.73 0-1.356-.412-1.687-1.007a.5.5 0 0 1 .194-.68z"/>
</svg>