<svg width="1em" height="1em" viewBox="0 0 16 16" class="bi bi-file-earmark-richtext-fill" fill="currentColor" xmlns="http://www.w3.org/2000/svg">
  <path fill-rule="evenodd" d="M2 2a2 2 0 0 1 2-2h5.293A1 1 0 0 1 10 .293L13.707 4a1 1 0 0 1 .293.707V14a2 2 0 0 1-2 2H4a2 2 0 0 1-2-2V2zm7.5 1.5v-2l3 3h-2a1 1 0 0 1-1-1zM7 6.25a.75.75 0 1 1-1.5 0 .75.75 0 0 1 1.5 0zm-.861 1.542l1.33.886 1.854-1.855a.25.25 0 0 1 .289-.047l1.888.974V9.5a.5.5 0 0 1-.5.5H5a.5.5 0 0 1-.5-.5V9s1.54-1.274 1.639-1.208zM5 11a.5.5 0 0 0 0 1h6a.5.5 0 0 0 0-1H5zm0 2a.5.5 0 0 0 0 1h3a.5.5 0 0 0 0-1H5z"/>
</svg>