<svg width="1em" height="1em" viewBox="0 0 16 16" class="bi bi-file-ppt" fill="currentColor" xmlns="http://www.w3.org/2000/svg">
  <path fill-rule="evenodd" d="M4 0h8a2 2 0 0 1 2 2v12a2 2 0 0 1-2 2H4a2 2 0 0 1-2-2V2a2 2 0 0 1 2-2zm0 1a1 1 0 0 0-1 1v12a1 1 0 0 0 1 1h8a1 1 0 0 0 1-1V2a1 1 0 0 0-1-1H4z"/>
  <path fill-rule="evenodd" d="M6 4a.5.5 0 0 1 .5.5V12a.5.5 0 0 1-1 0V4.5A.5.5 0 0 1 6 4z"/>
  <path fill-rule="evenodd" d="M8.5 5a2 2 0 1 0 0 4 2 2 0 0 0 0-4zm-3 2a3 3 0 1 1 6 0 3 3 0 0 1-6 0z"/>
</svg>