<svg width="1em" height="1em" viewBox="0 0 16 16" class="bi bi-file-excel" fill="currentColor" xmlns="http://www.w3.org/2000/svg">
  <path fill-rule="evenodd" d="M4 0h8a2 2 0 0 1 2 2v12a2 2 0 0 1-2 2H4a2 2 0 0 1-2-2V2a2 2 0 0 1 2-2zm0 1a1 1 0 0 0-1 1v12a1 1 0 0 0 1 1h8a1 1 0 0 0 1-1V2a1 1 0 0 0-1-1H4z"/>
  <path fill-rule="evenodd" d="M5.18 4.616a.5.5 0 0 1 .704.064L8 7.219l2.116-2.54a.5.5 0 1 1 .768.641L8.651 8l2.233 2.68a.5.5 0 0 1-.768.64L8 8.781l-2.116 2.54a.5.5 0 0 1-.768-.641L7.349 8 5.116 5.32a.5.5 0 0 1 .064-.704z"/>
</svg>