<svg width="1em" height="1em" viewBox="0 0 16 16" class="bi bi-file-earmark-post" fill="currentColor" xmlns="http://www.w3.org/2000/svg">
  <path d="M4 0h5.5v1H4a1 1 0 0 0-1 1v12a1 1 0 0 0 1 1h8a1 1 0 0 0 1-1V4.5h1V14a2 2 0 0 1-2 2H4a2 2 0 0 1-2-2V2a2 2 0 0 1 2-2z"/>
  <path d="M9.5 3V0L14 4.5h-3A1.5 1.5 0 0 1 9.5 3zM4 6.5a.5.5 0 0 1 .5-.5h7a.5.5 0 0 1 .5.5v7a.5.5 0 0 1-.5.5h-7a.5.5 0 0 1-.5-.5v-7z"/>
  <path fill-rule="evenodd" d="M4 3.5a.5.5 0 0 1 .5-.5H7a.5.5 0 0 1 0 1H4.5a.5.5 0 0 1-.5-.5z"/>
</svg>