<svg width="1em" height="1em" viewBox="0 0 16 16" class="bi bi-file-earmark-word-fill" fill="currentColor" xmlns="http://www.w3.org/2000/svg">
  <path fill-rule="evenodd" d="M2 2a2 2 0 0 1 2-2h5.293A1 1 0 0 1 10 .293L13.707 4a1 1 0 0 1 .293.707V14a2 2 0 0 1-2 2H4a2 2 0 0 1-2-2V2zm7.5 1.5v-2l3 3h-2a1 1 0 0 1-1-1zM5.485 6.879a.5.5 0 1 0-.97.242l1.5 6a.5.5 0 0 0 .967.01L8 9.402l1.018 3.73a.5.5 0 0 0 .967-.01l1.5-6a.5.5 0 0 0-.97-.242l-1.036 4.144-.997-3.655a.5.5 0 0 0-.964 0l-.997 3.655L5.485 6.88z"/>
</svg>