<svg width="1em" height="1em" viewBox="0 0 16 16" class="bi bi-file-earmark-word" fill="currentColor" xmlns="http://www.w3.org/2000/svg">
  <path d="M4 0h5.5v1H4a1 1 0 0 0-1 1v12a1 1 0 0 0 1 1h8a1 1 0 0 0 1-1V4.5h1V14a2 2 0 0 1-2 2H4a2 2 0 0 1-2-2V2a2 2 0 0 1 2-2z"/>
  <path d="M9.5 3V0L14 4.5h-3A1.5 1.5 0 0 1 9.5 3z"/>
  <path fill-rule="evenodd" d="M4.879 6.515a.5.5 0 0 1 .606.364l1.036 4.144.997-3.655a.5.5 0 0 1 .964 0l.997 3.655 1.036-4.144a.5.5 0 0 1 .97.242l-1.5 6a.5.5 0 0 1-.967.01L8 9.402l-1.018 3.73a.5.5 0 0 1-.967-.01l-1.5-6a.5.5 0 0 1 .364-.606z"/>
</svg>