<svg width="1em" height="1em" viewBox="0 0 16 16" class="bi bi-file-earmark-bar-graph" fill="currentColor" xmlns="http://www.w3.org/2000/svg">
  <path d="M4 0h5.5v1H4a1 1 0 0 0-1 1v12a1 1 0 0 0 1 1h8a1 1 0 0 0 1-1V4.5h1V14a2 2 0 0 1-2 2H4a2 2 0 0 1-2-2V2a2 2 0 0 1 2-2z"/>
  <path d="M9.5 3V0L14 4.5h-3A1.5 1.5 0 0 1 9.5 3zm-5 11a.5.5 0 0 1-.5-.5v-2a.5.5 0 0 1 .5-.5h1a.5.5 0 0 1 .5.5v2a.5.5 0 0 1-.5.5h-1zm3 0a.5.5 0 0 1-.5-.5v-4a.5.5 0 0 1 .5-.5h1a.5.5 0 0 1 .5.5v4a.5.5 0 0 1-.5.5h-1zm3 0a.5.5 0 0 1-.5-.5v-6a.5.5 0 0 1 .5-.5h1a.5.5 0 0 1 .5.5v6a.5.5 0 0 1-.5.5h-1z"/>
</svg>