<svg width="1em" height="1em" viewBox="0 0 16 16" class="bi bi-file-word" fill="currentColor" xmlns="http://www.w3.org/2000/svg">
  <path fill-rule="evenodd" d="M4 0h8a2 2 0 0 1 2 2v12a2 2 0 0 1-2 2H4a2 2 0 0 1-2-2V2a2 2 0 0 1 2-2zm0 1a1 1 0 0 0-1 1v12a1 1 0 0 0 1 1h8a1 1 0 0 0 1-1V2a1 1 0 0 0-1-1H4z"/>
  <path fill-rule="evenodd" d="M4.879 4.515a.5.5 0 0 1 .606.364l1.036 4.144.997-3.655a.5.5 0 0 1 .964 0l.997 3.655 1.036-4.144a.5.5 0 0 1 .97.242l-1.5 6a.5.5 0 0 1-.967.01L8 7.402l-1.018 3.73a.5.5 0 0 1-.967-.01l-1.5-6a.5.5 0 0 1 .364-.606z"/>
</svg>