<svg width="1em" height="1em" viewBox="0 0 16 16" class="bi bi-file-earmark-zip-fill" fill="currentColor" xmlns="http://www.w3.org/2000/svg">
  <path fill-rule="evenodd" d="M2 2a2 2 0 0 1 2-2h5.293A1 1 0 0 1 10 .293L13.707 4a1 1 0 0 1 .293.707V14a2 2 0 0 1-2 2H4a2 2 0 0 1-2-2V2zm7.5 1.5v-2l3 3h-2a1 1 0 0 1-1-1zm-4-.5V2h-1V1H6v1h1v1H6v1h1v1H6v1h1v1H5.5V6h-1V5h1V4h-1V3h1zm0 4.5a1 1 0 0 0-1 1v.938l-.4 1.599a1 1 0 0 0 .416 1.074l.93.62a1 1 0 0 0 1.109 0l.93-.62a1 1 0 0 0 .415-1.074l-.4-1.599V8.5a1 1 0 0 0-1-1h-1zm0 1.938V8.5h1v.938a1 1 0 0 0 .03.243l.4 1.598-.93.62-.93-.62.4-1.598a1 1 0 0 0 .03-.243z"/>
</svg>