<svg width="1em" height="1em" viewBox="0 0 16 16" class="bi bi-file-medical-fill" fill="currentColor" xmlns="http://www.w3.org/2000/svg">
  <path fill-rule="evenodd" d="M12 0H4a2 2 0 0 0-2 2v12a2 2 0 0 0 2 2h8a2 2 0 0 0 2-2V2a2 2 0 0 0-2-2zM8.5 4.5a.5.5 0 0 0-1 0v.634l-.549-.317a.5.5 0 1 0-.5.866L7 6l-.549.317a.5.5 0 1 0 .5.866l.549-.317V7.5a.5.5 0 1 0 1 0v-.634l.549.317a.5.5 0 1 0 .5-.866L9 6l.549-.317a.5.5 0 1 0-.5-.866l-.549.317V4.5zM5.5 9a.5.5 0 0 0 0 1h5a.5.5 0 0 0 0-1h-5zm0 2a.5.5 0 0 0 0 1h5a.5.5 0 0 0 0-1h-5z"/>
</svg>