<svg width="1em" height="1em" viewBox="0 0 16 16" class="bi bi-handbag" fill="currentColor" xmlns="http://www.w3.org/2000/svg">
  <path fill-rule="evenodd" d="M8 1a2 2 0 0 0-2 2v2h4V3a2 2 0 0 0-2-2zm3 4V3a3 3 0 1 0-6 0v2H3.361a1.5 1.5 0 0 0-1.483 1.277L.85 13.13A2.5 2.5 0 0 0 3.322 16h9.356a2.5 2.5 0 0 0 2.472-2.87l-1.028-6.853A1.5 1.5 0 0 0 12.64 5H11zm-1 1v1.5a.5.5 0 0 0 1 0V6h1.639a.5.5 0 0 1 .494.426l1.028 6.851A1.5 1.5 0 0 1 12.678 15H3.322a1.5 1.5 0 0 1-1.483-1.723l1.028-6.851A.5.5 0 0 1 3.36 6H5v1.5a.5.5 0 0 0 1 0V6h4z"/>
</svg>