<svg width="1em" height="1em" viewBox="0 0 16 16" class="bi bi-journal-richtext" fill="currentColor" xmlns="http://www.w3.org/2000/svg">
  <path d="M3 0h10a2 2 0 0 1 2 2v12a2 2 0 0 1-2 2H3a2 2 0 0 1-2-2v-1h1v1a1 1 0 0 0 1 1h10a1 1 0 0 0 1-1V2a1 1 0 0 0-1-1H3a1 1 0 0 0-1 1v1H1V2a2 2 0 0 1 2-2z"/>
  <path d="M1 5v-.5a.5.5 0 0 1 1 0V5h.5a.5.5 0 0 1 0 1h-2a.5.5 0 0 1 0-1H1zm0 3v-.5a.5.5 0 0 1 1 0V8h.5a.5.5 0 0 1 0 1h-2a.5.5 0 0 1 0-1H1zm0 3v-.5a.5.5 0 0 1 1 0v.5h.5a.5.5 0 0 1 0 1h-2a.5.5 0 0 1 0-1H1z"/>
  <path fill-rule="evenodd" d="M5 11.5a.5.5 0 0 1 .5-.5h2a.5.5 0 0 1 0 1h-2a.5.5 0 0 1-.5-.5zm0-2a.5.5 0 0 1 .5-.5h5a.5.5 0 0 1 0 1h-5a.5.5 0 0 1-.5-.5zm1.639-4.208l1.33.886 1.854-1.855a.25.25 0 0 1 .289-.047L11 4.75V7a.5.5 0 0 1-.5.5h-5A.5.5 0 0 1 5 7v-.5s1.54-1.274 1.639-1.208zM6.75 4.5a.75.75 0 1 0 0-1.5.75.75 0 0 0 0 1.5z"/>
</svg>