<svg width="1em" height="1em" viewBox="0 0 16 16" class="bi bi-life-preserver" fill="currentColor" xmlns="http://www.w3.org/2000/svg">
  <path fill-rule="evenodd" d="M14.43 10.772l-2.788-1.115a4.015 4.015 0 0 1-1.985 1.985l1.115 2.788a7.025 7.025 0 0 0 3.658-3.658zM5.228 14.43l1.115-2.788a4.015 4.015 0 0 1-1.985-1.985L1.57 10.772a7.025 7.025 0 0 0 3.658 3.658zm9.202-9.202a7.025 7.025 0 0 0-3.658-3.658L9.657 4.358a4.015 4.015 0 0 1 1.985 1.985l2.788-1.115zm-8.087-.87L5.228 1.57A7.025 7.025 0 0 0 1.57 5.228l2.788 1.115a4.015 4.015 0 0 1 1.985-1.985zM8 16A8 8 0 1 0 8 0a8 8 0 0 0 0 16zm0-5a3 3 0 1 0 0-6 3 3 0 0 0 0 6z"/>
</svg>