<svg width="1em" height="1em" viewBox="0 0 16 16" class="bi bi-receipt-cutoff" fill="currentColor" xmlns="http://www.w3.org/2000/svg">
  <path fill-rule="evenodd" d="M1.92.506a.5.5 0 0 1 .434.14L3 1.293l.646-.647a.5.5 0 0 1 .708 0L5 1.293l.646-.647a.5.5 0 0 1 .708 0L7 1.293l.646-.647a.5.5 0 0 1 .708 0L9 1.293l.646-.647a.5.5 0 0 1 .708 0l.646.647.646-.647a.5.5 0 0 1 .708 0l.646.647.646-.647a.5.5 0 0 1 .801.13l.5 1A.5.5 0 0 1 15 2v13h-1V2.118l-.137-.274-.51.51a.5.5 0 0 1-.707 0L12 1.707l-.646.647a.5.5 0 0 1-.708 0L10 1.707l-.646.647a.5.5 0 0 1-.708 0L8 1.707l-.646.647a.5.5 0 0 1-.708 0L6 1.707l-.646.647a.5.5 0 0 1-.708 0L4 1.707l-.646.647a.5.5 0 0 1-.708 0l-.509-.51L2 2.118V15H1V2a.5.5 0 0 1 .053-.224l.5-1a.5.5 0 0 1 .367-.27zM0 15.5a.5.5 0 0 1 .5-.5h15a.5.5 0 0 1 0 1H.5a.5.5 0 0 1-.5-.5z"/>
  <path fill-rule="evenodd" d="M3 4.5a.5.5 0 0 1 .5-.5h6a.5.5 0 1 1 0 1h-6a.5.5 0 0 1-.5-.5zm0 2a.5.5 0 0 1 .5-.5h6a.5.5 0 1 1 0 1h-6a.5.5 0 0 1-.5-.5zm0 2a.5.5 0 0 1 .5-.5h6a.5.5 0 1 1 0 1h-6a.5.5 0 0 1-.5-.5zm0 2a.5.5 0 0 1 .5-.5h6a.5.5 0 0 1 0 1h-6a.5.5 0 0 1-.5-.5zm0 2a.5.5 0 0 1 .5-.5h6a.5.5 0 0 1 0 1h-6a.5.5 0 0 1-.5-.5zm8-8a.5.5 0 0 1 .5-.5h1a.5.5 0 0 1 0 1h-1a.5.5 0 0 1-.5-.5zm0 2a.5.5 0 0 1 .5-.5h1a.5.5 0 0 1 0 1h-1a.5.5 0 0 1-.5-.5zm0 2a.5.5 0 0 1 .5-.5h1a.5.5 0 0 1 0 1h-1a.5.5 0 0 1-.5-.5zm0 2a.5.5 0 0 1 .5-.5h1a.5.5 0 0 1 0 1h-1a.5.5 0 0 1-.5-.5zm0 2a.5.5 0 0 1 .5-.5h1a.5.5 0 0 1 0 1h-1a.5.5 0 0 1-.5-.5z"/>
</svg>