<svg width="1em" height="1em" viewBox="0 0 16 16" class="bi bi-server" fill="currentColor" xmlns="http://www.w3.org/2000/svg">
  <path fill-rule="evenodd" d="M1.333 2.667C1.333 1.194 4.318 0 8 0s6.667 1.194 6.667 2.667V4C14.665 5.474 11.68 6.667 8 6.667 4.318 6.667 1.333 5.473 1.333 4V2.667zm0 3.667v3C1.333 10.805 4.318 12 8 12c3.68 0 6.665-1.193 6.667-2.665V6.334c-.43.32-.931.58-1.458.79C11.81 7.684 9.967 8 8 8c-1.967 0-3.81-.317-5.21-.876a6.508 6.508 0 0 1-1.457-.79zm13.334 5.334c-.43.319-.931.578-1.458.789-1.4.56-3.242.876-5.209.876-1.967 0-3.81-.316-5.21-.876a6.51 6.51 0 0 1-1.457-.79v1.666C1.333 14.806 4.318 16 8 16s6.667-1.194 6.667-2.667v-1.665z"/>
</svg>