<svg width="1em" height="1em" viewBox="0 0 16 16" class="bi bi-shield-slash" fill="currentColor" xmlns="http://www.w3.org/2000/svg">
  <path d="M1.357 3.478c-.42 3.969.87 6.928 2.423 8.911a11.192 11.192 0 0 0 2.417 2.3c.371.256.715.451 1.007.586.27.124.558.225.796.225s.527-.101.796-.225c.292-.135.636-.33 1.007-.586.466-.32.983-.74 1.502-1.263l-.707-.707a9.692 9.692 0 0 1-1.362 1.147 5.934 5.934 0 0 1-.857.5c-.116.053-.21.089-.282.11A.73.73 0 0 1 8 14.5c-.007-.001-.038-.005-.097-.023a2.273 2.273 0 0 1-.282-.111 5.934 5.934 0 0 1-.857-.5 10.197 10.197 0 0 1-2.197-2.093C3.262 10.107 2.145 7.672 2.289 4.41l-.932-.932zm11.053 6.81c.971-1.785 1.594-4.15 1.187-7.129a.454.454 0 0 0-.315-.366c-.626-.2-1.682-.526-2.725-.802C9.491 1.71 8.51 1.5 8 1.5c-.51 0-1.49.21-2.557.491a45.4 45.4 0 0 0-1.041.29l-.806-.806a52.727 52.727 0 0 1 1.591-.45C6.23.749 7.337.5 8 .5c.662 0 1.77.249 2.813.525a61.09 61.09 0 0 1 2.772.815c.528.168.926.623 1.003 1.184.458 3.355-.299 6.015-1.444 7.999l-.735-.735z"/>
  <path fill-rule="evenodd" d="M14.646 15.354l-14-14 .708-.708 14 14-.707.707z"/>
</svg>