<svg width="1em" height="1em" viewBox="0 0 16 16" class="bi bi-sort-up-alt" fill="currentColor" xmlns="http://www.w3.org/2000/svg">
  <path fill-rule="evenodd" d="M3 14a.5.5 0 0 0 .5-.5v-10a.5.5 0 0 0-1 0v10a.5.5 0 0 0 .5.5z"/>
  <path fill-rule="evenodd" d="M5.354 5.854a.5.5 0 0 0 0-.708l-2-2a.5.5 0 0 0-.708 0l-2 2a.5.5 0 1 0 .708.708L3 4.207l1.646 1.647a.5.5 0 0 0 .708 0zM7 6.5a.5.5 0 0 0 .5.5h3a.5.5 0 0 0 0-1h-3a.5.5 0 0 0-.5.5zm0 3a.5.5 0 0 0 .5.5h5a.5.5 0 0 0 0-1h-5a.5.5 0 0 0-.5.5zm0 3a.5.5 0 0 0 .5.5h7a.5.5 0 0 0 0-1h-7a.5.5 0 0 0-.5.5zm0-9a.5.5 0 0 0 .5.5h1a.5.5 0 0 0 0-1h-1a.5.5 0 0 0-.5.5z"/>
</svg>