<svg width="1em" height="1em" viewBox="0 0 16 16" class="bi bi-watch" fill="currentColor" xmlns="http://www.w3.org/2000/svg">
  <path fill-rule="evenodd" d="M4 14.333v-1.86A5.985 5.985 0 0 1 2 8c0-1.777.772-3.374 2-4.472V1.667C4 .747 4.746 0 5.667 0h4.666C11.253 0 12 .746 12 1.667v1.86A5.985 5.985 0 0 1 14 8a5.985 5.985 0 0 1-2 4.472v1.861c0 .92-.746 1.667-1.667 1.667H5.667C4.747 16 4 15.254 4 14.333zM13 8A5 5 0 1 0 3 8a5 5 0 0 0 10 0z"/>
  <path d="M13.918 8.993A.502.502 0 0 0 14.5 8.5v-1a.5.5 0 0 0-.582-.493 6.044 6.044 0 0 1 0 1.986z"/>
  <path fill-rule="evenodd" d="M8 4.5a.5.5 0 0 1 .5.5v3a.5.5 0 0 1-.5.5H6a.5.5 0 0 1 0-1h1.5V5a.5.5 0 0 1 .5-.5z"/>
</svg>