<svg width="1em" height="1em" viewBox="0 0 16 16" class="bi bi-calendar-day-fill" fill="currentColor" xmlns="http://www.w3.org/2000/svg">
  <path fill-rule="evenodd" d="M4 .5a.5.5 0 0 0-1 0V1H2a2 2 0 0 0-2 2v1h16V3a2 2 0 0 0-2-2h-1V.5a.5.5 0 0 0-1 0V1H4V.5zM16 14V5H0v9a2 2 0 0 0 2 2h12a2 2 0 0 0 2-2zm-4.785-6.145a.425.425 0 0 1-.43-.425c0-.242.192-.43.43-.43a.428.428 0 1 1 0 .855zm.336.563v4.105h-.672V8.418h.672zm-6.867 4.105v-2.3h2.261v-.61H4.684V7.801h2.464v-.61H4v5.332h.684zm3.296 0h.676V9.98c0-.554.227-1.007.953-1.007.125 0 .258.004.329.015v-.613a1.806 1.806 0 0 0-.254-.02c-.582 0-.891.32-1.012.567h-.02v-.504H7.98v4.105z"/>
</svg>