<svg width="1em" height="1em" viewBox="0 0 16 16" class="bi bi-card-heading" fill="currentColor" xmlns="http://www.w3.org/2000/svg">
  <path fill-rule="evenodd" d="M14.5 3h-13a.5.5 0 0 0-.5.5v9a.5.5 0 0 0 .5.5h13a.5.5 0 0 0 .5-.5v-9a.5.5 0 0 0-.5-.5zm-13-1A1.5 1.5 0 0 0 0 3.5v9A1.5 1.5 0 0 0 1.5 14h13a1.5 1.5 0 0 0 1.5-1.5v-9A1.5 1.5 0 0 0 14.5 2h-13z"/>
  <path fill-rule="evenodd" d="M3 8.5a.5.5 0 0 1 .5-.5h9a.5.5 0 0 1 0 1h-9a.5.5 0 0 1-.5-.5zm0 2a.5.5 0 0 1 .5-.5h6a.5.5 0 0 1 0 1h-6a.5.5 0 0 1-.5-.5z"/>
  <path d="M3 5.5a.5.5 0 0 1 .5-.5h9a.5.5 0 0 1 .5.5v1a.5.5 0 0 1-.5.5h-9a.5.5 0 0 1-.5-.5v-1z"/>
</svg>