<svg width="1em" height="1em" viewBox="0 0 16 16" class="bi bi-emoji-angry-fill" fill="currentColor" xmlns="http://www.w3.org/2000/svg">
  <path fill-rule="evenodd" d="M8 16A8 8 0 1 0 8 0a8 8 0 0 0 0 16zM4.053 4.276a.5.5 0 0 1 .67-.223l2 1a.5.5 0 0 1 .166.76c.071.206.111.44.111.687C7 7.328 6.552 8 6 8s-1-.672-1-1.5c0-.408.109-.778.285-1.049l-1.009-.504a.5.5 0 0 1-.223-.67zm.232 8.157a.5.5 0 0 0 .683-.183A3.498 3.498 0 0 1 8 10.5c1.295 0 2.426.703 3.032 1.75a.5.5 0 1 0 .866-.5A4.498 4.498 0 0 0 8 9.5a4.5 4.5 0 0 0-3.898 2.25.5.5 0 0 0 .183.683zM10 8c.552 0 1-.672 1-1.5 0-.408-.109-.778-.285-1.049l1.009-.504a.5.5 0 1 0-.448-.894l-2 1a.5.5 0 0 0-.165.76A2.12 2.12 0 0 0 9 6.5c0 .828.448 1.5 1 1.5z"/>
</svg>