<svg width="1em" height="1em" viewBox="0 0 16 16" class="bi bi-file-bar-graph-fill" fill="currentColor" xmlns="http://www.w3.org/2000/svg">
  <path fill-rule="evenodd" d="M12 0H4a2 2 0 0 0-2 2v12a2 2 0 0 0 2 2h8a2 2 0 0 0 2-2V2a2 2 0 0 0-2-2zm-2 11.5a.5.5 0 0 0 .5.5h1a.5.5 0 0 0 .5-.5v-6a.5.5 0 0 0-.5-.5h-1a.5.5 0 0 0-.5.5v6zm-2.5.5a.5.5 0 0 1-.5-.5v-4a.5.5 0 0 1 .5-.5h1a.5.5 0 0 1 .5.5v4a.5.5 0 0 1-.5.5h-1zm-3 0a.5.5 0 0 1-.5-.5v-2a.5.5 0 0 1 .5-.5h1a.5.5 0 0 1 .5.5v2a.5.5 0 0 1-.5.5h-1z"/>
</svg>