<svg width="1em" height="1em" viewBox="0 0 16 16" class="bi bi-file-font" fill="currentColor" xmlns="http://www.w3.org/2000/svg">
  <path fill-rule="evenodd" d="M4 0h8a2 2 0 0 1 2 2v12a2 2 0 0 1-2 2H4a2 2 0 0 1-2-2V2a2 2 0 0 1 2-2zm0 1a1 1 0 0 0-1 1v12a1 1 0 0 0 1 1h8a1 1 0 0 0 1-1V2a1 1 0 0 0-1-1H4z"/>
  <path d="M10.943 4H5.057L5 6h.5c.18-1.096.356-1.192 1.694-1.235l.293-.01v6.09c0 .47-.1.582-.898.655v.5H9.41v-.5c-.803-.073-.903-.184-.903-.654V4.755l.298.01c1.338.043 1.514.14 1.694 1.235h.5l-.057-2z"/>
</svg>