<svg width="1em" height="1em" viewBox="0 0 16 16" class="bi bi-file-earmark-font-fill" fill="currentColor" xmlns="http://www.w3.org/2000/svg">
  <path fill-rule="evenodd" d="M2 2a2 2 0 0 1 2-2h5.293A1 1 0 0 1 10 .293L13.707 4a1 1 0 0 1 .293.707V14a2 2 0 0 1-2 2H4a2 2 0 0 1-2-2V2zm7.5 1.5v-2l3 3h-2a1 1 0 0 1-1-1zM5.057 6h5.886L11 8h-.5c-.18-1.096-.356-1.192-1.694-1.235l-.298-.01v5.09c0 .47.1.582.903.655v.5H6.59v-.5c.799-.073.898-.184.898-.654V6.755l-.293.01C5.856 6.808 5.68 6.905 5.5 8H5l.057-2z"/>
</svg>