<svg width="1em" height="1em" viewBox="0 0 16 16" class="bi bi-file-earmark-easel-fill" fill="currentColor" xmlns="http://www.w3.org/2000/svg">
  <path fill-rule="evenodd" d="M2 2a2 2 0 0 1 2-2h5.293A1 1 0 0 1 10 .293L13.707 4a1 1 0 0 1 .293.707V14a2 2 0 0 1-2 2H4a2 2 0 0 1-2-2V2zm7.5 1.5v-2l3 3h-2a1 1 0 0 1-1-1zM8.5 6a.5.5 0 1 0-1 0h-2A1.5 1.5 0 0 0 4 7.5v2A1.5 1.5 0 0 0 5.5 11h.473l-.447 1.342a.5.5 0 1 0 .948.316L7.027 11H7.5v1a.5.5 0 0 0 1 0v-1h.473l.553 1.658a.5.5 0 1 0 .948-.316L10.027 11h.473A1.5 1.5 0 0 0 12 9.5v-2A1.5 1.5 0 0 0 10.5 6h-2zM5 7.5a.5.5 0 0 1 .5-.5h5a.5.5 0 0 1 .5.5v2a.5.5 0 0 1-.5.5h-5a.5.5 0 0 1-.5-.5v-2z"/>
</svg>