<svg width="1em" height="1em" viewBox="0 0 16 16" class="bi bi-file-easel-fill" fill="currentColor" xmlns="http://www.w3.org/2000/svg">
  <path fill-rule="evenodd" d="M12 0H4a2 2 0 0 0-2 2v12a2 2 0 0 0 2 2h8a2 2 0 0 0 2-2V2a2 2 0 0 0-2-2zM8.5 5a.5.5 0 1 0-1 0h-2A1.5 1.5 0 0 0 4 6.5v2A1.5 1.5 0 0 0 5.5 10h.473l-.447 1.342a.5.5 0 1 0 .948.316L7.027 10H7.5v1a.5.5 0 0 0 1 0v-1h.473l.553 1.658a.5.5 0 1 0 .948-.316L10.027 10h.473A1.5 1.5 0 0 0 12 8.5v-2A1.5 1.5 0 0 0 10.5 5h-2zM5 6.5a.5.5 0 0 1 .5-.5h5a.5.5 0 0 1 .5.5v2a.5.5 0 0 1-.5.5h-5a.5.5 0 0 1-.5-.5v-2z"/>
</svg>