<svg width="1em" height="1em" viewBox="0 0 16 16" class="bi bi-file-x" fill="currentColor" xmlns="http://www.w3.org/2000/svg">
  <path fill-rule="evenodd" d="M4 0h8a2 2 0 0 1 2 2v12a2 2 0 0 1-2 2H4a2 2 0 0 1-2-2V2a2 2 0 0 1 2-2zm0 1a1 1 0 0 0-1 1v12a1 1 0 0 0 1 1h8a1 1 0 0 0 1-1V2a1 1 0 0 0-1-1H4z"/>
  <path fill-rule="evenodd" d="M6.146 6.146a.5.5 0 0 1 .708 0L8 7.293l1.146-1.147a.5.5 0 1 1 .708.708L8.707 8l1.147 1.146a.5.5 0 0 1-.708.708L8 8.707 6.854 9.854a.5.5 0 0 1-.708-.708L7.293 8 6.146 6.854a.5.5 0 0 1 0-.708z"/>
</svg>