<svg width="1em" height="1em" viewBox="0 0 16 16" class="bi bi-file-bar-graph" fill="currentColor" xmlns="http://www.w3.org/2000/svg">
  <path fill-rule="evenodd" d="M4 0h8a2 2 0 0 1 2 2v12a2 2 0 0 1-2 2H4a2 2 0 0 1-2-2V2a2 2 0 0 1 2-2zm0 1a1 1 0 0 0-1 1v12a1 1 0 0 0 1 1h8a1 1 0 0 0 1-1V2a1 1 0 0 0-1-1H4z"/>
  <path d="M4.5 12a.5.5 0 0 1-.5-.5v-2a.5.5 0 0 1 .5-.5h1a.5.5 0 0 1 .5.5v2a.5.5 0 0 1-.5.5h-1zm3 0a.5.5 0 0 1-.5-.5v-4a.5.5 0 0 1 .5-.5h1a.5.5 0 0 1 .5.5v4a.5.5 0 0 1-.5.5h-1zm3 0a.5.5 0 0 1-.5-.5v-6a.5.5 0 0 1 .5-.5h1a.5.5 0 0 1 .5.5v6a.5.5 0 0 1-.5.5h-1z"/>
</svg>