<svg width="1em" height="1em" viewBox="0 0 16 16" class="bi bi-file-binary" fill="currentColor" xmlns="http://www.w3.org/2000/svg">
  <path fill-rule="evenodd" d="M4 0h8a2 2 0 0 1 2 2v12a2 2 0 0 1-2 2H4a2 2 0 0 1-2-2V2a2 2 0 0 1 2-2zm0 1a1 1 0 0 0-1 1v12a1 1 0 0 0 1 1h8a1 1 0 0 0 1-1V2a1 1 0 0 0-1-1H4z"/>
  <path d="M5.526 13.09c.976 0 1.524-.79 1.524-2.205 0-1.412-.548-2.203-1.524-2.203-.978 0-1.526.79-1.526 2.203 0 1.415.548 2.206 1.526 2.206zm-.832-2.205c0-1.05.29-1.612.832-1.612.358 0 .607.247.733.721L4.7 11.137a6.749 6.749 0 0 1-.006-.252zm.832 1.614c-.36 0-.606-.246-.732-.718l1.556-1.145c.003.079.005.164.005.249 0 1.052-.29 1.614-.829 1.614zm5.329.501v-.595H9.73V8.772h-.69l-1.19.786v.688L8.986 9.5h.05v2.906h-1.18V13h3z"/>
</svg>