<svg width="1em" height="1em" viewBox="0 0 16 16" class="bi bi-file-medical" fill="currentColor" xmlns="http://www.w3.org/2000/svg">
  <path fill-rule="evenodd" d="M4 0h8a2 2 0 0 1 2 2v12a2 2 0 0 1-2 2H4a2 2 0 0 1-2-2V2a2 2 0 0 1 2-2zm0 1a1 1 0 0 0-1 1v12a1 1 0 0 0 1 1h8a1 1 0 0 0 1-1V2a1 1 0 0 0-1-1H4z"/>
  <path fill-rule="evenodd" d="M8 4a.5.5 0 0 1 .5.5v.634l.549-.317a.5.5 0 1 1 .5.866L9 6l.549.317a.5.5 0 1 1-.5.866L8.5 6.866V7.5a.5.5 0 0 1-1 0v-.634l-.549.317a.5.5 0 1 1-.5-.866L7 6l-.549-.317a.5.5 0 0 1 .5-.866l.549.317V4.5A.5.5 0 0 1 8 4zM5 9.5a.5.5 0 0 1 .5-.5h5a.5.5 0 0 1 0 1h-5a.5.5 0 0 1-.5-.5zm0 2a.5.5 0 0 1 .5-.5h5a.5.5 0 0 1 0 1h-5a.5.5 0 0 1-.5-.5z"/>
</svg>