<svg width="1em" height="1em" viewBox="0 0 16 16" class="bi bi-file-richtext-fill" fill="currentColor" xmlns="http://www.w3.org/2000/svg">
  <path fill-rule="evenodd" d="M12 0H4a2 2 0 0 0-2 2v12a2 2 0 0 0 2 2h8a2 2 0 0 0 2-2V2a2 2 0 0 0-2-2zM7 4.25a.75.75 0 1 1-1.5 0 .75.75 0 0 1 1.5 0zm-.861 1.542l1.33.886 1.854-1.855a.25.25 0 0 1 .289-.047l1.888.974V7.5a.5.5 0 0 1-.5.5H5a.5.5 0 0 1-.5-.5V7s1.54-1.274 1.639-1.208zM5 9a.5.5 0 0 0 0 1h6a.5.5 0 0 0 0-1H5zm0 2a.5.5 0 0 0 0 1h3a.5.5 0 0 0 0-1H5z"/>
</svg>