<svg width="1em" height="1em" viewBox="0 0 16 16" class="bi bi-file-earmark-easel" fill="currentColor" xmlns="http://www.w3.org/2000/svg">
  <path d="M4 0h5.5v1H4a1 1 0 0 0-1 1v12a1 1 0 0 0 1 1h8a1 1 0 0 0 1-1V4.5h1V14a2 2 0 0 1-2 2H4a2 2 0 0 1-2-2V2a2 2 0 0 1 2-2z"/>
  <path d="M9.5 3V0L14 4.5h-3A1.5 1.5 0 0 1 9.5 3zm-1 3a.5.5 0 1 0-1 0h1zm1.527 5H8.973l.553 1.658a.5.5 0 1 0 .948-.316L10.027 11zM8.5 11h-1v1a.5.5 0 0 0 1 0v-1zm-1.473 0H5.973l-.447 1.342a.5.5 0 1 0 .948.316L7.027 11z"/>
  <path fill-rule="evenodd" d="M4 7.5A1.5 1.5 0 0 1 5.5 6h5A1.5 1.5 0 0 1 12 7.5v2a1.5 1.5 0 0 1-1.5 1.5h-5A1.5 1.5 0 0 1 4 9.5v-2zM5.5 7a.5.5 0 0 0-.5.5v2a.5.5 0 0 0 .5.5h5a.5.5 0 0 0 .5-.5v-2a.5.5 0 0 0-.5-.5h-5z"/>
</svg>