<svg width="1em" height="1em" viewBox="0 0 16 16" class="bi bi-file-lock" fill="currentColor" xmlns="http://www.w3.org/2000/svg">
  <path fill-rule="evenodd" d="M4 0h8a2 2 0 0 1 2 2v12a2 2 0 0 1-2 2H4a2 2 0 0 1-2-2V2a2 2 0 0 1 2-2zm0 1a1 1 0 0 0-1 1v12a1 1 0 0 0 1 1h8a1 1 0 0 0 1-1V2a1 1 0 0 0-1-1H4z"/>
  <path fill-rule="evenodd" d="M8 5a1 1 0 0 0-1 1v1h2V6a1 1 0 0 0-1-1zm2 2.076V6a2 2 0 1 0-4 0v1.076c-.54.166-1 .597-1 1.224v2.4c0 .816.781 1.3 1.5 1.3h3c.719 0 1.5-.484 1.5-1.3V8.3c0-.627-.46-1.058-1-1.224zM6.105 8.125C6.02 8.193 6 8.258 6 8.3v2.4c0 .042.02.107.105.175A.637.637 0 0 0 6.5 11h3a.64.64 0 0 0 .395-.125c.085-.068.105-.133.105-.175V8.3c0-.042-.02-.107-.105-.175A.637.637 0 0 0 9.5 8h-3a.637.637 0 0 0-.395.125z"/>
</svg>