<svg width="1em" height="1em" viewBox="0 0 16 16" class="bi bi-file-earmark-slides-fill" fill="currentColor" xmlns="http://www.w3.org/2000/svg">
  <path fill-rule="evenodd" d="M2 2a2 2 0 0 1 2-2h5.293A1 1 0 0 1 10 .293L13.707 4a1 1 0 0 1 .293.707V14a2 2 0 0 1-2 2H4a2 2 0 0 1-2-2V2zm7.5 1.5v-2l3 3h-2a1 1 0 0 1-1-1zM5 6a.5.5 0 0 0-.496.438l-.5 4A.5.5 0 0 0 4.5 11h3v2.016c-.863.055-1.5.251-1.5.484 0 .276.895.5 2 .5s2-.224 2-.5c0-.233-.637-.429-1.5-.484V11h3a.5.5 0 0 0 .496-.562l-.5-4A.5.5 0 0 0 11 6H5zm2 3.78V7.22c0-.096.106-.156.19-.106l2.13 1.279a.125.125 0 0 1 0 .214l-2.13 1.28A.125.125 0 0 1 7 9.778z"/>
</svg>