<svg width="1em" height="1em" viewBox="0 0 16 16" class="bi bi-file-earmark-font" fill="currentColor" xmlns="http://www.w3.org/2000/svg">
  <path d="M4 0h5.5v1H4a1 1 0 0 0-1 1v12a1 1 0 0 0 1 1h8a1 1 0 0 0 1-1V4.5h1V14a2 2 0 0 1-2 2H4a2 2 0 0 1-2-2V2a2 2 0 0 1 2-2z"/>
  <path d="M9.5 3V0L14 4.5h-3A1.5 1.5 0 0 1 9.5 3zm1.443 3H5.057L5 8h.5c.18-1.096.356-1.192 1.694-1.235l.293-.01v5.09c0 .47-.1.582-.898.655v.5H9.41v-.5c-.803-.073-.903-.184-.903-.654V6.755l.298.01c1.338.043 1.514.14 1.694 1.235h.5l-.057-2z"/>
</svg>