<svg width="1em" height="1em" viewBox="0 0 16 16" class="bi bi-hdd-network" fill="currentColor" xmlns="http://www.w3.org/2000/svg">
  <path fill-rule="evenodd" d="M14 3H2a1 1 0 0 0-1 1v1a1 1 0 0 0 1 1h12a1 1 0 0 0 1-1V4a1 1 0 0 0-1-1zM2 2a2 2 0 0 0-2 2v1a2 2 0 0 0 2 2h12a2 2 0 0 0 2-2V4a2 2 0 0 0-2-2H2z"/>
  <path d="M5 4.5a.5.5 0 1 1-1 0 .5.5 0 0 1 1 0zm-2 0a.5.5 0 1 1-1 0 .5.5 0 0 1 1 0z"/>
  <path fill-rule="evenodd" d="M7.5 10V7h1v3a1.5 1.5 0 0 1 1.5 1.5h5.5a.5.5 0 0 1 0 1H10A1.5 1.5 0 0 1 8.5 14h-1A1.5 1.5 0 0 1 6 12.5H.5a.5.5 0 0 1 0-1H6A1.5 1.5 0 0 1 7.5 10zm0 1a.5.5 0 0 0-.5.5v1a.5.5 0 0 0 .5.5h1a.5.5 0 0 0 .5-.5v-1a.5.5 0 0 0-.5-.5h-1z"/>
</svg>