<svg width="1em" height="1em" viewBox="0 0 16 16" class="bi bi-joystick" fill="currentColor" xmlns="http://www.w3.org/2000/svg">
  <path d="M7.106 15.553L.553 12.276A1 1 0 0 1 0 11.382V9.471a1 1 0 0 1 .606-.89L6 6.269v1.088L1 9.5l5.658 2.83a3 3 0 0 0 2.684 0L15 9.5l-5-2.143V6.27l5.394 2.312a1 1 0 0 1 .606.89v1.911a1 1 0 0 1-.553.894l-6.553 3.277a2 2 0 0 1-1.788 0z"/>
  <path fill-rule="evenodd" d="M7.5 9.5v-6h1v6h-1z"/>
  <path d="M10 9.75c0 .414-.895.75-2 .75s-2-.336-2-.75S6.895 9 8 9s2 .336 2 .75zM10 2a2 2 0 1 1-4 0 2 2 0 0 1 4 0z"/>
</svg>