<svg width="1em" height="1em" viewBox="0 0 16 16" class="bi bi-markdown-fill" fill="currentColor" xmlns="http://www.w3.org/2000/svg">
  <path fill-rule="evenodd" d="M0 4a2 2 0 0 1 2-2h12a2 2 0 0 1 2 2v8a2 2 0 0 1-2 2H2a2 2 0 0 1-2-2V4zm11.5 1a.5.5 0 0 1 .5.5v3.793l1.146-1.147a.5.5 0 0 1 .708.708l-2 2a.5.5 0 0 1-.708 0l-2-2a.5.5 0 1 1 .708-.708L11 9.293V5.5a.5.5 0 0 1 .5-.5zM3.56 7.01V11H2.5V5.001h1.208l1.71 3.894h.04l1.709-3.894h1.2V11H7.294V7.01h-.057l-1.42 3.239h-.773l-1.428-3.24H3.56z"/>
</svg>