<svg width="1em" height="1em" viewBox="0 0 16 16" class="bi bi-menu-down" fill="currentColor" xmlns="http://www.w3.org/2000/svg">
  <path fill-rule="evenodd" d="M15 13V4a1 1 0 0 0-1-1h-3.586A2 2 0 0 1 9 2.414l-1-1-1 1A2 2 0 0 1 5.586 3H2a1 1 0 0 0-1 1v9a1 1 0 0 0 1 1h12a1 1 0 0 0 1-1zM2 2a2 2 0 0 0-2 2v9a2 2 0 0 0 2 2h12a2 2 0 0 0 2-2V4a2 2 0 0 0-2-2h-3.586a1 1 0 0 1-.707-.293L8.354.354a.5.5 0 0 0-.708 0L6.293 1.707A1 1 0 0 1 5.586 2H2z"/>
  <path fill-rule="evenodd" d="M15 11H1v-1h14v1zm0-4H1V6h14v1zM2 12.5a.5.5 0 0 1 .5-.5h6a.5.5 0 0 1 0 1h-6a.5.5 0 0 1-.5-.5zm0-4a.5.5 0 0 1 .5-.5h11a.5.5 0 0 1 0 1h-11a.5.5 0 0 1-.5-.5zm0-4a.5.5 0 0 1 .5-.5h8a.5.5 0 0 1 0 1h-8a.5.5 0 0 1-.5-.5z"/>
</svg>