<svg width="1em" height="1em" viewBox="0 0 16 16" class="bi bi-patch-minus-fll" fill="currentColor" xmlns="http://www.w3.org/2000/svg">
  <path fill-rule="evenodd" d="M10.067.87a2.89 2.89 0 0 0-4.134 0l-.622.638-.89-.011a2.89 2.89 0 0 0-2.924 2.924l.01.89-.636.622a2.89 2.89 0 0 0 0 4.134l.637.622-.011.89a2.89 2.89 0 0 0 2.924 2.924l.89-.01.622.636a2.89 2.89 0 0 0 4.134 0l.622-.637.89.011a2.89 2.89 0 0 0 2.924-2.924l-.01-.89.636-.622a2.89 2.89 0 0 0 0-4.134l-.637-.622.011-.89a2.89 2.89 0 0 0-2.924-2.924l-.89.01-.622-.636zM6 7.5a.5.5 0 0 0 0 1h4a.5.5 0 0 0 0-1H6z"/>
</svg>