<svg width="1em" height="1em" viewBox="0 0 16 16" class="bi bi-reply-all" fill="currentColor" xmlns="http://www.w3.org/2000/svg">
  <path fill-rule="evenodd" d="M8.002 5.013a.144.144 0 0 0-.202.134V6.3a.5.5 0 0 1-.5.5c-.667 0-2.013.005-3.3.822-.984.624-1.99 1.76-2.595 3.876C2.425 10.515 3.59 9.982 4.61 9.7a8.741 8.741 0 0 1 1.921-.306 7.403 7.403 0 0 1 .798.008h.013l.005.001h.001L7.3 9.9l.05-.498a.5.5 0 0 1 .45.498v1.153c0 .108.11.176.202.134l3.984-2.933a.494.494 0 0 1 .042-.028.147.147 0 0 0 0-.252.494.494 0 0 1-.042-.028L8.002 5.013zM6.8 10.386a7.745 7.745 0 0 0-1.923.277c-1.326.368-2.896 1.201-3.94 3.08a.5.5 0 0 1-.933-.305c.464-3.71 1.886-5.662 3.46-6.66 1.245-.79 2.527-.942 3.336-.971v-.66a1.144 1.144 0 0 1 1.767-.96l3.994 2.94a1.147 1.147 0 0 1 0 1.946l-3.994 2.94a1.144 1.144 0 0 1-1.767-.96v-.667z"/>
  <path fill-rule="evenodd" d="M10.868 4.293a.5.5 0 0 1 .7-.106l3.993 2.94a1.147 1.147 0 0 1 0 1.946l-3.994 2.94a.5.5 0 0 1-.593-.805l4.012-2.954a.493.493 0 0 1 .042-.028.147.147 0 0 0 0-.252.496.496 0 0 1-.042-.028l-4.012-2.954a.5.5 0 0 1-.106-.699z"/>
</svg>