<svg width="1em" height="1em" viewBox="0 0 16 16" class="bi bi-signpost-2" fill="currentColor" xmlns="http://www.w3.org/2000/svg">
  <path d="M7 1.414V2h2v-.586a1 1 0 0 0-2 0z"/>
  <path fill-rule="evenodd" d="M13.5 3H2v2h11.5l.75-1-.75-1zM2 2a1 1 0 0 0-1 1v2a1 1 0 0 0 1 1h11.5a1 1 0 0 0 .8-.4l.975-1.3a.5.5 0 0 0 0-.6L14.3 2.4a1 1 0 0 0-.8-.4H2zm.5 6H14v2H2.5l-.75-1 .75-1zM14 7a1 1 0 0 1 1 1v2a1 1 0 0 1-1 1H2.5a1 1 0 0 1-.8-.4L.725 9.3a.5.5 0 0 1 0-.6L1.7 7.4a1 1 0 0 1 .8-.4H14z"/>
  <path d="M7 6h2v1H7V6zm0 5h2v5H7v-5z"/>
</svg>