<svg width="1em" height="1em" viewBox="0 0 16 16" class="bi bi-stickies" fill="currentColor" xmlns="http://www.w3.org/2000/svg">
  <path fill-rule="evenodd" d="M0 1.5A1.5 1.5 0 0 1 1.5 0H13a1 1 0 0 1 1 1H1.5a.5.5 0 0 0-.5.5V14a1 1 0 0 1-1-1V1.5z"/>
  <path fill-rule="evenodd" d="M2 3.5A1.5 1.5 0 0 1 3.5 2h11A1.5 1.5 0 0 1 16 3.5v6.086a1.5 1.5 0 0 1-.44 1.06l-4.914 4.915a1.5 1.5 0 0 1-1.06.439H3.5A1.5 1.5 0 0 1 2 14.5v-11zM3.5 3a.5.5 0 0 0-.5.5v11a.5.5 0 0 0 .5.5h6.086a.5.5 0 0 0 .353-.146l4.915-4.915A.5.5 0 0 0 15 9.586V3.5a.5.5 0 0 0-.5-.5h-11z"/>
  <path fill-rule="evenodd" d="M10.5 10a.5.5 0 0 0-.5.5v5H9v-5A1.5 1.5 0 0 1 10.5 9h5v1h-5z"/>
</svg>