<svg width="1em" height="1em" viewBox="0 0 16 16" class="bi bi-stoplights" fill="currentColor" xmlns="http://www.w3.org/2000/svg">
  <path d="M9.5 3.5a1.5 1.5 0 1 1-3 0 1.5 1.5 0 0 1 3 0zm0 4a1.5 1.5 0 1 1-3 0 1.5 1.5 0 0 1 3 0zm0 4a1.5 1.5 0 1 1-3 0 1.5 1.5 0 0 1 3 0z"/>
  <path fill-rule="evenodd" d="M10 1H6a1 1 0 0 0-1 1v11a1 1 0 0 0 1 1h4a1 1 0 0 0 1-1V2a1 1 0 0 0-1-1zM6 0a2 2 0 0 0-2 2v11a2 2 0 0 0 2 2h4a2 2 0 0 0 2-2V2a2 2 0 0 0-2-2H6z"/>
  <path d="M14 2h-2v2c1.2-.4 1.833-1.5 2-2zM2 2h2v2c-1.2-.4-1.833-1.5-2-2zm12 4h-2v2c1.2-.4 1.833-1.5 2-2zM2 6h2v2c-1.2-.4-1.833-1.5-2-2zm12 4h-2v2c1.2-.4 1.833-1.5 2-2zM2 10h2v2c-1.2-.4-1.833-1.5-2-2z"/>
</svg>