<svg width="1em" height="1em" viewBox="0 0 16 16" class="bi bi-toggles2" fill="currentColor" xmlns="http://www.w3.org/2000/svg">
  <path fill-rule="evenodd" d="M2 4a2 2 0 0 1 2-2h8a2 2 0 1 1 0 4H4a2 2 0 0 1-2-2zm2-1a1 1 0 0 0 0 2h8a1 1 0 1 0 0-2H4z"/>
  <path d="M14 4a4 4 0 1 1-8 0 4 4 0 0 1 8 0z"/>
  <path fill-rule="evenodd" d="M9.465 10H12a2 2 0 1 1 0 4H9.465c.34-.588.535-1.271.535-2 0-.729-.195-1.412-.535-2z"/>
  <path fill-rule="evenodd" d="M6 15a3 3 0 1 1 0-6 3 3 0 0 1 0 6zm0 1a4 4 0 1 1 0-8 4 4 0 0 1 0 8z"/>
</svg>