<svg width="1em" height="1em" viewBox="0 0 16 16" class="bi bi-trash2" fill="currentColor" xmlns="http://www.w3.org/2000/svg">
  <path fill-rule="evenodd" d="M3.18 4l1.528 9.164a1 1 0 0 0 .986.836h4.612a1 1 0 0 0 .986-.836L12.82 4H3.18zm.541 9.329A2 2 0 0 0 5.694 15h4.612a2 2 0 0 0 1.973-1.671L14 3H2l1.721 10.329z"/>
  <path d="M14 3c0 1.105-2.686 2-6 2s-6-.895-6-2 2.686-2 6-2 6 .895 6 2z"/>
  <path fill-rule="evenodd" d="M12.9 3c-.18-.14-.497-.307-.974-.466C10.967 2.214 9.58 2 8 2s-2.968.215-3.926.534c-.477.16-.795.327-.975.466.18.14.498.307.975.466C5.032 3.786 6.42 4 8 4s2.967-.215 3.926-.534c.477-.16.795-.327.975-.466zM8 5c3.314 0 6-.895 6-2s-2.686-2-6-2-6 .895-6 2 2.686 2 6 2z"/>
</svg>