<svg width="1em" height="1em" viewBox="0 0 16 16" class="bi bi-ui-radios" fill="currentColor" xmlns="http://www.w3.org/2000/svg">
  <path d="M7 2.5a.5.5 0 0 1 .5-.5h7a.5.5 0 0 1 .5.5v1a.5.5 0 0 1-.5.5h-7a.5.5 0 0 1-.5-.5v-1zM0 12a3 3 0 1 1 6 0 3 3 0 0 1-6 0zm7-1.5a.5.5 0 0 1 .5-.5h7a.5.5 0 0 1 .5.5v1a.5.5 0 0 1-.5.5h-7a.5.5 0 0 1-.5-.5v-1z"/>
  <path fill-rule="evenodd" d="M7 5.5a.5.5 0 0 1 .5-.5h5a.5.5 0 0 1 0 1h-5a.5.5 0 0 1-.5-.5zm0 8a.5.5 0 0 1 .5-.5h5a.5.5 0 0 1 0 1h-5a.5.5 0 0 1-.5-.5zM3 1a3 3 0 1 0 0 6 3 3 0 0 0 0-6zm0 4.5a1.5 1.5 0 1 0 0-3 1.5 1.5 0 0 0 0 3z"/>
</svg>